                                                                        S0000001
,,31HOpen CASCADE IGES processor 8.0,13HFilename.iges,                  G0000001
16HOpen CASCADE 8.0,31HOpen CASCADE IGES processor 8.0,32,308,15,308,15,G0000002
,1.,2,2HMM,1,0.01,15H20261008.060937,1.33333E-07,930.,4Hroot,,11,0,     G0000003
15H20261008.060937,;                                                    G0000004
     402       1       0       0       0       0       0       000000000D0000001
     402       0       0       2       1                               0D0000002
     144       3       0       0       0       0       0       000020000D0000003
     144       0       0       1       0                               0D0000004
     108       4       0       0       0       0       0       000010000D0000005
     108       0       0       1       0                               0D0000006
     142       5       0       0       0       0       0       000010500D0000007
     142       0       0       1       0                               0D0000008
     102       6       0       0       0       0       0       000010000D0000009
     102       0       0       1       0                               0D0000010
     110       7       0       0       0       0       0       000010000D0000011
     110       0       0       1       0                               0D0000012
     110       8       0       0       0       0       0       000010000D0000013
     110       0       0       1       0                               0D0000014
     110       9       0       0       0       0       0       000010000D0000015
     110       0       0       1       0                               0D0000016
     110      10       0       0       0       0       0       000010000D0000017
     110       0       0       1       0                               0D0000018
     144      11       0       0       0       0       0       000020000D0000019
     144       0       0       1       0                               0D0000020
     120      12       0       0       0       0      23       000010000D0000021
     120       0       0       1       0                               0D0000022
     124      13       0       0       0       0       0       000000000D0000023
     124       0       0       1       0                               0D0000024
     110      14       0       0       0       0       0       000010000D0000025
     110       0       0       1       0                               0D0000026
     110      15       0       0       0       0       0       000010000D0000027
     110       0       0       1       0                               0D0000028
     142      16       0       0       0       0       0       000010500D0000029
     142       0       0       1       0                               0D0000030
     102      17       0       0       0       0       0       000010000D0000031
     102       0       0       1       0                               0D0000032
     110      18       0       0       0       0       0       000010000D0000033
     110       0       0       1       0                               0D0000034
     110      19       0       0       0       0       0       000010000D0000035
     110       0       0       1       0                               0D0000036
     110      20       0       0       0       0       0       000010000D0000037
     110       0       0       1       0                               0D0000038
     110      21       0       0       0       0       0       000010000D0000039
     110       0       0       1       0                               0D0000040
     102      22       0       0       0       0       0       000010000D0000041
     102       0       0       1       0                               0D0000042
     100      23       0       0       0       0      45       000010000D0000043
     100       0       0       1       0                               0D0000044
     124      24       0       0       0       0       0       000000000D0000045
     124       0       0       1       0                               0D0000046
     110      25       0       0       0       0       0       000010000D0000047
     110       0       0       1       0                               0D0000048
     100      26       0       0       0       0      51       000010000D0000049
     100       0       0       1       0                               0D0000050
     124      27       0       0       0       0       0       000000000D0000051
     124       0       0       1       0                               0D0000052
     110      28       0       0       0       0       0       000010000D0000053
     110       0       0       1       0                               0D0000054
     144      29       0       0       0       0       0       000020000D0000055
     144       0       0       1       0                               0D0000056
     108      30       0       0       0       0       0       000010000D0000057
     108       0       0       1       0                               0D0000058
     142      31       0       0       0       0       0       000010500D0000059
     142       0       0       1       0                               0D0000060
     102      32       0       0       0       0       0       000010000D0000061
     102       0       0       1       0                               0D0000062
     110      33       0       0       0       0       0       000010000D0000063
     110       0       0       1       0                               0D0000064
     100      34       0       0       0       0      67       000010000D0000065
     100       0       0       1       0                               0D0000066
     124      35       0       0       0       0       0       000000000D0000067
     124       0       0       2       0                               0D0000068
     110      37       0       0       0       0       0       000010000D0000069
     110       0       0       1       0                               0D0000070
     100      38       0       0       0       0      73       000010000D0000071
     100       0       0       1       0                               0D0000072
     124      39       0       0       0       0       0       000000000D0000073
     124       0       0       2       0                               0D0000074
     110      41       0       0       0       0       0       000010000D0000075
     110       0       0       1       0                               0D0000076
     100      42       0       0       0       0      79       000010000D0000077
     100       0       0       1       0                               0D0000078
     124      43       0       0       0       0       0       000000000D0000079
     124       0       0       2       0                               0D0000080
     110      45       0       0       0       0       0       000010000D0000081
     110       0       0       1       0                               0D0000082
     100      46       0       0       0       0      85       000010000D0000083
     100       0       0       1       0                               0D0000084
     124      47       0       0       0       0       0       000000000D0000085
     124       0       0       2       0                               0D0000086
     142      49       0       0       0       0       0       000010500D0000087
     142       0       0       1       0                               0D0000088
     102      50       0       0       0       0       0       000010000D0000089
     102       0       0       1       0                               0D0000090
     110      51       0       0       0       0       0       000010000D0000091
     110       0       0       1       0                               0D0000092
     100      52       0       0       0       0      95       000010000D0000093
     100       0       0       1       0                               0D0000094
     124      53       0       0       0       0       0       000000000D0000095
     124       0       0       1       0                               0D0000096
     110      54       0       0       0       0       0       000010000D0000097
     110       0       0       1       0                               0D0000098
     100      55       0       0       0       0     101       000010000D0000099
     100       0       0       1       0                               0D0000100
     124      56       0       0       0       0       0       000000000D0000101
     124       0       0       1       0                               0D0000102
     110      57       0       0       0       0       0       000010000D0000103
     110       0       0       1       0                               0D0000104
     100      58       0       0       0       0     107       000010000D0000105
     100       0       0       1       0                               0D0000106
     124      59       0       0       0       0       0       000000000D0000107
     124       0       0       1       0                               0D0000108
     110      60       0       0       0       0       0       000010000D0000109
     110       0       0       1       0                               0D0000110
     100      61       0       0       0       0     113       000010000D0000111
     100       0       0       1       0                               0D0000112
     124      62       0       0       0       0       0       000000000D0000113
     124       0       0       1       0                               0D0000114
     144      63       0       0       0       0       0       000020000D0000115
     144       0       0       1       0                               0D0000116
     120      64       0       0       0       0     119       000010000D0000117
     120       0       0       1       0                               0D0000118
     124      65       0       0       0       0       0       000000000D0000119
     124       0       0       1       0                               0D0000120
     110      66       0       0       0       0       0       000010000D0000121
     110       0       0       1       0                               0D0000122
     110      67       0       0       0       0       0       000010000D0000123
     110       0       0       1       0                               0D0000124
     142      68       0       0       0       0       0       000010500D0000125
     142       0       0       1       0                               0D0000126
     102      69       0       0       0       0       0       000010000D0000127
     102       0       0       1       0                               0D0000128
     110      70       0       0       0       0       0       000010000D0000129
     110       0       0       1       0                               0D0000130
     110      71       0       0       0       0       0       000010000D0000131
     110       0       0       1       0                               0D0000132
     110      72       0       0       0       0       0       000010000D0000133
     110       0       0       1       0                               0D0000134
     110      73       0       0       0       0       0       000010000D0000135
     110       0       0       1       0                               0D0000136
     102      74       0       0       0       0       0       000010000D0000137
     102       0       0       1       0                               0D0000138
     100      75       0       0       0       0     141       000010000D0000139
     100       0       0       1       0                               0D0000140
     124      76       0       0       0       0       0       000000000D0000141
     124       0       0       1       0                               0D0000142
     110      77       0       0       0       0       0       000010000D0000143
     110       0       0       1       0                               0D0000144
     100      78       0       0       0       0     147       000010000D0000145
     100       0       0       1       0                               0D0000146
     124      79       0       0       0       0       0       000000000D0000147
     124       0       0       1       0                               0D0000148
     110      80       0       0       0       0       0       000010000D0000149
     110       0       0       1       0                               0D0000150
     144      81       0       0       0       0       0       000020000D0000151
     144       0       0       1       0                               0D0000152
     108      82       0       0       0       0       0       000010000D0000153
     108       0       0       1       0                               0D0000154
     142      83       0       0       0       0       0       000010500D0000155
     142       0       0       1       0                               0D0000156
     102      84       0       0       0       0       0       000010000D0000157
     102       0       0       1       0                               0D0000158
     100      85       0       0       0       0     161       000010000D0000159
     100       0       0       1       0                               0D0000160
     124      86       0       0       0       0       0       000000000D0000161
     124       0       0       2       0                               0D0000162
     110      88       0       0       0       0       0       000010000D0000163
     110       0       0       1       0                               0D0000164
     100      89       0       0       0       0     167       000010000D0000165
     100       0       0       1       0                               0D0000166
     124      90       0       0       0       0       0       000000000D0000167
     124       0       0       2       0                               0D0000168
     110      92       0       0       0       0       0       000010000D0000169
     110       0       0       1       0                               0D0000170
     100      93       0       0       0       0     173       000010000D0000171
     100       0       0       1       0                               0D0000172
     124      94       0       0       0       0       0       000000000D0000173
     124       0       0       2       0                               0D0000174
     110      96       0       0       0       0       0       000010000D0000175
     110       0       0       1       0                               0D0000176
     100      97       0       0       0       0     179       000010000D0000177
     100       0       0       1       0                               0D0000178
     124      98       0       0       0       0       0       000000000D0000179
     124       0       0       2       0                               0D0000180
     110     100       0       0       0       0       0       000010000D0000181
     110       0       0       1       0                               0D0000182
     142     101       0       0       0       0       0       000010500D0000183
     142       0       0       1       0                               0D0000184
     102     102       0       0       0       0       0       000010000D0000185
     102       0       0       1       0                               0D0000186
     110     103       0       0       0       0       0       000010000D0000187
     110       0       0       1       0                               0D0000188
     100     104       0       0       0       0     191       000010000D0000189
     100       0       0       1       0                               0D0000190
     124     105       0       0       0       0       0       000000000D0000191
     124       0       0       1       0                               0D0000192
     110     106       0       0       0       0       0       000010000D0000193
     110       0       0       1       0                               0D0000194
     100     107       0       0       0       0     197       000010000D0000195
     100       0       0       1       0                               0D0000196
     124     108       0       0       0       0       0       000000000D0000197
     124       0       0       1       0                               0D0000198
     110     109       0       0       0       0       0       000010000D0000199
     110       0       0       1       0                               0D0000200
     100     110       0       0       0       0     203       000010000D0000201
     100       0       0       1       0                               0D0000202
     124     111       0       0       0       0       0       000000000D0000203
     124       0       0       1       0                               0D0000204
     110     112       0       0       0       0       0       000010000D0000205
     110       0       0       1       0                               0D0000206
     100     113       0       0       0       0     209       000010000D0000207
     100       0       0       1       0                               0D0000208
     124     114       0       0       0       0       0       000000000D0000209
     124       0       0       1       0                               0D0000210
     144     115       0       0       0       0       0       000020000D0000211
     144       0       0       1       0                               0D0000212
     108     116       0       0       0       0       0       000010000D0000213
     108       0       0       1       0                               0D0000214
     142     117       0       0       0       0       0       000010500D0000215
     142       0       0       1       0                               0D0000216
     102     118       0       0       0       0       0       000010000D0000217
     102       0       0       1       0                               0D0000218
     110     119       0       0       0       0       0       000010000D0000219
     110       0       0       1       0                               0D0000220
     110     120       0       0       0       0       0       000010000D0000221
     110       0       0       1       0                               0D0000222
     110     121       0       0       0       0       0       000010000D0000223
     110       0       0       1       0                               0D0000224
     110     122       0       0       0       0       0       000010000D0000225
     110       0       0       1       0                               0D0000226
     144     123       0       0       0       0       0       000020000D0000227
     144       0       0       1       0                               0D0000228
     120     124       0       0       0       0     231       000010000D0000229
     120       0       0       1       0                               0D0000230
     124     125       0       0       0       0       0       000000000D0000231
     124       0       0       1       0                               0D0000232
     110     126       0       0       0       0       0       000010000D0000233
     110       0       0       1       0                               0D0000234
     110     127       0       0       0       0       0       000010000D0000235
     110       0       0       1       0                               0D0000236
     142     128       0       0       0       0       0       000010500D0000237
     142       0       0       1       0                               0D0000238
     102     129       0       0       0       0       0       000010000D0000239
     102       0       0       1       0                               0D0000240
     110     130       0       0       0       0       0       000010000D0000241
     110       0       0       1       0                               0D0000242
     110     131       0       0       0       0       0       000010000D0000243
     110       0       0       1       0                               0D0000244
     110     132       0       0       0       0       0       000010000D0000245
     110       0       0       1       0                               0D0000246
     110     133       0       0       0       0       0       000010000D0000247
     110       0       0       1       0                               0D0000248
     102     134       0       0       0       0       0       000010000D0000249
     102       0       0       1       0                               0D0000250
     100     135       0       0       0       0     253       000010000D0000251
     100       0       0       1       0                               0D0000252
     124     136       0       0       0       0       0       000000000D0000253
     124       0       0       1       0                               0D0000254
     110     137       0       0       0       0       0       000010000D0000255
     110       0       0       1       0                               0D0000256
     100     138       0       0       0       0     259       000010000D0000257
     100       0       0       1       0                               0D0000258
     124     139       0       0       0       0       0       000000000D0000259
     124       0       0       1       0                               0D0000260
     110     140       0       0       0       0       0       000010000D0000261
     110       0       0       1       0                               0D0000262
     144     141       0       0       0       0       0       000020000D0000263
     144       0       0       1       0                               0D0000264
     108     142       0       0       0       0       0       000010000D0000265
     108       0       0       1       0                               0D0000266
     142     143       0       0       0       0       0       000010500D0000267
     142       0       0       1       0                               0D0000268
     102     144       0       0       0       0       0       000010000D0000269
     102       0       0       1       0                               0D0000270
     110     145       0       0       0       0       0       000010000D0000271
     110       0       0       1       0                               0D0000272
     110     146       0       0       0       0       0       000010000D0000273
     110       0       0       1       0                               0D0000274
     110     147       0       0       0       0       0       000010000D0000275
     110       0       0       1       0                               0D0000276
     110     148       0       0       0       0       0       000010000D0000277
     110       0       0       1       0                               0D0000278
     144     149       0       0       0       0       0       000020000D0000279
     144       0       0       1       0                               0D0000280
     120     150       0       0       0       0     283       000010000D0000281
     120       0       0       1       0                               0D0000282
     124     151       0       0       0       0       0       000000000D0000283
     124       0       0       1       0                               0D0000284
     110     152       0       0       0       0       0       000010000D0000285
     110       0       0       1       0                               0D0000286
     110     153       0       0       0       0       0       000010000D0000287
     110       0       0       1       0                               0D0000288
     142     154       0       0       0       0       0       000010500D0000289
     142       0       0       1       0                               0D0000290
     102     155       0       0       0       0       0       000010000D0000291
     102       0       0       1       0                               0D0000292
     110     156       0       0       0       0       0       000010000D0000293
     110       0       0       1       0                               0D0000294
     110     157       0       0       0       0       0       000010000D0000295
     110       0       0       1       0                               0D0000296
     110     158       0       0       0       0       0       000010000D0000297
     110       0       0       1       0                               0D0000298
     110     159       0       0       0       0       0       000010000D0000299
     110       0       0       1       0                               0D0000300
     102     160       0       0       0       0       0       000010000D0000301
     102       0       0       1       0                               0D0000302
     100     161       0       0       0       0     305       000010000D0000303
     100       0       0       1       0                               0D0000304
     124     162       0       0       0       0       0       000000000D0000305
     124       0       0       1       0                               0D0000306
     110     163       0       0       0       0       0       000010000D0000307
     110       0       0       1       0                               0D0000308
     100     164       0       0       0       0     311       000010000D0000309
     100       0       0       1       0                               0D0000310
     124     165       0       0       0       0       0       000000000D0000311
     124       0       0       1       0                               0D0000312
     110     166       0       0       0       0       0       000010000D0000313
     110       0       0       1       0                               0D0000314
     144     167       0       0       0       0       0       000020000D0000315
     144       0       0       1       0                               0D0000316
     108     168       0       0       0       0       0       000010000D0000317
     108       0       0       1       0                               0D0000318
     142     169       0       0       0       0       0       000010500D0000319
     142       0       0       1       0                               0D0000320
     102     170       0       0       0       0       0       000010000D0000321
     102       0       0       1       0                               0D0000322
     110     171       0       0       0       0       0       000010000D0000323
     110       0       0       1       0                               0D0000324
     110     172       0       0       0       0       0       000010000D0000325
     110       0       0       1       0                               0D0000326
     110     173       0       0       0       0       0       000010000D0000327
     110       0       0       1       0                               0D0000328
     110     174       0       0       0       0       0       000010000D0000329
     110       0       0       1       0                               0D0000330
     144     175       0       0       0       0       0       000020000D0000331
     144       0       0       1       0                               0D0000332
     108     176       0       0       0       0       0       000010000D0000333
     108       0       0       1       0                               0D0000334
     142     177       0       0       0       0       0       000010500D0000335
     142       0       0       1       0                               0D0000336
     102     178       0       0       0       0       0       000010000D0000337
     102       0       0       1       0                               0D0000338
     110     179       0       0       0       0       0       000010000D0000339
     110       0       0       1       0                               0D0000340
     110     180       0       0       0       0       0       000010000D0000341
     110       0       0       1       0                               0D0000342
     110     181       0       0       0       0       0       000010000D0000343
     110       0       0       1       0                               0D0000344
     110     182       0       0       0       0       0       000010000D0000345
     110       0       0       1       0                               0D0000346
     144     183       0       0       0       0       0       000020000D0000347
     144       0       0       1       0                               0D0000348
     120     184       0       0       0       0     351       000010000D0000349
     120       0       0       1       0                               0D0000350
     124     185       0       0       0       0       0       000000000D0000351
     124       0       0       2       1                               0D0000352
     110     187       0       0       0       0       0       000010000D0000353
     110       0       0       1       0                               0D0000354
     110     188       0       0       0       0       0       000010000D0000355
     110       0       0       1       0                               0D0000356
     142     189       0       0       0       0       0       000010500D0000357
     142       0       0       1       0                               0D0000358
     102     190       0       0       0       0       0       000010000D0000359
     102       0       0       1       0                               0D0000360
     110     191       0       0       0       0       0       000010000D0000361
     110       0       0       1       0                               0D0000362
     110     192       0       0       0       0       0       000010000D0000363
     110       0       0       1       0                               0D0000364
     110     193       0       0       0       0       0       000010000D0000365
     110       0       0       1       0                               0D0000366
     110     194       0       0       0       0       0       000010000D0000367
     110       0       0       2       0                               0D0000368
     102     196       0       0       0       0       0       000010000D0000369
     102       0       0       1       0                               0D0000370
     110     197       0       0       0       0       0       000010000D0000371
     110       0       0       1       0                               0D0000372
     100     198       0       0       0       0     375       000010000D0000373
     100       0       0       1       0                               0D0000374
     124     199       0       0       0       0       0       000000000D0000375
     124       0       0       2       0                               0D0000376
     110     201       0       0       0       0       0       000010000D0000377
     110       0       0       1       0                               0D0000378
     100     202       0       0       0       0     381       000010000D0000379
     100       0       0       1       0                               0D0000380
     124     203       0       0       0       0       0       000000000D0000381
     124       0       0       2       0                               0D0000382
     144     205       0       0       0       0       0       000020000D0000383
     144       0       0       1       0                               0D0000384
     108     206       0       0       0       0       0       000010000D0000385
     108       0       0       1       0                               0D0000386
     142     207       0       0       0       0       0       000010500D0000387
     142       0       0       1       0                               0D0000388
     102     208       0       0       0       0       0       000010000D0000389
     102       0       0       1       0                               0D0000390
     110     209       0       0       0       0       0       000010000D0000391
     110       0       0       1       0                               0D0000392
     110     210       0       0       0       0       0       000010000D0000393
     110       0       0       1       0                               0D0000394
     110     211       0       0       0       0       0       000010000D0000395
     110       0       0       1       0                               0D0000396
     110     212       0       0       0       0       0       000010000D0000397
     110       0       0       1       0                               0D0000398
     144     213       0       0       0       0       0       000020000D0000399
     144       0       0       1       0                               0D0000400
     120     214       0       0       0       0     403       000010000D0000401
     120       0       0       1       0                               0D0000402
     124     215       0       0       0       0       0       000000000D0000403
     124       0       0       2       1                               0D0000404
     110     217       0       0       0       0       0       000010000D0000405
     110       0       0       1       0                               0D0000406
     110     218       0       0       0       0       0       000010000D0000407
     110       0       0       1       0                               0D0000408
     142     219       0       0       0       0       0       000010500D0000409
     142       0       0       1       0                               0D0000410
     102     220       0       0       0       0       0       000010000D0000411
     102       0       0       1       0                               0D0000412
     110     221       0       0       0       0       0       000010000D0000413
     110       0       0       1       0                               0D0000414
     110     222       0       0       0       0       0       000010000D0000415
     110       0       0       1       0                               0D0000416
     110     223       0       0       0       0       0       000010000D0000417
     110       0       0       1       0                               0D0000418
     110     224       0       0       0       0       0       000010000D0000419
     110       0       0       2       0                               0D0000420
     102     226       0       0       0       0       0       000010000D0000421
     102       0       0       1       0                               0D0000422
     110     227       0       0       0       0       0       000010000D0000423
     110       0       0       1       0                               0D0000424
     100     228       0       0       0       0     427       000010000D0000425
     100       0       0       1       0                               0D0000426
     124     229       0       0       0       0       0       000000000D0000427
     124       0       0       2       0                               0D0000428
     110     231       0       0       0       0       0       000010000D0000429
     110       0       0       1       0                               0D0000430
     100     232       0       0       0       0     433       000010000D0000431
     100       0       0       1       0                               0D0000432
     124     233       0       0       0       0       0       000000000D0000433
     124       0       0       2       0                               0D0000434
     144     235       0       0       0       0       0       000020000D0000435
     144       0       0       1       0                               0D0000436
     108     236       0       0       0       0       0       000010000D0000437
     108       0       0       1       0                               0D0000438
     142     237       0       0       0       0       0       000010500D0000439
     142       0       0       1       0                               0D0000440
     102     238       0       0       0       0       0       000010000D0000441
     102       0       0       1       0                               0D0000442
     110     239       0       0       0       0       0       000010000D0000443
     110       0       0       1       0                               0D0000444
     110     240       0       0       0       0       0       000010000D0000445
     110       0       0       1       0                               0D0000446
     110     241       0       0       0       0       0       000010000D0000447
     110       0       0       1       0                               0D0000448
     110     242       0       0       0       0       0       000010000D0000449
     110       0       0       1       0                               0D0000450
     144     243       0       0       0       0       0       000020000D0000451
     144       0       0       1       0                               0D0000452
     120     244       0       0       0       0     455       000010000D0000453
     120       0       0       1       0                               0D0000454
     124     245       0       0       0       0       0       000000000D0000455
     124       0       0       2       1                               0D0000456
     110     247       0       0       0       0       0       000010000D0000457
     110       0       0       1       0                               0D0000458
     110     248       0       0       0       0       0       000010000D0000459
     110       0       0       1       0                               0D0000460
     142     249       0       0       0       0       0       000010500D0000461
     142       0       0       1       0                               0D0000462
     102     250       0       0       0       0       0       000010000D0000463
     102       0       0       1       0                               0D0000464
     110     251       0       0       0       0       0       000010000D0000465
     110       0       0       1       0                               0D0000466
     110     252       0       0       0       0       0       000010000D0000467
     110       0       0       1       0                               0D0000468
     110     253       0       0       0       0       0       000010000D0000469
     110       0       0       1       0                               0D0000470
     110     254       0       0       0       0       0       000010000D0000471
     110       0       0       2       0                               0D0000472
     102     256       0       0       0       0       0       000010000D0000473
     102       0       0       1       0                               0D0000474
     110     257       0       0       0       0       0       000010000D0000475
     110       0       0       1       0                               0D0000476
     100     258       0       0       0       0     479       000010000D0000477
     100       0       0       1       0                               0D0000478
     124     259       0       0       0       0       0       000000000D0000479
     124       0       0       2       0                               0D0000480
     110     261       0       0       0       0       0       000010000D0000481
     110       0       0       1       0                               0D0000482
     100     262       0       0       0       0     485       000010000D0000483
     100       0       0       1       0                               0D0000484
     124     263       0       0       0       0       0       000000000D0000485
     124       0       0       2       0                               0D0000486
     144     265       0       0       0       0       0       000020000D0000487
     144       0       0       1       0                               0D0000488
     108     266       0       0       0       0       0       000010000D0000489
     108       0       0       1       0                               0D0000490
     142     267       0       0       0       0       0       000010500D0000491
     142       0       0       1       0                               0D0000492
     102     268       0       0       0       0       0       000010000D0000493
     102       0       0       1       0                               0D0000494
     110     269       0       0       0       0       0       000010000D0000495
     110       0       0       1       0                               0D0000496
     110     270       0       0       0       0       0       000010000D0000497
     110       0       0       1       0                               0D0000498
     110     271       0       0       0       0       0       000010000D0000499
     110       0       0       1       0                               0D0000500
     110     272       0       0       0       0       0       000010000D0000501
     110       0       0       1       0                               0D0000502
     144     273       0       0       0       0       0       000020000D0000503
     144       0       0       1       0                               0D0000504
     120     274       0       0       0       0     507       000010000D0000505
     120       0       0       1       0                               0D0000506
     124     275       0       0       0       0       0       000000000D0000507
     124       0       0       2       1                               0D0000508
     110     277       0       0       0       0       0       000010000D0000509
     110       0       0       1       0                               0D0000510
     110     278       0       0       0       0       0       000010000D0000511
     110       0       0       1       0                               0D0000512
     142     279       0       0       0       0       0       000010500D0000513
     142       0       0       1       0                               0D0000514
     102     280       0       0       0       0       0       000010000D0000515
     102       0       0       1       0                               0D0000516
     110     281       0       0       0       0       0       000010000D0000517
     110       0       0       1       0                               0D0000518
     110     282       0       0       0       0       0       000010000D0000519
     110       0       0       1       0                               0D0000520
     110     283       0       0       0       0       0       000010000D0000521
     110       0       0       1       0                               0D0000522
     110     284       0       0       0       0       0       000010000D0000523
     110       0       0       2       0                               0D0000524
     102     286       0       0       0       0       0       000010000D0000525
     102       0       0       1       0                               0D0000526
     110     287       0       0       0       0       0       000010000D0000527
     110       0       0       1       0                               0D0000528
     100     288       0       0       0       0     531       000010000D0000529
     100       0       0       1       0                               0D0000530
     124     289       0       0       0       0       0       000000000D0000531
     124       0       0       2       0                               0D0000532
     110     291       0       0       0       0       0       000010000D0000533
     110       0       0       1       0                               0D0000534
     100     292       0       0       0       0     537       000010000D0000535
     100       0       0       1       0                               0D0000536
     124     293       0       0       0       0       0       000000000D0000537
     124       0       0       2       0                               0D0000538
402,18,3,19,55,115,151,211,227,263,279,315,331,347,383,399,435,  0000001P0000001
451,487,503;                                                     0000001P0000002
144,5,1,0,7;                                                     0000003P0000003
108,1.,0.,0.,20.,0,20.,-140.,-17.,0.;                            0000005P0000004
142,0,5,0,9,2;                                                   0000007P0000005
102,4,11,13,15,17;                                               0000009P0000006
110,20.,930.,17.,20.,0.,17.;                                     0000011P0000007
110,20.,0.,17.,20.,0.,-17.;                                      0000013P0000008
110,20.,0.,-17.,20.,930.,-17.;                                   0000015P0000009
110,20.,930.,-17.,20.,930.,17.;                                  0000017P0000010
144,21,1,0,29;                                                   0000019P0000011
120,25,27,4.71238898,6.283185307;                                0000021P0000012
124,1.,0.,0.,17.,0.,0.,-1.,-140.,0.,1.,0.,17.;                   0000023P0000013
110,0.,0.,1.,0.,0.,0.;                                           0000025P0000014
110,3.,0.,-1.07E+03,3.,0.,-140.;                                 0000027P0000015
142,0,21,31,41,3;                                                0000029P0000016
102,4,33,35,37,39;                                               0000031P0000017
110,1.,4.71238898,0.,1.,6.283185307,0.;                          0000033P0000018
110,1.,6.283185307,0.,-2.220446049E-16,6.283185307,0.;           0000035P0000019
110,0.,6.283185307,0.,-3.750396234E-19,4.71238898,0.;            0000037P0000020
110,-2.220446049E-16,4.71238898,0.,1.,4.71238898,0.;             0000039P0000021
102,4,43,47,49,53;                                               0000041P0000022
100,0.,0.,0.,0.,-3.,3.,0.;                                       0000043P0000023
124,1.,0.,0.,17.,0.,0.,1.,0.,0.,-1.,0.,17.;                      0000045P0000024
110,20.,0.,17.,20.,930.,17.;                                     0000047P0000025
100,0.,0.,0.,3.,0.,0.,3.;                                        0000049P0000026
124,1.,0.,0.,17.,0.,0.,-1.,930.,0.,1.,0.,17.;                    0000051P0000027
110,17.,930.,20.,17.,0.,20.;                                     0000053P0000028
144,57,1,1,59,87;                                                0000055P0000029
108,0.,1.,0.,930.,0,-9.98E+03,930.,-1.E+04,0.;                   0000057P0000030
142,0,57,0,61,2;                                                 0000059P0000031
102,8,63,65,69,71,75,77,81,83;                                   0000061P0000032
110,18.5,930.,-17.,18.5,930.,17.;                                0000063P0000033
100,0.,0.,0.,1.5,0.,-1.421085472E-14,1.5;                        0000065P0000034
124,1.,4.736951572E-15,0.,17.,0.,0.,-1.,930.,-4.736951572E-15,   0000067P0000035
1.,0.,17.;                                                       0000067P0000036
110,17.,930.,18.5,-17.,930.,18.5;                                0000069P0000037
100,0.,0.,0.,1.5,0.,-1.421085472E-14,1.5;                        0000071P0000038
124,4.736951572E-15,-1.,0.,-17.,0.,0.,-1.,930.,1.,               0000073P0000039
4.736951572E-15,0.,17.;                                          0000073P0000040
110,-18.5,930.,17.,-18.5,930.,-17.;                              0000075P0000041
100,0.,0.,0.,1.5,0.,-1.421085472E-14,1.5;                        0000077P0000042
124,-1.,-4.736951572E-15,0.,-17.,0.,-0.,-1.,930.,                0000079P0000043
4.736951572E-15,-1.,0.,-17.;                                     0000079P0000044
110,-17.,930.,-18.5,17.,930.,-18.5;                              0000081P0000045
100,0.,0.,0.,1.5,0.,-1.421085472E-14,1.5;                        0000083P0000046
124,-4.736951572E-15,1.,0.,17.,-0.,0.,-1.,930.,-1.,              0000085P0000047
-4.736951572E-15,0.,-17.;                                        0000085P0000048
142,0,57,0,89,2;                                                 0000087P0000049
102,8,91,93,97,99,103,105,109,111;                               0000089P0000050
110,20.,930.,17.,20.,930.,-17.;                                  0000091P0000051
100,0.,0.,0.,0.,-3.,3.,0.;                                       0000093P0000052
124,0.,-1.,0.,17.,0.,-0.,1.,930.,-1.,-0.,0.,-17.;                0000095P0000053
110,17.,930.,-20.,-17.,930.,-20.;                                0000097P0000054
100,0.,0.,0.,0.,-3.,3.,0.;                                       0000099P0000055
124,-1.,0.,0.,-17.,0.,0.,1.,930.,0.,1.,0.,-17.;                  0000101P0000056
110,-20.,930.,-17.,-20.,930.,17.;                                0000103P0000057
100,0.,0.,0.,0.,-3.,3.,0.;                                       0000105P0000058
124,0.,1.,0.,-17.,0.,0.,1.,930.,1.,0.,0.,17.;                    0000107P0000059
110,-17.,930.,20.,17.,930.,20.;                                  0000109P0000060
100,0.,0.,0.,0.,-3.,3.,0.;                                       0000111P0000061
124,1.,0.,0.,17.,0.,0.,1.,930.,0.,-1.,0.,17.;                    0000113P0000062
144,117,1,0,125;                                                 0000115P0000063
120,121,123,4.71238898,6.283185307;                              0000117P0000064
124,0.,1.,0.,17.,0.,0.,-1.,-140.,-1.,0.,0.,-17.;                 0000119P0000065
110,0.,0.,1.,0.,0.,0.;                                           0000121P0000066
110,3.,0.,-1.07E+03,3.,0.,-140.;                                 0000123P0000067
142,0,117,127,137,3;                                             0000125P0000068
102,4,129,131,133,135;                                           0000127P0000069
110,1.,4.71238898,0.,1.,6.283185307,0.;                          0000129P0000070
110,1.,6.283185307,0.,-2.220446049E-16,6.283185307,0.;           0000131P0000071
110,0.,6.283185307,0.,-3.750396234E-19,4.71238898,0.;            0000133P0000072
110,-2.220446049E-16,4.71238898,0.,1.,4.71238898,0.;             0000135P0000073
102,4,139,143,145,149;                                           0000137P0000074
100,0.,0.,0.,0.,-3.,3.,0.;                                       0000139P0000075
124,0.,-1.,0.,17.,0.,-0.,1.,0.,-1.,-0.,0.,-17.;                  0000141P0000076
110,17.,0.,-20.,17.,930.,-20.;                                   0000143P0000077
100,0.,0.,0.,3.,0.,0.,3.;                                        0000145P0000078
124,0.,1.,0.,17.,0.,0.,-1.,930.,-1.,0.,0.,-17.;                  0000147P0000079
110,20.,930.,-17.,20.,0.,-17.;                                   0000149P0000080
144,153,1,1,155,183;                                             0000151P0000081
108,0.,-1.,0.,0.,0,-9.98E+03,0.,1.E+04,0.;                       0000153P0000082
142,0,153,0,157,2;                                               0000155P0000083
102,8,159,163,165,169,171,175,177,181;                           0000157P0000084
100,0.,0.,0.,-1.421085472E-14,-1.5,1.5,0.;                       0000159P0000085
124,1.,-4.736951572E-15,0.,17.,0.,-0.,1.,0.,-4.736951572E-15,    0000161P0000086
-1.,0.,17.;                                                      0000161P0000087
110,18.5,0.,17.,18.5,0.,-17.;                                    0000163P0000088
100,0.,0.,0.,-1.421085472E-14,-1.5,1.5,0.;                       0000165P0000089
124,-4.736951572E-15,-1.,0.,17.,-0.,0.,1.,0.,-1.,                0000167P0000090
4.736951572E-15,0.,-17.;                                         0000167P0000091
110,17.,0.,-18.5,-17.,0.,-18.5;                                  0000169P0000092
100,0.,0.,0.,-1.421085472E-14,-1.5,1.5,0.;                       0000171P0000093
124,-1.,4.736951572E-15,0.,-17.,0.,0.,1.,0.,4.736951572E-15,1.,  0000173P0000094
0.,-17.;                                                         0000173P0000095
110,-18.5,0.,-17.,-18.5,0.,17.;                                  0000175P0000096
100,0.,0.,0.,-1.421085472E-14,-1.5,1.5,0.;                       0000177P0000097
124,4.736951572E-15,1.,0.,-17.,0.,0.,1.,0.,1.,-4.736951572E-15,  0000179P0000098
0.,17.;                                                          0000179P0000099
110,-17.,0.,18.5,17.,0.,18.5;                                    0000181P0000100
142,0,153,0,185,2;                                               0000183P0000101
102,8,187,189,193,195,199,201,205,207;                           0000185P0000102
110,20.,0.,-17.,20.,0.,17.;                                      0000187P0000103
100,0.,0.,0.,3.,0.,0.,3.;                                        0000189P0000104
124,1.,0.,0.,17.,0.,0.,-1.,0.,0.,1.,0.,17.;                      0000191P0000105
110,17.,0.,20.,-17.,0.,20.;                                      0000193P0000106
100,0.,0.,0.,3.,0.,0.,3.;                                        0000195P0000107
124,0.,-1.,0.,-17.,0.,0.,-1.,0.,1.,0.,0.,17.;                    0000197P0000108
110,-20.,0.,17.,-20.,0.,-17.;                                    0000199P0000109
100,0.,0.,0.,3.,0.,0.,3.;                                        0000201P0000110
124,-1.,-0.,0.,-17.,0.,-0.,-1.,0.,0.,-1.,0.,-17.;                0000203P0000111
110,-17.,0.,-20.,17.,0.,-20.;                                    0000205P0000112
100,0.,0.,0.,3.,0.,0.,3.;                                        0000207P0000113
124,0.,1.,0.,17.,0.,0.,-1.,0.,-1.,0.,0.,-17.;                    0000209P0000114
144,213,1,0,215;                                                 0000211P0000115
108,0.,-0.,1.,20.,0,17.,-140.,20.,0.;                            0000213P0000116
142,0,213,0,217,2;                                               0000215P0000117
102,4,219,221,223,225;                                           0000217P0000118
110,-17.,930.,20.,-17.,0.,20.;                                   0000219P0000119
110,-17.,0.,20.,17.,0.,20.;                                      0000221P0000120
110,17.,0.,20.,17.,930.,20.;                                     0000223P0000121
110,17.,930.,20.,-17.,930.,20.;                                  0000225P0000122
144,229,1,0,237;                                                 0000227P0000123
120,233,235,4.71238898,6.283185307;                              0000229P0000124
124,0.,-1.,0.,-17.,0.,0.,-1.,-140.,1.,0.,0.,17.;                 0000231P0000125
110,0.,0.,1.,0.,0.,0.;                                           0000233P0000126
110,3.,0.,-1.07E+03,3.,0.,-140.;                                 0000235P0000127
142,0,229,239,249,3;                                             0000237P0000128
102,4,241,243,245,247;                                           0000239P0000129
110,1.,4.71238898,0.,1.,6.283185307,0.;                          0000241P0000130
110,1.,6.283185307,0.,-2.220446049E-16,6.283185307,0.;           0000243P0000131
110,0.,6.283185307,0.,-3.750396234E-19,4.71238898,0.;            0000245P0000132
110,-2.220446049E-16,4.71238898,0.,1.,4.71238898,0.;             0000247P0000133
102,4,251,255,257,261;                                           0000249P0000134
100,0.,0.,0.,0.,-3.,3.,0.;                                       0000251P0000135
124,0.,1.,0.,-17.,0.,0.,1.,0.,1.,0.,0.,17.;                      0000253P0000136
110,-17.,0.,20.,-17.,930.,20.;                                   0000255P0000137
100,0.,0.,0.,3.,0.,0.,3.;                                        0000257P0000138
124,0.,-1.,0.,-17.,0.,0.,-1.,930.,1.,0.,0.,17.;                  0000259P0000139
110,-20.,930.,17.,-20.,0.,17.;                                   0000261P0000140
144,265,1,0,267;                                                 0000263P0000141
108,-1.,0.,0.,20.,0,-20.,-140.,17.,0.;                           0000265P0000142
142,0,265,0,269,2;                                               0000267P0000143
102,4,271,273,275,277;                                           0000269P0000144
110,-20.,930.,-17.,-20.,0.,-17.;                                 0000271P0000145
110,-20.,0.,-17.,-20.,0.,17.;                                    0000273P0000146
110,-20.,0.,17.,-20.,930.,17.;                                   0000275P0000147
110,-20.,930.,17.,-20.,930.,-17.;                                0000277P0000148
144,281,1,0,289;                                                 0000279P0000149
120,285,287,4.71238898,6.283185307;                              0000281P0000150
124,-1.,-0.,0.,-17.,0.,-0.,-1.,-140.,0.,-1.,0.,-17.;             0000283P0000151
110,0.,0.,1.,0.,0.,0.;                                           0000285P0000152
110,3.,0.,-1.07E+03,3.,0.,-140.;                                 0000287P0000153
142,0,281,291,301,3;                                             0000289P0000154
102,4,293,295,297,299;                                           0000291P0000155
110,1.,4.71238898,0.,1.,6.283185307,0.;                          0000293P0000156
110,1.,6.283185307,0.,-2.220446049E-16,6.283185307,0.;           0000295P0000157
110,0.,6.283185307,0.,-3.750396234E-19,4.71238898,0.;            0000297P0000158
110,-2.220446049E-16,4.71238898,0.,1.,4.71238898,0.;             0000299P0000159
102,4,303,307,309,313;                                           0000301P0000160
100,0.,0.,0.,0.,-3.,3.,0.;                                       0000303P0000161
124,-1.,0.,0.,-17.,0.,0.,1.,0.,0.,1.,0.,-17.;                    0000305P0000162
110,-20.,0.,-17.,-20.,930.,-17.;                                 0000307P0000163
100,0.,0.,0.,3.,0.,0.,3.;                                        0000309P0000164
124,-1.,-0.,0.,-17.,0.,-0.,-1.,930.,0.,-1.,0.,-17.;              0000311P0000165
110,-17.,930.,-20.,-17.,0.,-20.;                                 0000313P0000166
144,317,1,0,319;                                                 0000315P0000167
108,0.,0.,-1.,20.,0,-17.,-140.,-20.,0.;                          0000317P0000168
142,0,317,0,321,2;                                               0000319P0000169
102,4,323,325,327,329;                                           0000321P0000170
110,17.,930.,-20.,17.,0.,-20.;                                   0000323P0000171
110,17.,0.,-20.,-17.,0.,-20.;                                    0000325P0000172
110,-17.,0.,-20.,-17.,930.,-20.;                                 0000327P0000173
110,-17.,930.,-20.,17.,930.,-20.;                                0000329P0000174
144,333,1,0,335;                                                 0000331P0000175
108,-1.,-0.,-0.,-18.5,0,18.5,-140.,-17.,0.;                      0000333P0000176
142,0,333,0,337,2;                                               0000335P0000177
102,4,339,341,343,345;                                           0000337P0000178
110,18.5,0.,-17.,18.5,0.,17.;                                    0000339P0000179
110,18.5,0.,17.,18.5,930.,17.;                                   0000341P0000180
110,18.5,930.,17.,18.5,930.,-17.;                                0000343P0000181
110,18.5,930.,-17.,18.5,0.,-17.;                                 0000345P0000182
144,349,1,0,357;                                                 0000347P0000183
120,353,355,0.,1.570796327;                                      0000349P0000184
124,-4.736951572E-15,-1.,0.,17.,-0.,0.,-1.,-140.,-1.,            0000351P0000185
4.736951572E-15,0.,-17.;                                         0000351P0000186
110,0.,0.,1.,0.,0.,0.;                                           0000353P0000187
110,1.5,0.,-1.07E+03,1.5,0.,-140.;                               0000355P0000188
142,0,349,359,369,3;                                             0000357P0000189
102,4,361,363,365,367;                                           0000359P0000190
110,-2.220446049E-16,2.220446049E-15,0.,1.,2.087219286E-13,0.;   0000361P0000191
110,1.,2.078337502E-13,0.,1.,1.570796327,0.;                     0000363P0000192
110,1.,1.570796327,0.,-2.220446049E-16,1.570796327,0.;           0000365P0000193
110,-1.12511887E-18,1.570796327,0.,-1.500158494E-18,             0000367P0000194
1.776356839E-15,0.;                                              0000367P0000195
102,4,371,373,377,379;                                           0000369P0000196
110,17.,930.,-18.5,17.,0.,-18.5;                                 0000371P0000197
100,0.,0.,0.,1.5,0.,-1.421085472E-14,1.5;                        0000373P0000198
124,-4.736951572E-15,1.,0.,17.,-0.,0.,-1.,0.,-1.,                0000375P0000199
-4.736951572E-15,0.,-17.;                                        0000375P0000200
110,18.5,0.,-17.,18.5,930.,-17.;                                 0000377P0000201
100,0.,0.,0.,-1.421085472E-14,-1.5,1.5,0.;                       0000379P0000202
124,-4.736951572E-15,-1.,0.,17.,-0.,0.,1.,930.,-1.,              0000381P0000203
4.736951572E-15,0.,-17.;                                         0000381P0000204
144,385,1,0,387;                                                 0000383P0000205
108,-0.,-0.,1.,-18.5,0,-17.,-140.,-18.5,0.;                      0000385P0000206
142,0,385,0,389,2;                                               0000387P0000207
102,4,391,393,395,397;                                           0000389P0000208
110,-17.,0.,-18.5,17.,0.,-18.5;                                  0000391P0000209
110,17.,0.,-18.5,17.,930.,-18.5;                                 0000393P0000210
110,17.,930.,-18.5,-17.,930.,-18.5;                              0000395P0000211
110,-17.,930.,-18.5,-17.,0.,-18.5;                               0000397P0000212
144,401,1,0,409;                                                 0000399P0000213
120,405,407,0.,1.570796327;                                      0000401P0000214
124,-1.,4.736951572E-15,0.,-17.,0.,0.,-1.,-140.,4.736951572E-15, 0000403P0000215
1.,0.,-17.;                                                      0000403P0000216
110,0.,0.,1.,0.,0.,0.;                                           0000405P0000217
110,1.5,0.,-1.07E+03,1.5,0.,-140.;                               0000407P0000218
142,0,401,411,421,3;                                             0000409P0000219
102,4,413,415,417,419;                                           0000411P0000220
110,-2.220446049E-16,2.220446049E-15,0.,1.,2.087219286E-13,0.;   0000413P0000221
110,1.,2.078337502E-13,0.,1.,1.570796327,0.;                     0000415P0000222
110,1.,1.570796327,0.,-2.220446049E-16,1.570796327,0.;           0000417P0000223
110,-1.12511887E-18,1.570796327,0.,-1.500158494E-18,             0000419P0000224
1.776356839E-15,0.;                                              0000419P0000225
102,4,423,425,429,431;                                           0000421P0000226
110,-18.5,930.,-17.,-18.5,0.,-17.;                               0000423P0000227
100,0.,0.,0.,1.5,0.,-1.421085472E-14,1.5;                        0000425P0000228
124,-1.,-4.736951572E-15,0.,-17.,0.,-0.,-1.,0.,4.736951572E-15,  0000427P0000229
-1.,0.,-17.;                                                     0000427P0000230
110,-17.,0.,-18.5,-17.,930.,-18.5;                               0000429P0000231
100,0.,0.,0.,-1.421085472E-14,-1.5,1.5,0.;                       0000431P0000232
124,-1.,4.736951572E-15,0.,-17.,0.,0.,1.,930.,4.736951572E-15,   0000433P0000233
1.,0.,-17.;                                                      0000433P0000234
144,437,1,0,439;                                                 0000435P0000235
108,1.,-0.,-0.,-18.5,0,-18.5,-140.,17.,0.;                       0000437P0000236
142,0,437,0,441,2;                                               0000439P0000237
102,4,443,445,447,449;                                           0000441P0000238
110,-18.5,0.,17.,-18.5,0.,-17.;                                  0000443P0000239
110,-18.5,0.,-17.,-18.5,930.,-17.;                               0000445P0000240
110,-18.5,930.,-17.,-18.5,930.,17.;                              0000447P0000241
110,-18.5,930.,17.,-18.5,0.,17.;                                 0000449P0000242
144,453,1,0,461;                                                 0000451P0000243
120,457,459,0.,1.570796327;                                      0000453P0000244
124,4.736951572E-15,1.,0.,-17.,0.,0.,-1.,-140.,1.,               0000455P0000245
-4.736951572E-15,0.,17.;                                         0000455P0000246
110,0.,0.,1.,0.,0.,0.;                                           0000457P0000247
110,1.5,0.,-1.07E+03,1.5,0.,-140.;                               0000459P0000248
142,0,453,463,473,3;                                             0000461P0000249
102,4,465,467,469,471;                                           0000463P0000250
110,-2.220446049E-16,2.220446049E-15,0.,1.,2.087219286E-13,0.;   0000465P0000251
110,1.,2.078337502E-13,0.,1.,1.570796327,0.;                     0000467P0000252
110,1.,1.570796327,0.,-2.220446049E-16,1.570796327,0.;           0000469P0000253
110,-1.12511887E-18,1.570796327,0.,-1.500158494E-18,             0000471P0000254
1.776356839E-15,0.;                                              0000471P0000255
102,4,475,477,481,483;                                           0000473P0000256
110,-17.,930.,18.5,-17.,0.,18.5;                                 0000475P0000257
100,0.,0.,0.,1.5,0.,-1.421085472E-14,1.5;                        0000477P0000258
124,4.736951572E-15,-1.,0.,-17.,0.,0.,-1.,0.,1.,4.736951572E-15, 0000479P0000259
0.,17.;                                                          0000479P0000260
110,-18.5,0.,17.,-18.5,930.,17.;                                 0000481P0000261
100,0.,0.,0.,-1.421085472E-14,-1.5,1.5,0.;                       0000483P0000262
124,4.736951572E-15,1.,0.,-17.,0.,0.,1.,930.,1.,                 0000485P0000263
-4.736951572E-15,0.,17.;                                         0000485P0000264
144,489,1,0,491;                                                 0000487P0000265
108,-0.,0.,-1.,-18.5,0,17.,-140.,18.5,0.;                        0000489P0000266
142,0,489,0,493,2;                                               0000491P0000267
102,4,495,497,499,501;                                           0000493P0000268
110,17.,0.,18.5,-17.,0.,18.5;                                    0000495P0000269
110,-17.,0.,18.5,-17.,930.,18.5;                                 0000497P0000270
110,-17.,930.,18.5,17.,930.,18.5;                                0000499P0000271
110,17.,930.,18.5,17.,0.,18.5;                                   0000501P0000272
144,505,1,0,513;                                                 0000503P0000273
120,509,511,0.,1.570796327;                                      0000505P0000274
124,1.,-4.736951572E-15,0.,17.,0.,-0.,-1.,-140.,                 0000507P0000275
-4.736951572E-15,-1.,0.,17.;                                     0000507P0000276
110,0.,0.,1.,0.,0.,0.;                                           0000509P0000277
110,1.5,0.,-1.07E+03,1.5,0.,-140.;                               0000511P0000278
142,0,505,515,525,3;                                             0000513P0000279
102,4,517,519,521,523;                                           0000515P0000280
110,-2.220446049E-16,2.220446049E-15,0.,1.,2.087219286E-13,0.;   0000517P0000281
110,1.,2.078337502E-13,0.,1.,1.570796327,0.;                     0000519P0000282
110,1.,1.570796327,0.,-2.220446049E-16,1.570796327,0.;           0000521P0000283
110,-1.12511887E-18,1.570796327,0.,-1.500158494E-18,             0000523P0000284
1.776356839E-15,0.;                                              0000523P0000285
102,4,527,529,533,535;                                           0000525P0000286
110,18.5,930.,17.,18.5,0.,17.;                                   0000527P0000287
100,0.,0.,0.,1.5,0.,-1.421085472E-14,1.5;                        0000529P0000288
124,1.,4.736951572E-15,0.,17.,0.,0.,-1.,0.,-4.736951572E-15,1.,  0000531P0000289
0.,17.;                                                          0000531P0000290
110,17.,0.,18.5,17.,930.,18.5;                                   0000533P0000291
100,0.,0.,0.,-1.421085472E-14,-1.5,1.5,0.;                       0000535P0000292
124,1.,-4.736951572E-15,0.,17.,0.,-0.,1.,930.,-4.736951572E-15,  0000537P0000293
-1.,0.,17.;                                                      0000537P0000294
S      1G      4D    538P    294                                        T0000001
