                                                                        S0000001
,,31HOpen CASCADE IGES processor 8.0,13HFilename.iges,                  G0000001
16HOpen CASCADE 8.0,31HOpen CASCADE IGES processor 8.0,32,308,15,308,15,G0000002
,1.,2,2HMM,1,0.01,15H20261008.060937,1.33334E-07,342.,4Hroot,,11,0,     G0000003
15H20261008.060937,;                                                    G0000004
     402       1       0       0       0       0       0       000000000D0000001
     402       0       0       2       1                               0D0000002
     144       3       0       0       0       0       0       000020000D0000003
     144       0       0       1       0                               0D0000004
     108       4       0       0       0       0       0       000010000D0000005
     108       0       0       1       0                               0D0000006
     142       5       0       0       0       0       0       000010500D0000007
     142       0       0       1       0                               0D0000008
     102       6       0       0       0       0       0       000010000D0000009
     102       0       0       1       0                               0D0000010
     110       7       0       0       0       0       0       000010000D0000011
     110       0       0       1       0                               0D0000012
     110       8       0       0       0       0       0       000010000D0000013
     110       0       0       1       0                               0D0000014
     110       9       0       0       0       0       0       000010000D0000015
     110       0       0       1       0                               0D0000016
     110      10       0       0       0       0       0       000010000D0000017
     110       0       0       1       0                               0D0000018
     144      11       0       0       0       0       0       000020000D0000019
     144       0       0       1       0                               0D0000020
     120      12       0       0       0       0      23       000010000D0000021
     120       0       0       1       0                               0D0000022
     124      13       0       0       0       0       0       000000000D0000023
     124       0       0       1       0                               0D0000024
     110      14       0       0       0       0       0       000010000D0000025
     110       0       0       1       0                               0D0000026
     110      15       0       0       0       0       0       000010000D0000027
     110       0       0       1       0                               0D0000028
     142      16       0       0       0       0       0       000010500D0000029
     142       0       0       1       0                               0D0000030
     102      17       0       0       0       0       0       000010000D0000031
     102       0       0       1       0                               0D0000032
     126      18       0       0       0       0       0       000010000D0000033
     126       0       0       8       0                               0D0000034
     110      26       0       0       0       0       0       000010000D0000035
     110       0       0       1       0                               0D0000036
     126      27       0       0       0       0       0       000010000D0000037
     126       0       0      10       0                               0D0000038
     110      37       0       0       0       0       0       000010000D0000039
     110       0       0       1       0                               0D0000040
     102      38       0       0       0       0       0       000010000D0000041
     102       0       0       1       0                               0D0000042
     104      39       0       0       0       0      45       000010000D0000043
     104       0       0       2       1                               0D0000044
     124      41       0       0       0       0       0       000000000D0000045
     124       0       0       2       0                               0D0000046
     110      43       0       0       0       0       0       000010000D0000047
     110       0       0       1       0                               0D0000048
     104      44       0       0       0       0      51       000010000D0000049
     104       0       0       2       1                               0D0000050
     124      46       0       0       0       0       0       000000000D0000051
     124       0       0       2       0                               0D0000052
     110      48       0       0       0       0       0       000010000D0000053
     110       0       0       1       0                               0D0000054
     144      49       0       0       0       0       0       000020000D0000055
     144       0       0       1       0                               0D0000056
     108      50       0       0       0       0       0       000010000D0000057
     108       0       0       2       0                               0D0000058
     142      52       0       0       0       0       0       000010500D0000059
     142       0       0       1       0                               0D0000060
     102      53       0       0       0       0       0       000010000D0000061
     102       0       0       1       0                               0D0000062
     104      54       0       0       0       0      65       000010000D0000063
     104       0       0       2       1                               0D0000064
     124      56       0       0       0       0       0       000000000D0000065
     124       0       0       2       0                               0D0000066
     110      58       0       0       0       0       0       000010000D0000067
     110       0       0       1       0                               0D0000068
     104      59       0       0       0       0      71       000010000D0000069
     104       0       0       2       1                               0D0000070
     124      61       0       0       0       0       0       000000000D0000071
     124       0       0       2       0                               0D0000072
     110      63       0       0       0       0       0       000010000D0000073
     110       0       0       1       0                               0D0000074
     104      64       0       0       0       0      77       000010000D0000075
     104       0       0       2       1                               0D0000076
     124      66       0       0       0       0       0       000000000D0000077
     124       0       0       2       0                               0D0000078
     110      68       0       0       0       0       0       000010000D0000079
     110       0       0       1       0                               0D0000080
     104      69       0       0       0       0      83       000010000D0000081
     104       0       0       2       1                               0D0000082
     124      71       0       0       0       0       0       000000000D0000083
     124       0       0       2       0                               0D0000084
     110      73       0       0       0       0       0       000010000D0000085
     110       0       0       1       0                               0D0000086
     142      74       0       0       0       0       0       000010500D0000087
     142       0       0       1       0                               0D0000088
     102      75       0       0       0       0       0       000010000D0000089
     102       0       0       1       0                               0D0000090
     110      76       0       0       0       0       0       000010000D0000091
     110       0       0       1       0                               0D0000092
     104      77       0       0       0       0      95       000010000D0000093
     104       0       0       2       1                               0D0000094
     124      79       0       0       0       0       0       000000000D0000095
     124       0       0       2       0                               0D0000096
     110      81       0       0       0       0       0       000010000D0000097
     110       0       0       1       0                               0D0000098
     104      82       0       0       0       0     101       000010000D0000099
     104       0       0       2       1                               0D0000100
     124      84       0       0       0       0       0       000000000D0000101
     124       0       0       2       0                               0D0000102
     110      86       0       0       0       0       0       000010000D0000103
     110       0       0       1       0                               0D0000104
     104      87       0       0       0       0     107       000010000D0000105
     104       0       0       2       1                               0D0000106
     124      89       0       0       0       0       0       000000000D0000107
     124       0       0       2       0                               0D0000108
     110      91       0       0       0       0       0       000010000D0000109
     110       0       0       1       0                               0D0000110
     104      92       0       0       0       0     113       000010000D0000111
     104       0       0       2       1                               0D0000112
     124      94       0       0       0       0       0       000000000D0000113
     124       0       0       2       0                               0D0000114
     144      96       0       0       0       0       0       000020000D0000115
     144       0       0       1       0                               0D0000116
     120      97       0       0       0       0     119       000010000D0000117
     120       0       0       1       0                               0D0000118
     124      98       0       0       0       0       0       000000000D0000119
     124       0       0       2       0                               0D0000120
     110     100       0       0       0       0       0       000010000D0000121
     110       0       0       1       0                               0D0000122
     110     101       0       0       0       0       0       000010000D0000123
     110       0       0       1       0                               0D0000124
     142     102       0       0       0       0       0       000010500D0000125
     142       0       0       1       0                               0D0000126
     102     103       0       0       0       0       0       000010000D0000127
     102       0       0       1       0                               0D0000128
     126     104       0       0       0       0       0       000010000D0000129
     126       0       0       9       0                               0D0000130
     110     113       0       0       0       0       0       000010000D0000131
     110       0       0       1       0                               0D0000132
     126     114       0       0       0       0       0       000010000D0000133
     126       0       0      10       0                               0D0000134
     110     124       0       0       0       0       0       000010000D0000135
     110       0       0       1       0                               0D0000136
     102     125       0       0       0       0       0       000010000D0000137
     102       0       0       1       0                               0D0000138
     104     126       0       0       0       0     141       000010000D0000139
     104       0       0       2       1                               0D0000140
     124     128       0       0       0       0       0       000000000D0000141
     124       0       0       2       0                               0D0000142
     110     130       0       0       0       0       0       000010000D0000143
     110       0       0       1       0                               0D0000144
     104     131       0       0       0       0     147       000010000D0000145
     104       0       0       2       1                               0D0000146
     124     133       0       0       0       0       0       000000000D0000147
     124       0       0       2       0                               0D0000148
     110     135       0       0       0       0       0       000010000D0000149
     110       0       0       1       0                               0D0000150
     144     136       0       0       0       0       0       000020000D0000151
     144       0       0       1       0                               0D0000152
     108     137       0       0       0       0       0       000010000D0000153
     108       0       0       2       0                               0D0000154
     142     139       0       0       0       0       0       000010500D0000155
     142       0       0       1       0                               0D0000156
     102     140       0       0       0       0       0       000010000D0000157
     102       0       0       1       0                               0D0000158
     104     141       0       0       0       0     161       000010000D0000159
     104       0       0       2       1                               0D0000160
     124     143       0       0       0       0       0       000000000D0000161
     124       0       0       2       0                               0D0000162
     110     145       0       0       0       0       0       000010000D0000163
     110       0       0       1       0                               0D0000164
     104     146       0       0       0       0     167       000010000D0000165
     104       0       0       2       1                               0D0000166
     124     148       0       0       0       0       0       000000000D0000167
     124       0       0       2       0                               0D0000168
     110     150       0       0       0       0       0       000010000D0000169
     110       0       0       1       0                               0D0000170
     104     151       0       0       0       0     173       000010000D0000171
     104       0       0       2       1                               0D0000172
     124     153       0       0       0       0       0       000000000D0000173
     124       0       0       2       0                               0D0000174
     110     155       0       0       0       0       0       000010000D0000175
     110       0       0       1       0                               0D0000176
     104     156       0       0       0       0     179       000010000D0000177
     104       0       0       2       1                               0D0000178
     124     158       0       0       0       0       0       000000000D0000179
     124       0       0       2       0                               0D0000180
     110     160       0       0       0       0       0       000010000D0000181
     110       0       0       1       0                               0D0000182
     142     161       0       0       0       0       0       000010500D0000183
     142       0       0       1       0                               0D0000184
     102     162       0       0       0       0       0       000010000D0000185
     102       0       0       1       0                               0D0000186
     110     163       0       0       0       0       0       000010000D0000187
     110       0       0       1       0                               0D0000188
     104     164       0       0       0       0     191       000010000D0000189
     104       0       0       2       1                               0D0000190
     124     166       0       0       0       0       0       000000000D0000191
     124       0       0       2       0                               0D0000192
     110     168       0       0       0       0       0       000010000D0000193
     110       0       0       1       0                               0D0000194
     104     169       0       0       0       0     197       000010000D0000195
     104       0       0       2       1                               0D0000196
     124     171       0       0       0       0       0       000000000D0000197
     124       0       0       2       0                               0D0000198
     110     173       0       0       0       0       0       000010000D0000199
     110       0       0       1       0                               0D0000200
     104     174       0       0       0       0     203       000010000D0000201
     104       0       0       2       1                               0D0000202
     124     176       0       0       0       0       0       000000000D0000203
     124       0       0       2       0                               0D0000204
     110     178       0       0       0       0       0       000010000D0000205
     110       0       0       1       0                               0D0000206
     104     179       0       0       0       0     209       000010000D0000207
     104       0       0       2       1                               0D0000208
     124     181       0       0       0       0       0       000000000D0000209
     124       0       0       2       0                               0D0000210
     144     183       0       0       0       0       0       000020000D0000211
     144       0       0       1       0                               0D0000212
     108     184       0       0       0       0       0       000010000D0000213
     108       0       0       1       0                               0D0000214
     142     185       0       0       0       0       0       000010500D0000215
     142       0       0       1       0                               0D0000216
     102     186       0       0       0       0       0       000010000D0000217
     102       0       0       1       0                               0D0000218
     110     187       0       0       0       0       0       000010000D0000219
     110       0       0       1       0                               0D0000220
     110     188       0       0       0       0       0       000010000D0000221
     110       0       0       1       0                               0D0000222
     110     189       0       0       0       0       0       000010000D0000223
     110       0       0       1       0                               0D0000224
     110     190       0       0       0       0       0       000010000D0000225
     110       0       0       1       0                               0D0000226
     144     191       0       0       0       0       0       000020000D0000227
     144       0       0       1       0                               0D0000228
     120     192       0       0       0       0     231       000010000D0000229
     120       0       0       1       0                               0D0000230
     124     193       0       0       0       0       0       000000000D0000231
     124       0       0       2       0                               0D0000232
     110     195       0       0       0       0       0       000010000D0000233
     110       0       0       1       0                               0D0000234
     110     196       0       0       0       0       0       000010000D0000235
     110       0       0       1       0                               0D0000236
     142     197       0       0       0       0       0       000010500D0000237
     142       0       0       1       0                               0D0000238
     102     198       0       0       0       0       0       000010000D0000239
     102       0       0       1       0                               0D0000240
     126     199       0       0       0       0       0       000010000D0000241
     126       0       0       9       0                               0D0000242
     110     208       0       0       0       0       0       000010000D0000243
     110       0       0       1       0                               0D0000244
     126     209       0       0       0       0       0       000010000D0000245
     126       0       0       8       0                               0D0000246
     110     217       0       0       0       0       0       000010000D0000247
     110       0       0       1       0                               0D0000248
     102     218       0       0       0       0       0       000010000D0000249
     102       0       0       1       0                               0D0000250
     104     219       0       0       0       0     253       000010000D0000251
     104       0       0       2       1                               0D0000252
     124     221       0       0       0       0       0       000000000D0000253
     124       0       0       2       0                               0D0000254
     110     223       0       0       0       0       0       000010000D0000255
     110       0       0       1       0                               0D0000256
     104     224       0       0       0       0     259       000010000D0000257
     104       0       0       2       1                               0D0000258
     124     226       0       0       0       0       0       000000000D0000259
     124       0       0       2       0                               0D0000260
     110     228       0       0       0       0       0       000010000D0000261
     110       0       0       1       0                               0D0000262
     144     229       0       0       0       0       0       000020000D0000263
     144       0       0       1       0                               0D0000264
     108     230       0       0       0       0       0       000010000D0000265
     108       0       0       1       0                               0D0000266
     142     231       0       0       0       0       0       000010500D0000267
     142       0       0       1       0                               0D0000268
     102     232       0       0       0       0       0       000010000D0000269
     102       0       0       1       0                               0D0000270
     110     233       0       0       0       0       0       000010000D0000271
     110       0       0       1       0                               0D0000272
     110     234       0       0       0       0       0       000010000D0000273
     110       0       0       1       0                               0D0000274
     110     235       0       0       0       0       0       000010000D0000275
     110       0       0       1       0                               0D0000276
     110     236       0       0       0       0       0       000010000D0000277
     110       0       0       1       0                               0D0000278
     144     237       0       0       0       0       0       000020000D0000279
     144       0       0       1       0                               0D0000280
     120     238       0       0       0       0     283       000010000D0000281
     120       0       0       1       0                               0D0000282
     124     239       0       0       0       0       0       000000000D0000283
     124       0       0       1       0                               0D0000284
     110     240       0       0       0       0       0       000010000D0000285
     110       0       0       1       0                               0D0000286
     110     241       0       0       0       0       0       000010000D0000287
     110       0       0       1       0                               0D0000288
     142     242       0       0       0       0       0       000010500D0000289
     142       0       0       1       0                               0D0000290
     102     243       0       0       0       0       0       000010000D0000291
     102       0       0       1       0                               0D0000292
     126     244       0       0       0       0       0       000010000D0000293
     126       0       0       9       0                               0D0000294
     110     253       0       0       0       0       0       000010000D0000295
     110       0       0       1       0                               0D0000296
     126     254       0       0       0       0       0       000010000D0000297
     126       0       0      10       0                               0D0000298
     110     264       0       0       0       0       0       000010000D0000299
     110       0       0       1       0                               0D0000300
     102     265       0       0       0       0       0       000010000D0000301
     102       0       0       1       0                               0D0000302
     104     266       0       0       0       0     305       000010000D0000303
     104       0       0       2       1                               0D0000304
     124     268       0       0       0       0       0       000000000D0000305
     124       0       0       2       0                               0D0000306
     110     270       0       0       0       0       0       000010000D0000307
     110       0       0       1       0                               0D0000308
     104     271       0       0       0       0     311       000010000D0000309
     104       0       0       2       1                               0D0000310
     124     273       0       0       0       0       0       000000000D0000311
     124       0       0       2       0                               0D0000312
     110     275       0       0       0       0       0       000010000D0000313
     110       0       0       1       0                               0D0000314
     144     276       0       0       0       0       0       000020000D0000315
     144       0       0       1       0                               0D0000316
     108     277       0       0       0       0       0       000010000D0000317
     108       0       0       1       0                               0D0000318
     142     278       0       0       0       0       0       000010500D0000319
     142       0       0       1       0                               0D0000320
     102     279       0       0       0       0       0       000010000D0000321
     102       0       0       1       0                               0D0000322
     110     280       0       0       0       0       0       000010000D0000323
     110       0       0       1       0                               0D0000324
     110     281       0       0       0       0       0       000010000D0000325
     110       0       0       1       0                               0D0000326
     110     282       0       0       0       0       0       000010000D0000327
     110       0       0       1       0                               0D0000328
     110     283       0       0       0       0       0       000010000D0000329
     110       0       0       1       0                               0D0000330
     144     284       0       0       0       0       0       000020000D0000331
     144       0       0       1       0                               0D0000332
     120     285       0       0       0       0     335       000010000D0000333
     120       0       0       1       0                               0D0000334
     124     286       0       0       0       0       0       000000000D0000335
     124       0       0       1       1                               0D0000336
     110     287       0       0       0       0       0       000010000D0000337
     110       0       0       1       0                               0D0000338
     110     288       0       0       0       0       0       000010000D0000339
     110       0       0       1       0                               0D0000340
     142     289       0       0       0       0       0       000010500D0000341
     142       0       0       1       0                               0D0000342
     102     290       0       0       0       0       0       000010000D0000343
     102       0       0       1       0                               0D0000344
     110     291       0       0       0       0       0       000010000D0000345
     110       0       0       1       0                               0D0000346
     126     292       0       0       0       0       0       000010000D0000347
     126       0       0       7       0                               0D0000348
     110     299       0       0       0       0       0       000010000D0000349
     110       0       0       1       0                               0D0000350
     126     300       0       0       0       0       0       000010000D0000351
     126       0       0       9       0                               0D0000352
     102     309       0       0       0       0       0       000010000D0000353
     102       0       0       1       0                               0D0000354
     110     310       0       0       0       0       0       000010000D0000355
     110       0       0       1       0                               0D0000356
     104     311       0       0       0       0     359       000010000D0000357
     104       0       0       2       1                               0D0000358
     124     313       0       0       0       0       0       000000000D0000359
     124       0       0       2       0                               0D0000360
     110     315       0       0       0       0       0       000010000D0000361
     110       0       0       1       0                               0D0000362
     104     316       0       0       0       0     365       000010000D0000363
     104       0       0       2       1                               0D0000364
     124     318       0       0       0       0       0       000000000D0000365
     124       0       0       2       0                               0D0000366
     144     320       0       0       0       0       0       000020000D0000367
     144       0       0       1       0                               0D0000368
     108     321       0       0       0       0       0       000010000D0000369
     108       0       0       1       0                               0D0000370
     142     322       0       0       0       0       0       000010500D0000371
     142       0       0       1       0                               0D0000372
     102     323       0       0       0       0       0       000010000D0000373
     102       0       0       1       0                               0D0000374
     110     324       0       0       0       0       0       000010000D0000375
     110       0       0       1       0                               0D0000376
     110     325       0       0       0       0       0       000010000D0000377
     110       0       0       1       0                               0D0000378
     110     326       0       0       0       0       0       000010000D0000379
     110       0       0       1       0                               0D0000380
     110     327       0       0       0       0       0       000010000D0000381
     110       0       0       1       0                               0D0000382
     144     328       0       0       0       0       0       000020000D0000383
     144       0       0       1       0                               0D0000384
     120     329       0       0       0       0     387       000010000D0000385
     120       0       0       1       0                               0D0000386
     124     330       0       0       0       0       0       000000000D0000387
     124       0       0       2       1                               0D0000388
     110     332       0       0       0       0       0       000010000D0000389
     110       0       0       1       0                               0D0000390
     110     333       0       0       0       0       0       000010000D0000391
     110       0       0       1       0                               0D0000392
     142     334       0       0       0       0       0       000010500D0000393
     142       0       0       1       0                               0D0000394
     102     335       0       0       0       0       0       000010000D0000395
     102       0       0       1       0                               0D0000396
     110     336       0       0       0       0       0       000010000D0000397
     110       0       0       2       0                               0D0000398
     126     338       0       0       0       0       0       000010000D0000399
     126       0       0       8       0                               0D0000400
     110     346       0       0       0       0       0       000010000D0000401
     110       0       0       1       0                               0D0000402
     126     347       0       0       0       0       0       000010000D0000403
     126       0       0       9       0                               0D0000404
     102     356       0       0       0       0       0       000010000D0000405
     102       0       0       1       0                               0D0000406
     110     357       0       0       0       0       0       000010000D0000407
     110       0       0       1       0                               0D0000408
     104     358       0       0       0       0     411       000010000D0000409
     104       0       0       2       1                               0D0000410
     124     360       0       0       0       0       0       000000000D0000411
     124       0       0       2       0                               0D0000412
     110     362       0       0       0       0       0       000010000D0000413
     110       0       0       1       0                               0D0000414
     104     363       0       0       0       0     417       000010000D0000415
     104       0       0       2       1                               0D0000416
     124     365       0       0       0       0       0       000000000D0000417
     124       0       0       2       0                               0D0000418
     144     367       0       0       0       0       0       000020000D0000419
     144       0       0       1       0                               0D0000420
     108     368       0       0       0       0       0       000010000D0000421
     108       0       0       1       0                               0D0000422
     142     369       0       0       0       0       0       000010500D0000423
     142       0       0       1       0                               0D0000424
     102     370       0       0       0       0       0       000010000D0000425
     102       0       0       1       0                               0D0000426
     110     371       0       0       0       0       0       000010000D0000427
     110       0       0       1       0                               0D0000428
     110     372       0       0       0       0       0       000010000D0000429
     110       0       0       1       0                               0D0000430
     110     373       0       0       0       0       0       000010000D0000431
     110       0       0       1       0                               0D0000432
     110     374       0       0       0       0       0       000010000D0000433
     110       0       0       1       0                               0D0000434
     144     375       0       0       0       0       0       000020000D0000435
     144       0       0       1       0                               0D0000436
     120     376       0       0       0       0     439       000010000D0000437
     120       0       0       1       0                               0D0000438
     124     377       0       0       0       0       0       000000000D0000439
     124       0       0       1       1                               0D0000440
     110     378       0       0       0       0       0       000010000D0000441
     110       0       0       1       0                               0D0000442
     110     379       0       0       0       0       0       000010000D0000443
     110       0       0       1       0                               0D0000444
     142     380       0       0       0       0       0       000010500D0000445
     142       0       0       1       0                               0D0000446
     102     381       0       0       0       0       0       000010000D0000447
     102       0       0       1       0                               0D0000448
     110     382       0       0       0       0       0       000010000D0000449
     110       0       0       2       0                               0D0000450
     126     384       0       0       0       0       0       000010000D0000451
     126       0       0       9       0                               0D0000452
     110     393       0       0       0       0       0       000010000D0000453
     110       0       0       1       0                               0D0000454
     126     394       0       0       0       0       0       000010000D0000455
     126       0       0       9       0                               0D0000456
     102     403       0       0       0       0       0       000010000D0000457
     102       0       0       1       0                               0D0000458
     110     404       0       0       0       0       0       000010000D0000459
     110       0       0       1       0                               0D0000460
     104     405       0       0       0       0     463       000010000D0000461
     104       0       0       2       1                               0D0000462
     124     407       0       0       0       0       0       000000000D0000463
     124       0       0       2       0                               0D0000464
     110     409       0       0       0       0       0       000010000D0000465
     110       0       0       1       0                               0D0000466
     104     410       0       0       0       0     469       000010000D0000467
     104       0       0       2       1                               0D0000468
     124     412       0       0       0       0       0       000000000D0000469
     124       0       0       2       0                               0D0000470
     144     414       0       0       0       0       0       000020000D0000471
     144       0       0       1       0                               0D0000472
     108     415       0       0       0       0       0       000010000D0000473
     108       0       0       1       0                               0D0000474
     142     416       0       0       0       0       0       000010500D0000475
     142       0       0       1       0                               0D0000476
     102     417       0       0       0       0       0       000010000D0000477
     102       0       0       1       0                               0D0000478
     110     418       0       0       0       0       0       000010000D0000479
     110       0       0       1       0                               0D0000480
     110     419       0       0       0       0       0       000010000D0000481
     110       0       0       1       0                               0D0000482
     110     420       0       0       0       0       0       000010000D0000483
     110       0       0       1       0                               0D0000484
     110     421       0       0       0       0       0       000010000D0000485
     110       0       0       1       0                               0D0000486
     144     422       0       0       0       0       0       000020000D0000487
     144       0       0       1       0                               0D0000488
     120     423       0       0       0       0     491       000010000D0000489
     120       0       0       1       0                               0D0000490
     124     424       0       0       0       0       0       000000000D0000491
     124       0       0       2       1                               0D0000492
     110     426       0       0       0       0       0       000010000D0000493
     110       0       0       1       0                               0D0000494
     110     427       0       0       0       0       0       000010000D0000495
     110       0       0       1       0                               0D0000496
     142     428       0       0       0       0       0       000010500D0000497
     142       0       0       1       0                               0D0000498
     102     429       0       0       0       0       0       000010000D0000499
     102       0       0       1       0                               0D0000500
     110     430       0       0       0       0       0       000010000D0000501
     110       0       0       1       0                               0D0000502
     126     431       0       0       0       0       0       000010000D0000503
     126       0       0       9       0                               0D0000504
     110     440       0       0       0       0       0       000010000D0000505
     110       0       0       1       0                               0D0000506
     126     441       0       0       0       0       0       000010000D0000507
     126       0       0      10       0                               0D0000508
     102     451       0       0       0       0       0       000010000D0000509
     102       0       0       1       0                               0D0000510
     110     452       0       0       0       0       0       000010000D0000511
     110       0       0       1       0                               0D0000512
     104     453       0       0       0       0     515       000010000D0000513
     104       0       0       2       1                               0D0000514
     124     455       0       0       0       0       0       000000000D0000515
     124       0       0       2       0                               0D0000516
     110     457       0       0       0       0       0       000010000D0000517
     110       0       0       1       0                               0D0000518
     104     458       0       0       0       0     521       000010000D0000519
     104       0       0       2       1                               0D0000520
     124     460       0       0       0       0       0       000000000D0000521
     124       0       0       2       0                               0D0000522
     144     462       0       0       0       0       0       000020000D0000523
     144       0       0       1       0                               0D0000524
     108     463       0       0       0       0       0       000010000D0000525
     108       0       0       1       0                               0D0000526
     142     464       0       0       0       0       0       000010500D0000527
     142       0       0       1       0                               0D0000528
     102     465       0       0       0       0       0       000010000D0000529
     102       0       0       1       0                               0D0000530
     110     466       0       0       0       0       0       000010000D0000531
     110       0       0       1       0                               0D0000532
     110     467       0       0       0       0       0       000010000D0000533
     110       0       0       1       0                               0D0000534
     110     468       0       0       0       0       0       000010000D0000535
     110       0       0       1       0                               0D0000536
     110     469       0       0       0       0       0       000010000D0000537
     110       0       0       1       0                               0D0000538
402,18,3,19,55,115,151,211,227,263,279,315,331,367,383,419,435,  0000001P0000001
471,487,523;                                                     0000001P0000002
144,5,1,0,7;                                                     0000003P0000003
108,1.,0.,0.,10.,0,10.,-100.,-17.,0.;                            0000005P0000004
142,0,5,0,9,2;                                                   0000007P0000005
102,4,11,13,15,17;                                               0000009P0000006
110,10.,342.,17.,10.,4.263256415E-13,17.;                        0000011P0000007
110,10.,-2.273736754E-13,17.,10.,-2.273736754E-13,-17.;          0000013P0000008
110,10.,4.263256415E-13,-17.,10.,342.,-17.;                      0000015P0000009
110,10.,342.,-17.,10.,342.,17.;                                  0000017P0000010
144,21,1,0,29;                                                   0000019P0000011
120,25,27,4.71238898,6.283185307;                                0000021P0000012
124,1.,0.,0.,7.,0.,0.,-1.,-100.,0.,1.,0.,17.;                    0000023P0000013
110,0.,0.,1.,0.,0.,0.;                                           0000025P0000014
110,3.,0.,-442.,3.,0.,-100.;                                     0000027P0000015
142,0,21,31,41,3;                                                0000029P0000016
102,4,33,35,37,39;                                               0000031P0000017
126,8,8,1,0,1,0,0.,0.,0.,0.,0.,0.,0.,0.,0.,1.570796327,          0000033P0000018
1.570796327,1.570796327,1.570796327,1.570796327,1.570796327,     0000033P0000019
1.570796327,1.570796327,1.570796327,1.,1.,1.,1.,1.,1.,1.,1.,1.,  0000033P0000020
0.995175439,4.71238898,0.,0.996122739,4.908738521,0.,0.99707004, 0000033P0000021
5.105088062,0.,0.997961687,5.301437603,0.,0.998742038,           0000033P0000022
5.497787144,0.,0.99936228,5.694136685,0.,0.999787426,            0000033P0000023
5.890486225,0.,1.,6.086835766,0.,1.,6.283185307,0.,0.,           0000033P0000024
1.570796327,0.,0.,1.;                                            0000033P0000025
110,1.,6.283185307,0.,-2.220446049E-16,6.283185307,0.;           0000035P0000026
126,8,8,1,0,1,0,1.570796327,1.570796327,1.570796327,1.570796327, 0000037P0000027
1.570796327,1.570796327,1.570796327,1.570796327,1.570796327,     0000037P0000028
3.141592654,3.141592654,3.141592654,3.141592654,3.141592654,     0000037P0000029
3.141592654,3.141592654,3.141592654,3.141592654,1.,1.,1.,1.,1.,  0000037P0000030
1.,1.,1.,1.,1.662088271E-16,6.283185307,0.,1.660813465E-16,      0000037P0000031
6.086835766,0.,2.125739203E-04,5.890486225,0.,6.37719955E-04,    0000037P0000032
5.694136685,0.,1.257962173E-03,5.497787144,0.,2.038313213E-03,   0000037P0000033
5.301437603,0.,2.929960347E-03,5.105088062,0.,3.877260987E-03,   0000037P0000034
4.908738521,0.,4.824561404E-03,4.71238898,0.,1.570796327,        0000037P0000035
3.141592654,0.,0.,1.;                                            0000037P0000036
110,4.824561404E-03,4.71238898,0.,0.995175439,4.71238898,0.;     0000039P0000037
102,4,43,47,49,53;                                               0000041P0000038
104,8.53060354E-02,0.,0.111111111,0.,-0.,-1.,0.,                 0000043P0000039
-8.881784197E-16,-3.,3.423813663,0.;                             0000043P0000040
124,0.876215909,0.,0.48191875,7.,-0.48191875,0.,0.876215909,     0000045P0000041
1.65,0.,-1.,0.,17.;                                              0000045P0000042
110,10.,4.263256415E-13,17.,10.,342.,17.;                        0000047P0000043
104,8.53060354E-02,0.,0.111111111,0.,-0.,-1.,0.,-3.423813663,0., 0000049P0000044
0.,-3.;                                                          0000049P0000045
124,-0.876215909,0.,0.48191875,7.,-0.48191875,0.,-0.876215909,   0000051P0000046
340.35,0.,-1.,0.,17.;                                            0000051P0000047
110,7.,340.35,20.,7.,1.65,20.;                                   0000053P0000048
144,57,1,1,59,87;                                                0000055P0000049
108,-0.48191875,0.876215909,0.,294.84665327,0,-8.752159087E+03,  0000057P0000050
-4.477187498E+03,-1.E+04,0.;                                     0000057P0000051
142,0,57,0,61,2;                                                 0000059P0000052
102,8,63,67,69,73,75,79,81,85;                                   0000061P0000053
104,0.341224142,0.,0.444444444,0.,-0.,-1.,0.,-1.711906832,0.,0., 0000063P0000054
-1.5;                                                            0000063P0000055
124,-0.876215909,0.,0.48191875,7.,-0.48191875,0.,-0.876215909,   0000065P0000056
340.35,0.,-1.,0.,17.;                                            0000065P0000057
110,7.,340.35,18.5,-7.,332.65,18.5;                              0000067P0000058
104,0.341224142,0.,0.444444444,0.,-0.,-1.,0.,0.,-1.5,            0000069P0000059
1.711906832,3.552713679E-15;                                     0000069P0000060
124,-0.876215909,0.,0.48191875,-7.,-0.48191875,0.,-0.876215909,  0000071P0000061
332.65,0.,-1.,0.,17.;                                            0000071P0000062
110,-8.5,331.825,17.,-8.5,331.825,-17.;                          0000073P0000063
104,0.341224142,0.,0.444444444,0.,-0.,-1.,0.,1.711906832,0.,0.,  0000075P0000064
1.5;                                                             0000075P0000065
124,-0.876215909,0.,0.48191875,-7.,-0.48191875,0.,-0.876215909,  0000077P0000066
332.65,0.,-1.,0.,-17.;                                           0000077P0000067
110,-7.,332.65,-18.5,7.,340.35,-18.5;                            0000079P0000068
104,0.341224142,0.,0.444444444,0.,-0.,-1.,0.,0.,1.5,             0000081P0000069
-1.711906832,-3.552713679E-15;                                   0000081P0000070
124,-0.876215909,0.,0.48191875,7.,-0.48191875,0.,-0.876215909,   0000083P0000071
340.35,0.,-1.,0.,-17.;                                           0000083P0000072
110,8.5,341.175,-17.,8.5,341.175,17.;                            0000085P0000073
142,0,57,0,89,2;                                                 0000087P0000074
102,8,91,93,97,99,103,105,109,111;                               0000089P0000075
110,10.,342.,17.,10.,342.,-17.;                                  0000091P0000076
104,8.53060354E-02,0.,0.111111111,0.,-0.,-1.,0.,-3.423813663,0., 0000093P0000077
0.,-3.;                                                          0000093P0000078
124,-0.876215909,0.,-0.48191875,7.,-0.48191875,0.,0.876215909,   0000095P0000079
340.35,0.,1.,0.,-17.;                                            0000095P0000080
110,7.,340.35,-20.,-7.,332.65,-20.;                              0000097P0000081
104,8.53060354E-02,0.,0.111111111,0.,-0.,-1.,0.,0.,-3.,          0000099P0000082
3.423813663,0.;                                                  0000099P0000083
124,-0.876215909,0.,-0.48191875,-7.,-0.48191875,0.,0.876215909,  0000101P0000084
332.65,0.,1.,0.,-17.;                                            0000101P0000085
110,-10.,331.,-17.,-10.,331.,17.;                                0000103P0000086
104,8.53060354E-02,0.,0.111111111,0.,-0.,-1.,0.,3.423813663,0.,  0000105P0000087
0.,3.;                                                           0000105P0000088
124,-0.876215909,0.,-0.48191875,-7.,-0.48191875,0.,0.876215909,  0000107P0000089
332.65,0.,1.,0.,17.;                                             0000107P0000090
110,-7.,332.65,20.,7.,340.35,20.;                                0000109P0000091
104,8.53060354E-02,0.,0.111111111,0.,-0.,-1.,0.,0.,3.,           0000111P0000092
-3.423813663,0.;                                                 0000111P0000093
124,-0.876215909,0.,-0.48191875,7.,-0.48191875,0.,0.876215909,   0000113P0000094
340.35,0.,1.,0.,17.;                                             0000113P0000095
144,117,1,0,125;                                                 0000115P0000096
120,121,123,4.71238898,6.283185307;                              0000117P0000097
124,5.921189465E-16,1.,0.,7.,0.,0.,-1.,-100.,-1.,                0000119P0000098
5.921189465E-16,0.,-17.;                                         0000119P0000099
110,0.,0.,1.,0.,0.,0.;                                           0000121P0000100
110,3.,0.,-442.,3.,0.,-100.;                                     0000123P0000101
142,0,117,127,137,3;                                             0000125P0000102
102,4,129,131,133,135;                                           0000127P0000103
126,8,8,1,0,1,0,4.71238898,4.71238898,4.71238898,4.71238898,     0000129P0000104
4.71238898,4.71238898,4.71238898,4.71238898,4.71238898,          0000129P0000105
6.283185307,6.283185307,6.283185307,6.283185307,6.283185307,     0000129P0000106
6.283185307,6.283185307,6.283185307,6.283185307,1.,1.,1.,1.,1.,  0000129P0000107
1.,1.,1.,1.,1.,4.71238898,0.,1.,4.908738521,0.,0.999787426,      0000129P0000108
5.105088062,0.,0.99936228,5.301437603,0.,0.998742038,            0000129P0000109
5.497787144,0.,0.997961687,5.694136685,0.,0.99707004,            0000129P0000110
5.890486225,0.,0.996122739,6.086835766,0.,0.995175439,           0000129P0000111
6.283185307,0.,4.71238898,6.283185307,0.,0.,1.;                  0000129P0000112
110,0.995175439,6.283185307,0.,4.824561404E-03,6.283185307,0.;   0000131P0000113
126,8,8,1,0,1,0,3.141592654,3.141592654,3.141592654,3.141592654, 0000133P0000114
3.141592654,3.141592654,3.141592654,3.141592654,3.141592654,     0000133P0000115
4.71238898,4.71238898,4.71238898,4.71238898,4.71238898,          0000133P0000116
4.71238898,4.71238898,4.71238898,4.71238898,1.,1.,1.,1.,1.,1.,   0000133P0000117
1.,1.,1.,4.824561404E-03,6.283185307,0.,3.877260987E-03,         0000133P0000118
6.086835766,0.,2.929960346E-03,5.890486225,0.,2.038313215E-03,   0000133P0000119
5.694136685,0.,1.257962169E-03,5.497787144,0.,6.37719953E-04,    0000133P0000120
5.301437603,0.,2.125739195E-04,5.105088062,0.,1.653164631E-16,   0000133P0000121
4.908738521,0.,1.651889825E-16,4.71238898,0.,3.141592654,        0000133P0000122
4.71238898,0.,0.,1.;                                             0000133P0000123
110,-2.220446049E-16,4.71238898,0.,1.,4.71238898,0.;             0000135P0000124
102,4,139,143,145,149;                                           0000137P0000125
104,8.53060354E-02,0.,0.111111111,0.,-0.,-1.,0.,3.423813663,0.,  0000139P0000126
0.,3.;                                                           0000139P0000127
124,0.876215909,0.,0.48191875,7.,-0.48191875,0.,0.876215909,     0000141P0000128
1.65,0.,-1.,0.,-17.;                                             0000141P0000129
110,7.,1.65,-20.,7.,340.35,-20.;                                 0000143P0000130
104,8.53060354E-02,0.,0.111111111,0.,-0.,-1.,0.,0.,3.,           0000145P0000131
-3.423813663,0.;                                                 0000145P0000132
124,-0.876215909,0.,0.48191875,7.,-0.48191875,0.,-0.876215909,   0000147P0000133
340.35,0.,-1.,0.,-17.;                                           0000147P0000134
110,10.,342.,-17.,10.,4.263256415E-13,-17.;                      0000149P0000135
144,153,1,1,155,183;                                             0000151P0000136
108,-0.48191875,-0.876215909,0.,-4.819187498,0,-8.752159087E+03, 0000153P0000137
4.819187498E+03,1.E+04,0.;                                       0000153P0000138
142,0,153,0,157,2;                                               0000155P0000139
102,8,159,163,165,169,171,175,177,181;                           0000157P0000140
104,0.341224142,0.,0.444444444,0.,-0.,-1.,0.,-1.776356839E-15,   0000159P0000141
-1.5,1.711906832,0.;                                             0000159P0000142
124,0.876215909,0.,0.48191875,7.,-0.48191875,0.,0.876215909,     0000161P0000143
1.65,0.,-1.,0.,17.;                                              0000161P0000144
110,8.5,0.825,17.,8.5,0.825,-17.;                                0000163P0000145
104,0.341224142,0.,0.444444444,0.,-0.,-1.,0.,1.711906832,0.,     0000165P0000146
-8.881784197E-16,1.5;                                            0000165P0000147
124,0.876215909,0.,0.48191875,7.,-0.48191875,0.,0.876215909,     0000167P0000148
1.65,0.,-1.,0.,-17.;                                             0000167P0000149
110,7.,1.65,-18.5,-7.,9.35,-18.5;                                0000169P0000150
104,0.341224142,0.,0.444444444,0.,-0.,-1.,0.,3.552713679E-15,    0000171P0000151
1.5,-1.711906832,0.;                                             0000171P0000152
124,0.876215909,0.,0.48191875,-7.,-0.48191875,0.,0.876215909,    0000173P0000153
9.35,0.,-1.,0.,-17.;                                             0000173P0000154
110,-8.5,10.175,-17.,-8.5,10.175,17.;                            0000175P0000155
104,0.341224142,0.,0.444444444,0.,-0.,-1.,0.,-1.711906832,0.,    0000177P0000156
1.776356839E-15,-1.5;                                            0000177P0000157
124,0.876215909,0.,0.48191875,-7.,-0.48191875,0.,0.876215909,    0000179P0000158
9.35,0.,-1.,0.,17.;                                              0000179P0000159
110,-7.,9.35,18.5,7.,1.65,18.5;                                  0000181P0000160
142,0,153,0,185,2;                                               0000183P0000161
102,8,187,189,193,195,199,201,205,207;                           0000185P0000162
110,10.,-2.273736754E-13,-17.,10.,-2.273736754E-13,17.;          0000187P0000163
104,8.53060354E-02,0.,0.111111111,0.,-0.,-1.,0.,3.423813663,0.,  0000189P0000164
2.664535259E-15,3.;                                              0000189P0000165
124,0.876215909,0.,-0.48191875,7.,-0.48191875,0.,-0.876215909,   0000191P0000166
1.65,0.,1.,0.,17.;                                               0000191P0000167
110,7.,1.65,20.,-7.,9.35,20.;                                    0000193P0000168
104,8.53060354E-02,0.,0.111111111,0.,-0.,-1.,0.,0.,3.,           0000195P0000169
-3.423813663,0.;                                                 0000195P0000170
124,0.876215909,0.,-0.48191875,-7.,-0.48191875,0.,-0.876215909,  0000197P0000171
9.35,0.,1.,0.,17.;                                               0000197P0000172
110,-10.,11.,17.,-10.,11.,-17.;                                  0000199P0000173
104,8.53060354E-02,0.,0.111111111,0.,-0.,-1.,0.,-3.423813663,0., 0000201P0000174
0.,-3.;                                                          0000201P0000175
124,0.876215909,0.,-0.48191875,-7.,-0.48191875,0.,-0.876215909,  0000203P0000176
9.35,0.,1.,0.,-17.;                                              0000203P0000177
110,-7.,9.35,-20.,7.,1.65,-20.;                                  0000205P0000178
104,8.53060354E-02,0.,0.111111111,0.,-0.,-1.,0.,                 0000207P0000179
-8.881784197E-16,-3.,3.423813663,0.;                             0000207P0000180
124,0.876215909,0.,-0.48191875,7.,-0.48191875,0.,-0.876215909,   0000209P0000181
1.65,0.,1.,0.,-17.;                                              0000209P0000182
144,213,1,0,215;                                                 0000211P0000183
108,0.,-0.,1.,20.,0,7.,-100.,20.,0.;                             0000213P0000184
142,0,213,0,217,2;                                               0000215P0000185
102,4,219,221,223,225;                                           0000217P0000186
110,-7.,332.65,20.,-7.,9.35,20.;                                 0000219P0000187
110,-7.,9.35,20.,7.,1.65,20.;                                    0000221P0000188
110,7.,1.65,20.,7.,340.35,20.;                                   0000223P0000189
110,7.,340.35,20.,-7.,332.65,20.;                                0000225P0000190
144,229,1,0,237;                                                 0000227P0000191
120,233,235,4.71238898,6.283185307;                              0000229P0000192
124,-5.921189465E-16,-1.,0.,-7.,0.,-0.,-1.,-100.,1.,             0000231P0000193
-5.921189465E-16,0.,17.;                                         0000231P0000194
110,0.,0.,1.,0.,0.,0.;                                           0000233P0000195
110,3.,0.,-432.65,3.,0.,-109.35;                                 0000235P0000196
142,0,229,239,249,3;                                             0000237P0000197
102,4,241,243,245,247;                                           0000239P0000198
126,8,8,1,0,1,0,1.570796327,1.570796327,1.570796327,1.570796327, 0000241P0000199
1.570796327,1.570796327,1.570796327,1.570796327,1.570796327,     0000241P0000200
3.141592654,3.141592654,3.141592654,3.141592654,3.141592654,     0000241P0000201
3.141592654,3.141592654,3.141592654,3.141592654,1.,1.,1.,1.,1.,  0000241P0000202
1.,1.,1.,1.,0.994896381,4.71238898,0.,0.994896381,4.908738521,   0000241P0000203
0.,0.99512125,5.105088062,0.,0.995570987,5.301437603,0.,         0000241P0000204
0.996227105,5.497787144,0.,0.997052592,5.694136685,0.,           0000241P0000205
0.997995813,5.890486225,0.,0.998997907,6.086835766,0.,1.,        0000241P0000206
6.283185307,0.,1.570796327,3.141592654,-0.,-0.,1.;               0000241P0000207
110,1.,6.283185307,0.,2.220446049E-16,6.283185307,0.;            0000243P0000208
126,8,8,1,0,1,0,0.,0.,0.,0.,0.,0.,0.,0.,0.,1.570796327,          0000245P0000209
1.570796327,1.570796327,1.570796327,1.570796327,1.570796327,     0000245P0000210
1.570796327,1.570796327,1.570796327,1.,1.,1.,1.,1.,1.,1.,1.,1.,  0000245P0000211
0.,6.283185307,0.,1.002093234E-03,6.086835766,0.,                0000245P0000212
2.004186705E-03,5.890486225,0.,2.947407617E-03,5.694136685,0.,   0000245P0000213
3.772894957E-03,5.497787144,0.,4.429012611E-03,5.301437603,0.,   0000245P0000214
4.87874952E-03,5.105088062,0.,5.10361893E-03,4.908738521,0.,     0000245P0000215
5.10361893E-03,4.71238898,0.,0.,1.570796327,-0.,-0.,1.;          0000245P0000216
110,5.10361893E-03,4.71238898,0.,0.994896381,4.71238898,0.;      0000247P0000217
102,4,251,255,257,261;                                           0000249P0000218
104,8.53060354E-02,0.,0.111111111,0.,-0.,-1.,0.,-3.423813663,0., 0000251P0000219
0.,-3.;                                                          0000251P0000220
124,0.876215909,0.,0.48191875,-7.,-0.48191875,0.,0.876215909,    0000253P0000221
9.35,0.,-1.,0.,17.;                                              0000253P0000222
110,-7.,9.35,20.,-7.,332.65,20.;                                 0000255P0000223
104,8.53060354E-02,0.,0.111111111,0.,-0.,-1.,0.,0.,-3.,          0000257P0000224
3.423813663,0.;                                                  0000257P0000225
124,-0.876215909,0.,0.48191875,-7.,-0.48191875,0.,-0.876215909,  0000259P0000226
332.65,0.,-1.,0.,17.;                                            0000259P0000227
110,-10.,331.,17.,-10.,11.,17.;                                  0000261P0000228
144,265,1,0,267;                                                 0000263P0000229
108,-1.,0.,0.,10.,0,-10.,-100.,17.,0.;                           0000265P0000230
142,0,265,0,269,2;                                               0000267P0000231
102,4,271,273,275,277;                                           0000269P0000232
110,-10.,331.,-17.,-10.,11.,-17.;                                0000271P0000233
110,-10.,11.,-17.,-10.,11.,17.;                                  0000273P0000234
110,-10.,11.,17.,-10.,331.,17.;                                  0000275P0000235
110,-10.,331.,17.,-10.,331.,-17.;                                0000277P0000236
144,281,1,0,289;                                                 0000279P0000237
120,285,287,4.71238898,6.283185307;                              0000281P0000238
124,-1.,-0.,0.,-7.,0.,-0.,-1.,-100.,0.,-1.,0.,-17.;              0000283P0000239
110,0.,0.,1.,0.,0.,0.;                                           0000285P0000240
110,3.,0.,-432.65,3.,0.,-109.35;                                 0000287P0000241
142,0,281,291,301,3;                                             0000289P0000242
102,4,293,295,297,299;                                           0000291P0000243
126,8,8,1,0,1,0,3.141592654,3.141592654,3.141592654,3.141592654, 0000293P0000244
3.141592654,3.141592654,3.141592654,3.141592654,3.141592654,     0000293P0000245
4.71238898,4.71238898,4.71238898,4.71238898,4.71238898,          0000293P0000246
4.71238898,4.71238898,4.71238898,4.71238898,1.,1.,1.,1.,1.,1.,   0000293P0000247
1.,1.,1.,1.,4.71238898,0.,0.998997907,4.908738521,0.,            0000293P0000248
0.997995813,5.105088062,0.,0.997052592,5.301437603,0.,           0000293P0000249
0.996227105,5.497787144,0.,0.995570987,5.694136685,0.,           0000293P0000250
0.99512125,5.890486225,0.,0.994896381,6.086835766,0.,            0000293P0000251
0.994896381,6.283185307,0.,3.141592654,4.71238898,-0.,-0.,1.;    0000293P0000252
110,0.994896381,6.283185307,0.,5.10361893E-03,6.283185307,0.;    0000295P0000253
126,8,8,1,0,1,0,4.71238898,4.71238898,4.71238898,4.71238898,     0000297P0000254
4.71238898,4.71238898,4.71238898,4.71238898,4.71238898,          0000297P0000255
6.283185307,6.283185307,6.283185307,6.283185307,6.283185307,     0000297P0000256
6.283185307,6.283185307,6.283185307,6.283185307,1.,1.,1.,1.,1.,  0000297P0000257
1.,1.,1.,1.,5.10361893E-03,6.283185307,0.,5.10361893E-03,        0000297P0000258
6.086835766,0.,4.878749519E-03,5.890486225,0.,4.429012615E-03,   0000297P0000259
5.694136685,0.,3.772894957E-03,5.497787144,0.,2.947407618E-03,   0000297P0000260
5.301437603,0.,2.004186705E-03,5.105088062,0.,1.002093234E-03,   0000297P0000261
4.908738521,0.,-1.078833436E-18,4.71238898,0.,4.71238898,        0000297P0000262
6.283185307,-0.,-0.,1.;                                          0000297P0000263
110,2.220446049E-16,4.71238898,0.,1.,4.71238898,0.;              0000299P0000264
102,4,303,307,309,313;                                           0000301P0000265
104,8.53060354E-02,0.,0.111111111,0.,-0.,-1.,0.,0.,3.,           0000303P0000266
-3.423813663,0.;                                                 0000303P0000267
124,0.876215909,0.,0.48191875,-7.,-0.48191875,0.,0.876215909,    0000305P0000268
9.35,0.,-1.,0.,-17.;                                             0000305P0000269
110,-10.,11.,-17.,-10.,331.,-17.;                                0000307P0000270
104,8.53060354E-02,0.,0.111111111,0.,-0.,-1.,0.,3.423813663,0.,  0000309P0000271
0.,3.;                                                           0000309P0000272
124,-0.876215909,0.,0.48191875,-7.,-0.48191875,0.,-0.876215909,  0000311P0000273
332.65,0.,-1.,0.,-17.;                                           0000311P0000274
110,-7.,332.65,-20.,-7.,9.35,-20.;                               0000313P0000275
144,317,1,0,319;                                                 0000315P0000276
108,0.,0.,-1.,20.,0,-7.,-100.,-20.,0.;                           0000317P0000277
142,0,317,0,321,2;                                               0000319P0000278
102,4,323,325,327,329;                                           0000321P0000279
110,7.,340.35,-20.,7.,1.65,-20.;                                 0000323P0000280
110,7.,1.65,-20.,-7.,9.35,-20.;                                  0000325P0000281
110,-7.,9.35,-20.,-7.,332.65,-20.;                               0000327P0000282
110,-7.,332.65,-20.,7.,340.35,-20.;                              0000329P0000283
144,333,1,0,341;                                                 0000331P0000284
120,337,339,0.,1.570796327;                                      0000333P0000285
124,1.,0.,0.,7.,0.,0.,-1.,-100.,0.,-1.,0.,17.;                   0000335P0000286
110,0.,0.,1.,0.,0.,0.;                                           0000337P0000287
110,1.5,0.,-441.175,1.5,0.,-100.825;                             0000339P0000288
142,0,333,343,353,3;                                             0000341P0000289
102,4,345,347,349,351;                                           0000343P0000290
110,-3.330669074E-16,1.515454429E-15,0.,1.,7.708833571E-14,0.;   0000345P0000291
126,7,7,1,0,1,0,0.,0.,0.,0.,0.,0.,0.,0.,1.570796327,1.570796327, 0000347P0000292
1.570796327,1.570796327,1.570796327,1.570796327,1.570796327,     0000347P0000293
1.570796327,1.,1.,1.,1.,1.,1.,1.,1.,1.,7.727152251E-14,0.,1.,    0000347P0000294
0.224399475,0.,0.999857595,0.448798951,0.,0.999572805,           0000347P0000295
0.673198426,0.,0.999163115,0.897597901,0.,0.9986639,1.121997376, 0000347P0000296
0.,0.998119963,1.346396852,0.,0.997576025,1.570796327,0.,0.,     0000347P0000297
1.570796327,0.,0.,1.;                                            0000347P0000298
110,0.997576025,1.570796327,0.,2.42397532E-03,1.570796327,0.;    0000349P0000299
126,7,7,1,0,1,0,1.570796327,1.570796327,1.570796327,1.570796327, 0000351P0000300
1.570796327,1.570796327,1.570796327,1.570796327,3.141592654,     0000351P0000301
3.141592654,3.141592654,3.141592654,3.141592654,3.141592654,     0000351P0000302
3.141592654,3.141592654,1.,1.,1.,1.,1.,1.,1.,1.,2.42397532E-03,  0000351P0000303
1.570796327,0.,1.88003653E-03,1.346396852,0.,1.336099949E-03,    0000351P0000304
1.121997376,0.,8.368851733E-04,0.897597901,0.,4.271953388E-04,   0000351P0000305
0.673198426,0.,1.424053325E-04,0.448798951,0.,-3.952756593E-18,  0000351P0000306
0.224399475,0.,-4.099154985E-18,1.776356839E-15,0.,1.570796327,  0000351P0000307
3.141592654,0.,0.,1.;                                            0000351P0000308
102,4,355,357,361,363;                                           0000353P0000309
110,8.5,341.175,17.,8.5,0.825,17.;                               0000355P0000310
104,0.341224142,0.,0.444444444,0.,-0.,-1.,0.,1.711906832,0.,     0000357P0000311
-8.881784197E-16,1.5;                                            0000357P0000312
124,0.876215909,0.,-0.48191875,7.,-0.48191875,0.,-0.876215909,   0000359P0000313
1.65,0.,1.,0.,17.;                                               0000359P0000314
110,7.,1.65,18.5,7.,340.35,18.5;                                 0000361P0000315
104,0.341224142,0.,0.444444444,0.,-0.,-1.,0.,0.,1.5,             0000363P0000316
-1.711906832,0.;                                                 0000363P0000317
124,-0.876215909,0.,-0.48191875,7.,-0.48191875,0.,0.876215909,   0000365P0000318
340.35,0.,1.,0.,17.;                                             0000365P0000319
144,369,1,0,371;                                                 0000367P0000320
108,-1.,-0.,-0.,-8.5,0,8.5,-100.,-17.,0.;                        0000369P0000321
142,0,369,0,373,2;                                               0000371P0000322
102,4,375,377,379,381;                                           0000373P0000323
110,8.5,0.825,-17.,8.5,0.825,17.;                                0000375P0000324
110,8.5,0.825,17.,8.5,341.175,17.;                               0000377P0000325
110,8.5,341.175,17.,8.5,341.175,-17.;                            0000379P0000326
110,8.5,341.175,-17.,8.5,0.825,-17.;                             0000381P0000327
144,385,1,0,393;                                                 0000383P0000328
120,389,391,0.,1.570796327;                                      0000385P0000329
124,-1.184237893E-15,-1.,0.,7.,-0.,0.,-1.,-100.,-1.,             0000387P0000330
1.184237893E-15,0.,-17.;                                         0000387P0000331
110,0.,0.,1.,0.,0.,0.;                                           0000389P0000332
110,1.5,0.,-441.175,1.5,0.,-100.825;                             0000391P0000333
142,0,385,395,405,3;                                             0000393P0000334
102,4,397,399,401,403;                                           0000395P0000335
110,2.42397532E-03,1.698641228E-15,0.,0.997576025,               0000397P0000336
7.690514892E-14,0.;                                              0000397P0000337
126,7,7,1,0,1,0,4.71238898,4.71238898,4.71238898,4.71238898,     0000399P0000338
4.71238898,4.71238898,4.71238898,4.71238898,6.283185307,         0000399P0000339
6.283185307,6.283185307,6.283185307,6.283185307,6.283185307,     0000399P0000340
6.283185307,6.283185307,1.,1.,1.,1.,1.,1.,1.,1.,0.997576025,     0000399P0000341
7.727152251E-14,0.,0.998119963,0.224399475,0.,0.9986639,         0000399P0000342
0.448798951,0.,0.999163115,0.673198426,0.,0.999572805,           0000399P0000343
0.897597901,0.,0.999857595,1.121997376,0.,1.,1.346396852,0.,1.,  0000399P0000344
1.570796327,0.,4.71238898,6.283185307,0.,0.,1.;                  0000399P0000345
110,1.,1.570796327,0.,-3.330669074E-16,1.570796327,0.;           0000401P0000346
126,7,7,1,0,1,0,3.141592654,3.141592654,3.141592654,3.141592654, 0000403P0000347
3.141592654,3.141592654,3.141592654,3.141592654,4.71238898,      0000403P0000348
4.71238898,4.71238898,4.71238898,4.71238898,4.71238898,          0000403P0000349
4.71238898,4.71238898,1.,1.,1.,1.,1.,1.,1.,1.,-3.074366239E-18,  0000403P0000350
1.570796327,0.,-3.220764631E-18,1.346396852,0.,1.424053326E-04,  0000403P0000351
1.121997376,0.,4.271953384E-04,0.897597901,0.,8.368851738E-04,   0000403P0000352
0.673198426,0.,1.336099949E-03,0.448798951,0.,1.88003653E-03,    0000403P0000353
0.224399475,0.,2.42397532E-03,2.664535259E-15,0.,3.141592654,    0000403P0000354
4.71238898,0.,0.,1.;                                             0000403P0000355
102,4,407,409,413,415;                                           0000405P0000356
110,7.,340.35,-18.5,7.,1.65,-18.5;                               0000407P0000357
104,0.341224142,0.,0.444444444,0.,-0.,-1.,0.,-1.776356839E-15,   0000409P0000358
-1.5,1.711906832,0.;                                             0000409P0000359
124,0.876215909,0.,-0.48191875,7.,-0.48191875,0.,-0.876215909,   0000411P0000360
1.65,0.,1.,0.,-17.;                                              0000411P0000361
110,8.5,0.825,-17.,8.5,341.175,-17.;                             0000413P0000362
104,0.341224142,0.,0.444444444,0.,-0.,-1.,0.,-1.711906832,       0000415P0000363
3.552713679E-15,0.,-1.5;                                         0000415P0000364
124,-0.876215909,0.,-0.48191875,7.,-0.48191875,0.,0.876215909,   0000417P0000365
340.35,0.,1.,0.,-17.;                                            0000417P0000366
144,421,1,0,423;                                                 0000419P0000367
108,-0.,-0.,1.,-18.5,0,-7.,-100.,-18.5,0.;                       0000421P0000368
142,0,421,0,425,2;                                               0000423P0000369
102,4,427,429,431,433;                                           0000425P0000370
110,-7.,9.35,-18.5,7.,1.65,-18.5;                                0000427P0000371
110,7.,1.65,-18.5,7.,340.35,-18.5;                               0000429P0000372
110,7.,340.35,-18.5,-7.,332.65,-18.5;                            0000431P0000373
110,-7.,332.65,-18.5,-7.,9.35,-18.5;                             0000433P0000374
144,437,1,0,445;                                                 0000435P0000375
120,441,443,0.,1.570796327;                                      0000437P0000376
124,-1.,0.,0.,-7.,0.,0.,-1.,-100.,0.,1.,0.,-17.;                 0000439P0000377
110,0.,0.,1.,0.,0.,0.;                                           0000441P0000378
110,1.5,0.,-432.65,1.5,0.,-109.35;                               0000443P0000379
142,0,437,447,457,3;                                             0000445P0000380
102,4,449,451,453,455;                                           0000447P0000381
110,2.551809465E-03,1.815214645E-15,0.,0.997448191,              0000449P0000382
7.323586182E-14,0.;                                              0000449P0000383
126,7,7,1,0,1,0,3.141592654,3.141592654,3.141592654,3.141592654, 0000451P0000384
3.141592654,3.141592654,3.141592654,3.141592654,4.71238898,      0000451P0000385
4.71238898,4.71238898,4.71238898,4.71238898,4.71238898,          0000451P0000386
4.71238898,4.71238898,1.,1.,1.,1.,1.,1.,1.,1.,0.997448191,       0000451P0000387
7.371880884E-14,0.,0.997448191,0.224399475,0.,0.997598106,       0000451P0000388
0.448798951,0.,0.997897915,0.673198426,0.,0.998329211,           0000451P0000389
0.897597901,0.,0.998854753,1.121997376,0.,0.999427375,           0000451P0000390
1.346396852,0.,1.,1.570796327,0.,3.141592654,4.71238898,-0.,-0., 0000451P0000391
1.;                                                              0000451P0000392
110,1.,1.570796327,0.,2.220446049E-16,1.570796327,0.;            0000453P0000393
126,7,7,1,0,1,0,4.71238898,4.71238898,4.71238898,4.71238898,     0000455P0000394
4.71238898,4.71238898,4.71238898,4.71238898,6.283185307,         0000455P0000395
6.283185307,6.283185307,6.283185307,6.283185307,6.283185307,     0000455P0000396
6.283185307,6.283185307,1.,1.,1.,1.,1.,1.,1.,1.,                 0000455P0000397
-3.236500307E-18,1.570796327,0.,5.726247049E-04,1.346396852,0.,  0000455P0000398
1.145247085E-03,1.121997376,0.,1.670789147E-03,0.897597901,0.,   0000455P0000399
2.102084957E-03,0.673198426,0.,2.401894046E-03,0.448798951,0.,   0000455P0000400
2.551809465E-03,0.224399475,0.,2.551809465E-03,1.776356839E-15,  0000455P0000401
0.,4.71238898,6.283185307,-0.,-0.,1.;                            0000455P0000402
102,4,459,461,465,467;                                           0000457P0000403
110,-8.5,331.825,-17.,-8.5,10.175,-17.;                          0000459P0000404
104,0.341224142,0.,0.444444444,0.,-0.,-1.,0.,-1.711906832,0.,    0000461P0000405
1.776356839E-15,-1.5;                                            0000461P0000406
124,0.876215909,0.,-0.48191875,-7.,-0.48191875,0.,-0.876215909,  0000463P0000407
9.35,0.,1.,0.,-17.;                                              0000463P0000408
110,-7.,9.35,-18.5,-7.,332.65,-18.5;                             0000465P0000409
104,0.341224142,0.,0.444444444,0.,-0.,-1.,0.,0.,-1.5,            0000467P0000410
1.711906832,0.;                                                  0000467P0000411
124,-0.876215909,0.,-0.48191875,-7.,-0.48191875,0.,0.876215909,  0000469P0000412
332.65,0.,1.,0.,-17.;                                            0000469P0000413
144,473,1,0,475;                                                 0000471P0000414
108,1.,-0.,-0.,-8.5,0,-8.5,-100.,17.,0.;                         0000473P0000415
142,0,473,0,477,2;                                               0000475P0000416
102,4,479,481,483,485;                                           0000477P0000417
110,-8.5,10.175,17.,-8.5,10.175,-17.;                            0000479P0000418
110,-8.5,10.175,-17.,-8.5,331.825,-17.;                          0000481P0000419
110,-8.5,331.825,-17.,-8.5,331.825,17.;                          0000483P0000420
110,-8.5,331.825,17.,-8.5,10.175,17.;                            0000485P0000421
144,489,1,0,497;                                                 0000487P0000422
120,493,495,0.,1.570796327;                                      0000489P0000423
124,1.184237893E-15,1.,0.,-7.,0.,0.,-1.,-100.,1.,                0000491P0000424
-1.184237893E-15,0.,17.;                                         0000491P0000425
110,0.,0.,1.,0.,0.,0.;                                           0000493P0000426
110,1.5,0.,-432.65,1.5,0.,-109.35;                               0000495P0000427
142,0,489,499,509,3;                                             0000497P0000428
102,4,501,503,505,507;                                           0000499P0000429
110,2.220446049E-16,1.632027846E-15,0.,1.,7.341904862E-14,0.;    0000501P0000430
126,7,7,1,0,1,0,1.570796327,1.570796327,1.570796327,1.570796327, 0000503P0000431
1.570796327,1.570796327,1.570796327,1.570796327,3.141592654,     0000503P0000432
3.141592654,3.141592654,3.141592654,3.141592654,3.141592654,     0000503P0000433
3.141592654,3.141592654,1.,1.,1.,1.,1.,1.,1.,1.,1.,              0000503P0000434
7.371880884E-14,0.,0.999427375,0.224399475,0.,0.998854753,       0000503P0000435
0.448798951,0.,0.998329211,0.673198426,0.,0.997897915,           0000503P0000436
0.897597901,0.,0.997598106,1.121997376,0.,0.997448191,           0000503P0000437
1.346396852,0.,0.997448191,1.570796327,0.,1.570796327,           0000503P0000438
3.141592654,-0.,-0.,1.;                                          0000503P0000439
110,0.997448191,1.570796327,0.,2.551809465E-03,1.570796327,0.;   0000505P0000440
126,7,7,1,0,1,0,-2.664535259E-15,-2.664535259E-15,               0000507P0000441
-2.664535259E-15,-2.664535259E-15,-2.664535259E-15,              0000507P0000442
-2.664535259E-15,-2.664535259E-15,-2.664535259E-15,1.570796327,  0000507P0000443
1.570796327,1.570796327,1.570796327,1.570796327,1.570796327,     0000507P0000444
1.570796327,1.570796327,1.,1.,1.,1.,1.,1.,1.,1.,2.551809465E-03, 0000507P0000445
1.570796327,0.,2.551809465E-03,1.346396852,0.,2.401894046E-03,   0000507P0000446
1.121997376,0.,2.102084956E-03,0.897597901,0.,1.670789147E-03,   0000507P0000447
0.673198426,0.,1.145247084E-03,0.448798951,0.,5.726247049E-04,   0000507P0000448
0.224399475,0.,-4.315333743E-18,2.664535259E-15,0.,              0000507P0000449
-2.664535259E-15,1.570796327,-0.,-0.,1.;                         0000507P0000450
102,4,511,513,517,519;                                           0000509P0000451
110,-7.,332.65,18.5,-7.,9.35,18.5;                               0000511P0000452
104,0.341224142,0.,0.444444444,0.,-0.,-1.,0.,3.552713679E-15,    0000513P0000453
1.5,-1.711906832,0.;                                             0000513P0000454
124,0.876215909,0.,-0.48191875,-7.,-0.48191875,0.,-0.876215909,  0000515P0000455
9.35,0.,1.,0.,17.;                                               0000515P0000456
110,-8.5,10.175,17.,-8.5,331.825,17.;                            0000517P0000457
104,0.341224142,0.,0.444444444,0.,-0.,-1.,0.,1.711906832,        0000519P0000458
-3.552713679E-15,0.,1.5;                                         0000519P0000459
124,-0.876215909,0.,-0.48191875,-7.,-0.48191875,0.,0.876215909,  0000521P0000460
332.65,0.,1.,0.,17.;                                             0000521P0000461
144,525,1,0,527;                                                 0000523P0000462
108,-0.,0.,-1.,-18.5,0,7.,-100.,18.5,0.;                         0000525P0000463
142,0,525,0,529,2;                                               0000527P0000464
102,4,531,533,535,537;                                           0000529P0000465
110,7.,1.65,18.5,-7.,9.35,18.5;                                  0000531P0000466
110,-7.,9.35,18.5,-7.,332.65,18.5;                               0000533P0000467
110,-7.,332.65,18.5,7.,340.35,18.5;                              0000535P0000468
110,7.,340.35,18.5,7.,1.65,18.5;                                 0000537P0000469
S      1G      4D    538P    469                                        T0000001
