                                                                        S0000001
,,31HOpen CASCADE IGES processor 8.0,13HFilename.iges,                  G0000001
16HOpen CASCADE 8.0,31HOpen CASCADE IGES processor 8.0,32,308,15,308,15,G0000002
,1.,2,2HMM,1,0.01,15H20261008.064912,1.36905E-07,560.,4Hroot,,11,0,     G0000003
15H20261008.064912,;                                                    G0000004
     402       1       0       0       0       0       0       000000000D0000001
     402       0       0       2       1                               0D0000002
     144       3       0       0       0       0       0       000020000D0000003
     144       0       0       1       0                               0D0000004
     108       4       0       0       0       0       0       000010000D0000005
     108       0       0       1       0                               0D0000006
     142       5       0       0       0       0       0       000010500D0000007
     142       0       0       1       0                               0D0000008
     102       6       0       0       0       0       0       000010000D0000009
     102       0       0       1       0                               0D0000010
     110       7       0       0       0       0       0       000010000D0000011
     110       0       0       1       0                               0D0000012
     110       8       0       0       0       0       0       000010000D0000013
     110       0       0       1       0                               0D0000014
     110       9       0       0       0       0       0       000010000D0000015
     110       0       0       1       0                               0D0000016
     110      10       0       0       0       0       0       000010000D0000017
     110       0       0       1       0                               0D0000018
     144      11       0       0       0       0       0       000020000D0000019
     144       0       0       1       0                               0D0000020
     120      12       0       0       0       0      23       000010000D0000021
     120       0       0       1       0                               0D0000022
     124      13       0       0       0       0       0       000000000D0000023
     124       0       0       1       0                               0D0000024
     110      14       0       0       0       0       0       000010000D0000025
     110       0       0       1       0                               0D0000026
     110      15       0       0       0       0       0       000010000D0000027
     110       0       0       1       0                               0D0000028
     142      16       0       0       0       0       0       000010500D0000029
     142       0       0       1       0                               0D0000030
     102      17       0       0       0       0       0       000010000D0000031
     102       0       0       1       0                               0D0000032
     110      18       0       0       0       0       0       000010000D0000033
     110       0       0       1       0                               0D0000034
     110      19       0       0       0       0       0       000010000D0000035
     110       0       0       1       0                               0D0000036
     110      20       0       0       0       0       0       000010000D0000037
     110       0       0       1       0                               0D0000038
     110      21       0       0       0       0       0       000010000D0000039
     110       0       0       1       0                               0D0000040
     102      22       0       0       0       0       0       000010000D0000041
     102       0       0       1       0                               0D0000042
     100      23       0       0       0       0      45       000010000D0000043
     100       0       0       1       0                               0D0000044
     124      24       0       0       0       0       0       000000000D0000045
     124       0       0       1       0                               0D0000046
     110      25       0       0       0       0       0       000010000D0000047
     110       0       0       1       0                               0D0000048
     100      26       0       0       0       0      51       000010000D0000049
     100       0       0       1       0                               0D0000050
     124      27       0       0       0       0       0       000000000D0000051
     124       0       0       1       0                               0D0000052
     110      28       0       0       0       0       0       000010000D0000053
     110       0       0       1       0                               0D0000054
     144      29       0       0       0       0       0       000020000D0000055
     144       0       0       1       0                               0D0000056
     108      30       0       0       0       0       0       000010000D0000057
     108       0       0       1       0                               0D0000058
     142      31       0       0       0       0       0       000010500D0000059
     142       0       0       1       0                               0D0000060
     102      32       0       0       0       0       0       000010000D0000061
     102       0       0       1       0                               0D0000062
     110      33       0       0       0       0       0       000010000D0000063
     110       0       0       1       0                               0D0000064
     100      34       0       0       0       0      67       000010000D0000065
     100       0       0       1       0                               0D0000066
     124      35       0       0       0       0       0       000000000D0000067
     124       0       0       2       0                               0D0000068
     110      37       0       0       0       0       0       000010000D0000069
     110       0       0       1       0                               0D0000070
     100      38       0       0       0       0      73       000010000D0000071
     100       0       0       1       0                               0D0000072
     124      39       0       0       0       0       0       000000000D0000073
     124       0       0       2       0                               0D0000074
     110      41       0       0       0       0       0       000010000D0000075
     110       0       0       1       0                               0D0000076
     100      42       0       0       0       0      79       000010000D0000077
     100       0       0       1       0                               0D0000078
     124      43       0       0       0       0       0       000000000D0000079
     124       0       0       2       0                               0D0000080
     110      45       0       0       0       0       0       000010000D0000081
     110       0       0       1       0                               0D0000082
     100      46       0       0       0       0      85       000010000D0000083
     100       0       0       1       0                               0D0000084
     124      47       0       0       0       0       0       000000000D0000085
     124       0       0       2       0                               0D0000086
     142      49       0       0       0       0       0       000010500D0000087
     142       0       0       1       0                               0D0000088
     102      50       0       0       0       0       0       000010000D0000089
     102       0       0       1       0                               0D0000090
     110      51       0       0       0       0       0       000010000D0000091
     110       0       0       1       0                               0D0000092
     100      52       0       0       0       0      95       000010000D0000093
     100       0       0       1       0                               0D0000094
     124      53       0       0       0       0       0       000000000D0000095
     124       0       0       1       0                               0D0000096
     110      54       0       0       0       0       0       000010000D0000097
     110       0       0       1       0                               0D0000098
     100      55       0       0       0       0     101       000010000D0000099
     100       0       0       1       0                               0D0000100
     124      56       0       0       0       0       0       000000000D0000101
     124       0       0       1       0                               0D0000102
     110      57       0       0       0       0       0       000010000D0000103
     110       0       0       1       0                               0D0000104
     100      58       0       0       0       0     107       000010000D0000105
     100       0       0       1       0                               0D0000106
     124      59       0       0       0       0       0       000000000D0000107
     124       0       0       1       0                               0D0000108
     110      60       0       0       0       0       0       000010000D0000109
     110       0       0       1       0                               0D0000110
     100      61       0       0       0       0     113       000010000D0000111
     100       0       0       1       0                               0D0000112
     124      62       0       0       0       0       0       000000000D0000113
     124       0       0       1       0                               0D0000114
     144      63       0       0       0       0       0       000020000D0000115
     144       0       0       1       0                               0D0000116
     120      64       0       0       0       0     119       000010000D0000117
     120       0       0       1       0                               0D0000118
     124      65       0       0       0       0       0       000000000D0000119
     124       0       0       1       0                               0D0000120
     110      66       0       0       0       0       0       000010000D0000121
     110       0       0       1       0                               0D0000122
     110      67       0       0       0       0       0       000010000D0000123
     110       0       0       1       0                               0D0000124
     142      68       0       0       0       0       0       000010500D0000125
     142       0       0       1       0                               0D0000126
     102      69       0       0       0       0       0       000010000D0000127
     102       0       0       1       0                               0D0000128
     110      70       0       0       0       0       0       000010000D0000129
     110       0       0       1       0                               0D0000130
     110      71       0       0       0       0       0       000010000D0000131
     110       0       0       1       0                               0D0000132
     110      72       0       0       0       0       0       000010000D0000133
     110       0       0       1       0                               0D0000134
     110      73       0       0       0       0       0       000010000D0000135
     110       0       0       1       0                               0D0000136
     102      74       0       0       0       0       0       000010000D0000137
     102       0       0       1       0                               0D0000138
     100      75       0       0       0       0     141       000010000D0000139
     100       0       0       1       0                               0D0000140
     124      76       0       0       0       0       0       000000000D0000141
     124       0       0       1       0                               0D0000142
     110      77       0       0       0       0       0       000010000D0000143
     110       0       0       1       0                               0D0000144
     100      78       0       0       0       0     147       000010000D0000145
     100       0       0       1       0                               0D0000146
     124      79       0       0       0       0       0       000000000D0000147
     124       0       0       1       0                               0D0000148
     110      80       0       0       0       0       0       000010000D0000149
     110       0       0       1       0                               0D0000150
     144      81       0       0       0       0       0       000020000D0000151
     144       0       0       1       0                               0D0000152
     108      82       0       0       0       0       0       000010000D0000153
     108       0       0       1       0                               0D0000154
     142      83       0       0       0       0       0       000010500D0000155
     142       0       0       1       0                               0D0000156
     102      84       0       0       0       0       0       000010000D0000157
     102       0       0       1       0                               0D0000158
     100      85       0       0       0       0     161       000010000D0000159
     100       0       0       1       0                               0D0000160
     124      86       0       0       0       0       0       000000000D0000161
     124       0       0       2       0                               0D0000162
     110      88       0       0       0       0       0       000010000D0000163
     110       0       0       1       0                               0D0000164
     100      89       0       0       0       0     167       000010000D0000165
     100       0       0       1       0                               0D0000166
     124      90       0       0       0       0       0       000000000D0000167
     124       0       0       2       0                               0D0000168
     110      92       0       0       0       0       0       000010000D0000169
     110       0       0       1       0                               0D0000170
     100      93       0       0       0       0     173       000010000D0000171
     100       0       0       1       0                               0D0000172
     124      94       0       0       0       0       0       000000000D0000173
     124       0       0       2       0                               0D0000174
     110      96       0       0       0       0       0       000010000D0000175
     110       0       0       1       0                               0D0000176
     100      97       0       0       0       0     179       000010000D0000177
     100       0       0       1       0                               0D0000178
     124      98       0       0       0       0       0       000000000D0000179
     124       0       0       2       0                               0D0000180
     110     100       0       0       0       0       0       000010000D0000181
     110       0       0       1       0                               0D0000182
     142     101       0       0       0       0       0       000010500D0000183
     142       0       0       1       0                               0D0000184
     102     102       0       0       0       0       0       000010000D0000185
     102       0       0       1       0                               0D0000186
     110     103       0       0       0       0       0       000010000D0000187
     110       0       0       1       0                               0D0000188
     100     104       0       0       0       0     191       000010000D0000189
     100       0       0       1       0                               0D0000190
     124     105       0       0       0       0       0       000000000D0000191
     124       0       0       1       0                               0D0000192
     110     106       0       0       0       0       0       000010000D0000193
     110       0       0       1       0                               0D0000194
     100     107       0       0       0       0     197       000010000D0000195
     100       0       0       1       0                               0D0000196
     124     108       0       0       0       0       0       000000000D0000197
     124       0       0       1       0                               0D0000198
     110     109       0       0       0       0       0       000010000D0000199
     110       0       0       1       0                               0D0000200
     100     110       0       0       0       0     203       000010000D0000201
     100       0       0       1       0                               0D0000202
     124     111       0       0       0       0       0       000000000D0000203
     124       0       0       1       0                               0D0000204
     110     112       0       0       0       0       0       000010000D0000205
     110       0       0       1       0                               0D0000206
     100     113       0       0       0       0     209       000010000D0000207
     100       0       0       1       0                               0D0000208
     124     114       0       0       0       0       0       000000000D0000209
     124       0       0       1       0                               0D0000210
     144     115       0       0       0       0       0       000020000D0000211
     144       0       0       1       0                               0D0000212
     108     116       0       0       0       0       0       000010000D0000213
     108       0       0       1       0                               0D0000214
     142     117       0       0       0       0       0       000010500D0000215
     142       0       0       1       0                               0D0000216
     102     118       0       0       0       0       0       000010000D0000217
     102       0       0       1       0                               0D0000218
     110     119       0       0       0       0       0       000010000D0000219
     110       0       0       1       0                               0D0000220
     110     120       0       0       0       0       0       000010000D0000221
     110       0       0       1       0                               0D0000222
     110     121       0       0       0       0       0       000010000D0000223
     110       0       0       1       0                               0D0000224
     110     122       0       0       0       0       0       000010000D0000225
     110       0       0       1       0                               0D0000226
     144     123       0       0       0       0       0       000020000D0000227
     144       0       0       1       0                               0D0000228
     120     124       0       0       0       0     231       000010000D0000229
     120       0       0       1       0                               0D0000230
     124     125       0       0       0       0       0       000000000D0000231
     124       0       0       1       0                               0D0000232
     110     126       0       0       0       0       0       000010000D0000233
     110       0       0       1       0                               0D0000234
     110     127       0       0       0       0       0       000010000D0000235
     110       0       0       1       0                               0D0000236
     142     128       0       0       0       0       0       000010500D0000237
     142       0       0       1       0                               0D0000238
     102     129       0       0       0       0       0       000010000D0000239
     102       0       0       1       0                               0D0000240
     110     130       0       0       0       0       0       000010000D0000241
     110       0       0       1       0                               0D0000242
     110     131       0       0       0       0       0       000010000D0000243
     110       0       0       1       0                               0D0000244
     110     132       0       0       0       0       0       000010000D0000245
     110       0       0       1       0                               0D0000246
     110     133       0       0       0       0       0       000010000D0000247
     110       0       0       1       0                               0D0000248
     102     134       0       0       0       0       0       000010000D0000249
     102       0       0       1       0                               0D0000250
     100     135       0       0       0       0     253       000010000D0000251
     100       0       0       1       0                               0D0000252
     124     136       0       0       0       0       0       000000000D0000253
     124       0       0       1       0                               0D0000254
     110     137       0       0       0       0       0       000010000D0000255
     110       0       0       1       0                               0D0000256
     100     138       0       0       0       0     259       000010000D0000257
     100       0       0       1       0                               0D0000258
     124     139       0       0       0       0       0       000000000D0000259
     124       0       0       1       0                               0D0000260
     110     140       0       0       0       0       0       000010000D0000261
     110       0       0       1       0                               0D0000262
     144     141       0       0       0       0       0       000020000D0000263
     144       0       0       1       0                               0D0000264
     108     142       0       0       0       0       0       000010000D0000265
     108       0       0       1       0                               0D0000266
     142     143       0       0       0       0       0       000010500D0000267
     142       0       0       1       0                               0D0000268
     102     144       0       0       0       0       0       000010000D0000269
     102       0       0       1       0                               0D0000270
     110     145       0       0       0       0       0       000010000D0000271
     110       0       0       1       0                               0D0000272
     110     146       0       0       0       0       0       000010000D0000273
     110       0       0       1       0                               0D0000274
     110     147       0       0       0       0       0       000010000D0000275
     110       0       0       1       0                               0D0000276
     110     148       0       0       0       0       0       000010000D0000277
     110       0       0       1       0                               0D0000278
     144     149       0       0       0       0       0       000020000D0000279
     144       0       0       1       0                               0D0000280
     120     150       0       0       0       0     283       000010000D0000281
     120       0       0       1       0                               0D0000282
     124     151       0       0       0       0       0       000000000D0000283
     124       0       0       1       0                               0D0000284
     110     152       0       0       0       0       0       000010000D0000285
     110       0       0       1       0                               0D0000286
     110     153       0       0       0       0       0       000010000D0000287
     110       0       0       1       0                               0D0000288
     142     154       0       0       0       0       0       000010500D0000289
     142       0       0       1       0                               0D0000290
     102     155       0       0       0       0       0       000010000D0000291
     102       0       0       1       0                               0D0000292
     110     156       0       0       0       0       0       000010000D0000293
     110       0       0       1       0                               0D0000294
     110     157       0       0       0       0       0       000010000D0000295
     110       0       0       1       0                               0D0000296
     110     158       0       0       0       0       0       000010000D0000297
     110       0       0       1       0                               0D0000298
     110     159       0       0       0       0       0       000010000D0000299
     110       0       0       1       0                               0D0000300
     102     160       0       0       0       0       0       000010000D0000301
     102       0       0       1       0                               0D0000302
     100     161       0       0       0       0     305       000010000D0000303
     100       0       0       1       0                               0D0000304
     124     162       0       0       0       0       0       000000000D0000305
     124       0       0       1       0                               0D0000306
     110     163       0       0       0       0       0       000010000D0000307
     110       0       0       1       0                               0D0000308
     100     164       0       0       0       0     311       000010000D0000309
     100       0       0       1       0                               0D0000310
     124     165       0       0       0       0       0       000000000D0000311
     124       0       0       1       0                               0D0000312
     110     166       0       0       0       0       0       000010000D0000313
     110       0       0       1       0                               0D0000314
     144     167       0       0       0       0       0       000020000D0000315
     144       0       0       1       0                               0D0000316
     108     168       0       0       0       0       0       000010000D0000317
     108       0       0       1       0                               0D0000318
     142     169       0       0       0       0       0       000010500D0000319
     142       0       0       1       0                               0D0000320
     102     170       0       0       0       0       0       000010000D0000321
     102       0       0       1       0                               0D0000322
     110     171       0       0       0       0       0       000010000D0000323
     110       0       0       1       0                               0D0000324
     110     172       0       0       0       0       0       000010000D0000325
     110       0       0       1       0                               0D0000326
     110     173       0       0       0       0       0       000010000D0000327
     110       0       0       1       0                               0D0000328
     110     174       0       0       0       0       0       000010000D0000329
     110       0       0       1       0                               0D0000330
     142     175       0       0       0       0       0       000010500D0000331
     142       0       0       1       0                               0D0000332
     102     176       0       0       0       0       0       000010000D0000333
     102       0       0       1       0                               0D0000334
     110     177       0       0       0       0       0       000010000D0000335
     110       0       0       1       0                               0D0000336
     110     178       0       0       0       0       0       000010000D0000337
     110       0       0       1       0                               0D0000338
     110     179       0       0       0       0       0       000010000D0000339
     110       0       0       1       0                               0D0000340
     110     180       0       0       0       0       0       000010000D0000341
     110       0       0       1       0                               0D0000342
     110     181       0       0       0       0       0       000010000D0000343
     110       0       0       1       0                               0D0000344
     110     182       0       0       0       0       0       000010000D0000345
     110       0       0       1       0                               0D0000346
     142     183       0       0       0       0       0       000010500D0000347
     142       0       0       1       0                               0D0000348
     102     184       0       0       0       0       0       000010000D0000349
     102       0       0       1       0                               0D0000350
     110     185       0       0       0       0       0       000010000D0000351
     110       0       0       1       0                               0D0000352
     110     186       0       0       0       0       0       000010000D0000353
     110       0       0       1       0                               0D0000354
     110     187       0       0       0       0       0       000010000D0000355
     110       0       0       1       0                               0D0000356
     110     188       0       0       0       0       0       000010000D0000357
     110       0       0       1       0                               0D0000358
     110     189       0       0       0       0       0       000010000D0000359
     110       0       0       1       0                               0D0000360
     110     190       0       0       0       0       0       000010000D0000361
     110       0       0       1       0                               0D0000362
     144     191       0       0       0       0       0       000020000D0000363
     144       0       0       1       0                               0D0000364
     108     192       0       0       0       0       0       000010000D0000365
     108       0       0       1       0                               0D0000366
     142     193       0       0       0       0       0       000010500D0000367
     142       0       0       1       0                               0D0000368
     102     194       0       0       0       0       0       000010000D0000369
     102       0       0       1       0                               0D0000370
     110     195       0       0       0       0       0       000010000D0000371
     110       0       0       1       0                               0D0000372
     110     196       0       0       0       0       0       000010000D0000373
     110       0       0       1       0                               0D0000374
     110     197       0       0       0       0       0       000010000D0000375
     110       0       0       1       0                               0D0000376
     110     198       0       0       0       0       0       000010000D0000377
     110       0       0       1       0                               0D0000378
     144     199       0       0       0       0       0       000020000D0000379
     144       0       0       1       0                               0D0000380
     120     200       0       0       0       0     383       000010000D0000381
     120       0       0       1       0                               0D0000382
     124     201       0       0       0       0       0       000000000D0000383
     124       0       0       2       1                               0D0000384
     110     203       0       0       0       0       0       000010000D0000385
     110       0       0       1       0                               0D0000386
     110     204       0       0       0       0       0       000010000D0000387
     110       0       0       1       0                               0D0000388
     142     205       0       0       0       0       0       000010500D0000389
     142       0       0       1       0                               0D0000390
     102     206       0       0       0       0       0       000010000D0000391
     102       0       0       1       0                               0D0000392
     110     207       0       0       0       0       0       000010000D0000393
     110       0       0       1       0                               0D0000394
     110     208       0       0       0       0       0       000010000D0000395
     110       0       0       1       0                               0D0000396
     110     209       0       0       0       0       0       000010000D0000397
     110       0       0       1       0                               0D0000398
     110     210       0       0       0       0       0       000010000D0000399
     110       0       0       2       0                               0D0000400
     102     212       0       0       0       0       0       000010000D0000401
     102       0       0       1       0                               0D0000402
     110     213       0       0       0       0       0       000010000D0000403
     110       0       0       1       0                               0D0000404
     100     214       0       0       0       0     407       000010000D0000405
     100       0       0       1       0                               0D0000406
     124     215       0       0       0       0       0       000000000D0000407
     124       0       0       2       0                               0D0000408
     110     217       0       0       0       0       0       000010000D0000409
     110       0       0       1       0                               0D0000410
     100     218       0       0       0       0     413       000010000D0000411
     100       0       0       1       0                               0D0000412
     124     219       0       0       0       0       0       000000000D0000413
     124       0       0       2       0                               0D0000414
     144     221       0       0       0       0       0       000020000D0000415
     144       0       0       1       0                               0D0000416
     108     222       0       0       0       0       0       000010000D0000417
     108       0       0       1       0                               0D0000418
     142     223       0       0       0       0       0       000010500D0000419
     142       0       0       1       0                               0D0000420
     102     224       0       0       0       0       0       000010000D0000421
     102       0       0       1       0                               0D0000422
     110     225       0       0       0       0       0       000010000D0000423
     110       0       0       1       0                               0D0000424
     110     226       0       0       0       0       0       000010000D0000425
     110       0       0       1       0                               0D0000426
     110     227       0       0       0       0       0       000010000D0000427
     110       0       0       1       0                               0D0000428
     110     228       0       0       0       0       0       000010000D0000429
     110       0       0       1       0                               0D0000430
     142     229       0       0       0       0       0       000010500D0000431
     142       0       0       1       0                               0D0000432
     102     230       0       0       0       0       0       000010000D0000433
     102       0       0       1       0                               0D0000434
     110     231       0       0       0       0       0       000010000D0000435
     110       0       0       1       0                               0D0000436
     110     232       0       0       0       0       0       000010000D0000437
     110       0       0       1       0                               0D0000438
     110     233       0       0       0       0       0       000010000D0000439
     110       0       0       1       0                               0D0000440
     110     234       0       0       0       0       0       000010000D0000441
     110       0       0       1       0                               0D0000442
     110     235       0       0       0       0       0       000010000D0000443
     110       0       0       1       0                               0D0000444
     110     236       0       0       0       0       0       000010000D0000445
     110       0       0       1       0                               0D0000446
     142     237       0       0       0       0       0       000010500D0000447
     142       0       0       1       0                               0D0000448
     102     238       0       0       0       0       0       000010000D0000449
     102       0       0       1       0                               0D0000450
     110     239       0       0       0       0       0       000010000D0000451
     110       0       0       1       0                               0D0000452
     110     240       0       0       0       0       0       000010000D0000453
     110       0       0       1       0                               0D0000454
     110     241       0       0       0       0       0       000010000D0000455
     110       0       0       1       0                               0D0000456
     110     242       0       0       0       0       0       000010000D0000457
     110       0       0       1       0                               0D0000458
     110     243       0       0       0       0       0       000010000D0000459
     110       0       0       1       0                               0D0000460
     110     244       0       0       0       0       0       000010000D0000461
     110       0       0       1       0                               0D0000462
     144     245       0       0       0       0       0       000020000D0000463
     144       0       0       1       0                               0D0000464
     120     246       0       0       0       0     467       000010000D0000465
     120       0       0       1       0                               0D0000466
     124     247       0       0       0       0       0       000000000D0000467
     124       0       0       2       1                               0D0000468
     110     249       0       0       0       0       0       000010000D0000469
     110       0       0       1       0                               0D0000470
     110     250       0       0       0       0       0       000010000D0000471
     110       0       0       1       0                               0D0000472
     142     251       0       0       0       0       0       000010500D0000473
     142       0       0       1       0                               0D0000474
     102     252       0       0       0       0       0       000010000D0000475
     102       0       0       1       0                               0D0000476
     110     253       0       0       0       0       0       000010000D0000477
     110       0       0       1       0                               0D0000478
     110     254       0       0       0       0       0       000010000D0000479
     110       0       0       1       0                               0D0000480
     110     255       0       0       0       0       0       000010000D0000481
     110       0       0       1       0                               0D0000482
     110     256       0       0       0       0       0       000010000D0000483
     110       0       0       2       0                               0D0000484
     102     258       0       0       0       0       0       000010000D0000485
     102       0       0       1       0                               0D0000486
     110     259       0       0       0       0       0       000010000D0000487
     110       0       0       1       0                               0D0000488
     100     260       0       0       0       0     491       000010000D0000489
     100       0       0       1       0                               0D0000490
     124     261       0       0       0       0       0       000000000D0000491
     124       0       0       2       0                               0D0000492
     110     263       0       0       0       0       0       000010000D0000493
     110       0       0       1       0                               0D0000494
     100     264       0       0       0       0     497       000010000D0000495
     100       0       0       1       0                               0D0000496
     124     265       0       0       0       0       0       000000000D0000497
     124       0       0       2       0                               0D0000498
     144     267       0       0       0       0       0       000020000D0000499
     144       0       0       1       0                               0D0000500
     108     268       0       0       0       0       0       000010000D0000501
     108       0       0       1       0                               0D0000502
     142     269       0       0       0       0       0       000010500D0000503
     142       0       0       1       0                               0D0000504
     102     270       0       0       0       0       0       000010000D0000505
     102       0       0       1       0                               0D0000506
     110     271       0       0       0       0       0       000010000D0000507
     110       0       0       1       0                               0D0000508
     110     272       0       0       0       0       0       000010000D0000509
     110       0       0       1       0                               0D0000510
     110     273       0       0       0       0       0       000010000D0000511
     110       0       0       1       0                               0D0000512
     110     274       0       0       0       0       0       000010000D0000513
     110       0       0       1       0                               0D0000514
     144     275       0       0       0       0       0       000020000D0000515
     144       0       0       1       0                               0D0000516
     120     276       0       0       0       0     519       000010000D0000517
     120       0       0       1       0                               0D0000518
     124     277       0       0       0       0       0       000000000D0000519
     124       0       0       2       1                               0D0000520
     110     279       0       0       0       0       0       000010000D0000521
     110       0       0       1       0                               0D0000522
     110     280       0       0       0       0       0       000010000D0000523
     110       0       0       1       0                               0D0000524
     142     281       0       0       0       0       0       000010500D0000525
     142       0       0       1       0                               0D0000526
     102     282       0       0       0       0       0       000010000D0000527
     102       0       0       1       0                               0D0000528
     110     283       0       0       0       0       0       000010000D0000529
     110       0       0       1       0                               0D0000530
     110     284       0       0       0       0       0       000010000D0000531
     110       0       0       1       0                               0D0000532
     110     285       0       0       0       0       0       000010000D0000533
     110       0       0       1       0                               0D0000534
     110     286       0       0       0       0       0       000010000D0000535
     110       0       0       2       0                               0D0000536
     102     288       0       0       0       0       0       000010000D0000537
     102       0       0       1       0                               0D0000538
     110     289       0       0       0       0       0       000010000D0000539
     110       0       0       1       0                               0D0000540
     100     290       0       0       0       0     543       000010000D0000541
     100       0       0       1       0                               0D0000542
     124     291       0       0       0       0       0       000000000D0000543
     124       0       0       2       0                               0D0000544
     110     293       0       0       0       0       0       000010000D0000545
     110       0       0       1       0                               0D0000546
     100     294       0       0       0       0     549       000010000D0000547
     100       0       0       1       0                               0D0000548
     124     295       0       0       0       0       0       000000000D0000549
     124       0       0       2       0                               0D0000550
     144     297       0       0       0       0       0       000020000D0000551
     144       0       0       1       0                               0D0000552
     108     298       0       0       0       0       0       000010000D0000553
     108       0       0       1       0                               0D0000554
     142     299       0       0       0       0       0       000010500D0000555
     142       0       0       1       0                               0D0000556
     102     300       0       0       0       0       0       000010000D0000557
     102       0       0       1       0                               0D0000558
     110     301       0       0       0       0       0       000010000D0000559
     110       0       0       1       0                               0D0000560
     110     302       0       0       0       0       0       000010000D0000561
     110       0       0       1       0                               0D0000562
     110     303       0       0       0       0       0       000010000D0000563
     110       0       0       1       0                               0D0000564
     110     304       0       0       0       0       0       000010000D0000565
     110       0       0       1       0                               0D0000566
     144     305       0       0       0       0       0       000020000D0000567
     144       0       0       1       0                               0D0000568
     120     306       0       0       0       0     571       000010000D0000569
     120       0       0       1       0                               0D0000570
     124     307       0       0       0       0       0       000000000D0000571
     124       0       0       2       1                               0D0000572
     110     309       0       0       0       0       0       000010000D0000573
     110       0       0       1       0                               0D0000574
     110     310       0       0       0       0       0       000010000D0000575
     110       0       0       1       0                               0D0000576
     142     311       0       0       0       0       0       000010500D0000577
     142       0       0       1       0                               0D0000578
     102     312       0       0       0       0       0       000010000D0000579
     102       0       0       1       0                               0D0000580
     110     313       0       0       0       0       0       000010000D0000581
     110       0       0       1       0                               0D0000582
     110     314       0       0       0       0       0       000010000D0000583
     110       0       0       1       0                               0D0000584
     110     315       0       0       0       0       0       000010000D0000585
     110       0       0       1       0                               0D0000586
     110     316       0       0       0       0       0       000010000D0000587
     110       0       0       2       0                               0D0000588
     102     318       0       0       0       0       0       000010000D0000589
     102       0       0       1       0                               0D0000590
     110     319       0       0       0       0       0       000010000D0000591
     110       0       0       1       0                               0D0000592
     100     320       0       0       0       0     595       000010000D0000593
     100       0       0       1       0                               0D0000594
     124     321       0       0       0       0       0       000000000D0000595
     124       0       0       2       0                               0D0000596
     110     323       0       0       0       0       0       000010000D0000597
     110       0       0       1       0                               0D0000598
     100     324       0       0       0       0     601       000010000D0000599
     100       0       0       1       0                               0D0000600
     124     325       0       0       0       0       0       000000000D0000601
     124       0       0       2       0                               0D0000602
     144     327       0       0       0       0       0       000020000D0000603
     144       0       0       1       0                               0D0000604
     108     328       0       0       0       0       0       000010000D0000605
     108       0       0       1       0                               0D0000606
     142     329       0       0       0       0       0       000010500D0000607
     142       0       0       1       0                               0D0000608
     102     330       0       0       0       0       0       000010000D0000609
     102       0       0       1       0                               0D0000610
     110     331       0       0       0       0       0       000010000D0000611
     110       0       0       1       0                               0D0000612
     110     332       0       0       0       0       0       000010000D0000613
     110       0       0       1       0                               0D0000614
     110     333       0       0       0       0       0       000010000D0000615
     110       0       0       1       0                               0D0000616
     110     334       0       0       0       0       0       000010000D0000617
     110       0       0       1       0                               0D0000618
     144     335       0       0       0       0       0       000020000D0000619
     144       0       0       1       0                               0D0000620
     108     336       0       0       0       0       0       000010000D0000621
     108       0       0       2       0                               0D0000622
     142     338       0       0       0       0       0       000010500D0000623
     142       0       0       1       0                               0D0000624
     102     339       0       0       0       0       0       000010000D0000625
     102       0       0       1       0                               0D0000626
     110     340       0       0       0       0       0       000010000D0000627
     110       0       0       1       0                               0D0000628
     110     341       0       0       0       0       0       000010000D0000629
     110       0       0       1       0                               0D0000630
     110     342       0       0       0       0       0       000010000D0000631
     110       0       0       1       0                               0D0000632
     110     343       0       0       0       0       0       000010000D0000633
     110       0       0       1       0                               0D0000634
     144     344       0       0       0       0       0       000020000D0000635
     144       0       0       1       0                               0D0000636
     108     345       0       0       0       0       0       000010000D0000637
     108       0       0       2       0                               0D0000638
     142     347       0       0       0       0       0       000010500D0000639
     142       0       0       1       0                               0D0000640
     102     348       0       0       0       0       0       000010000D0000641
     102       0       0       1       0                               0D0000642
     110     349       0       0       0       0       0       000010000D0000643
     110       0       0       1       0                               0D0000644
     110     350       0       0       0       0       0       000010000D0000645
     110       0       0       1       0                               0D0000646
     110     351       0       0       0       0       0       000010000D0000647
     110       0       0       1       0                               0D0000648
     110     352       0       0       0       0       0       000010000D0000649
     110       0       0       1       0                               0D0000650
     144     353       0       0       0       0       0       000020000D0000651
     144       0       0       1       0                               0D0000652
     108     354       0       0       0       0       0       000010000D0000653
     108       0       0       1       0                               0D0000654
     142     355       0       0       0       0       0       000010500D0000655
     142       0       0       1       0                               0D0000656
     102     356       0       0       0       0       0       000010000D0000657
     102       0       0       1       0                               0D0000658
     110     357       0       0       0       0       0       000010000D0000659
     110       0       0       1       0                               0D0000660
     110     358       0       0       0       0       0       000010000D0000661
     110       0       0       1       0                               0D0000662
     110     359       0       0       0       0       0       000010000D0000663
     110       0       0       1       0                               0D0000664
     110     360       0       0       0       0       0       000010000D0000665
     110       0       0       1       0                               0D0000666
     144     361       0       0       0       0       0       000020000D0000667
     144       0       0       1       0                               0D0000668
     108     362       0       0       0       0       0       000010000D0000669
     108       0       0       2       0                               0D0000670
     142     364       0       0       0       0       0       000010500D0000671
     142       0       0       1       0                               0D0000672
     102     365       0       0       0       0       0       000010000D0000673
     102       0       0       1       0                               0D0000674
     110     366       0       0       0       0       0       000010000D0000675
     110       0       0       1       0                               0D0000676
     110     367       0       0       0       0       0       000010000D0000677
     110       0       0       1       0                               0D0000678
     110     368       0       0       0       0       0       000010000D0000679
     110       0       0       1       0                               0D0000680
     110     369       0       0       0       0       0       000010000D0000681
     110       0       0       1       0                               0D0000682
     144     370       0       0       0       0       0       000020000D0000683
     144       0       0       1       0                               0D0000684
     108     371       0       0       0       0       0       000010000D0000685
     108       0       0       2       0                               0D0000686
     142     373       0       0       0       0       0       000010500D0000687
     142       0       0       1       0                               0D0000688
     102     374       0       0       0       0       0       000010000D0000689
     102       0       0       1       0                               0D0000690
     110     375       0       0       0       0       0       000010000D0000691
     110       0       0       1       0                               0D0000692
     110     376       0       0       0       0       0       000010000D0000693
     110       0       0       1       0                               0D0000694
     110     377       0       0       0       0       0       000010000D0000695
     110       0       0       1       0                               0D0000696
     110     378       0       0       0       0       0       000010000D0000697
     110       0       0       1       0                               0D0000698
     144     379       0       0       0       0       0       000020000D0000699
     144       0       0       1       0                               0D0000700
     108     380       0       0       0       0       0       000010000D0000701
     108       0       0       1       0                               0D0000702
     142     381       0       0       0       0       0       000010500D0000703
     142       0       0       1       0                               0D0000704
     102     382       0       0       0       0       0       000010000D0000705
     102       0       0       1       0                               0D0000706
     110     383       0       0       0       0       0       000010000D0000707
     110       0       0       1       0                               0D0000708
     110     384       0       0       0       0       0       000010000D0000709
     110       0       0       1       0                               0D0000710
     110     385       0       0       0       0       0       000010000D0000711
     110       0       0       1       0                               0D0000712
     110     386       0       0       0       0       0       000010000D0000713
     110       0       0       1       0                               0D0000714
     144     387       0       0       0       0       0       000020000D0000715
     144       0       0       1       0                               0D0000716
     108     388       0       0       0       0       0       000010000D0000717
     108       0       0       1       0                               0D0000718
     142     389       0       0       0       0       0       000010500D0000719
     142       0       0       1       0                               0D0000720
     102     390       0       0       0       0       0       000010000D0000721
     102       0       0       1       0                               0D0000722
     110     391       0       0       0       0       0       000010000D0000723
     110       0       0       1       0                               0D0000724
     110     392       0       0       0       0       0       000010000D0000725
     110       0       0       1       0                               0D0000726
     110     393       0       0       0       0       0       000010000D0000727
     110       0       0       1       0                               0D0000728
     110     394       0       0       0       0       0       000010000D0000729
     110       0       0       1       0                               0D0000730
     144     395       0       0       0       0       0       000020000D0000731
     144       0       0       1       0                               0D0000732
     108     396       0       0       0       0       0       000010000D0000733
     108       0       0       1       0                               0D0000734
     142     397       0       0       0       0       0       000010500D0000735
     142       0       0       1       0                               0D0000736
     102     398       0       0       0       0       0       000010000D0000737
     102       0       0       1       0                               0D0000738
     110     399       0       0       0       0       0       000010000D0000739
     110       0       0       1       0                               0D0000740
     110     400       0       0       0       0       0       000010000D0000741
     110       0       0       1       0                               0D0000742
     110     401       0       0       0       0       0       000010000D0000743
     110       0       0       1       0                               0D0000744
     110     402       0       0       0       0       0       000010000D0000745
     110       0       0       1       0                               0D0000746
     144     403       0       0       0       0       0       000020000D0000747
     144       0       0       1       0                               0D0000748
     108     404       0       0       0       0       0       000010000D0000749
     108       0       0       2       0                               0D0000750
     142     406       0       0       0       0       0       000010500D0000751
     142       0       0       1       0                               0D0000752
     102     407       0       0       0       0       0       000010000D0000753
     102       0       0       1       0                               0D0000754
     110     408       0       0       0       0       0       000010000D0000755
     110       0       0       1       0                               0D0000756
     110     409       0       0       0       0       0       000010000D0000757
     110       0       0       1       0                               0D0000758
     110     410       0       0       0       0       0       000010000D0000759
     110       0       0       1       0                               0D0000760
     110     411       0       0       0       0       0       000010000D0000761
     110       0       0       1       0                               0D0000762
     144     412       0       0       0       0       0       000020000D0000763
     144       0       0       1       0                               0D0000764
     108     413       0       0       0       0       0       000010000D0000765
     108       0       0       2       0                               0D0000766
     142     415       0       0       0       0       0       000010500D0000767
     142       0       0       1       0                               0D0000768
     102     416       0       0       0       0       0       000010000D0000769
     102       0       0       1       0                               0D0000770
     110     417       0       0       0       0       0       000010000D0000771
     110       0       0       1       0                               0D0000772
     110     418       0       0       0       0       0       000010000D0000773
     110       0       0       1       0                               0D0000774
     110     419       0       0       0       0       0       000010000D0000775
     110       0       0       1       0                               0D0000776
     110     420       0       0       0       0       0       000010000D0000777
     110       0       0       1       0                               0D0000778
     144     421       0       0       0       0       0       000020000D0000779
     144       0       0       1       0                               0D0000780
     108     422       0       0       0       0       0       000010000D0000781
     108       0       0       1       0                               0D0000782
     142     423       0       0       0       0       0       000010500D0000783
     142       0       0       1       0                               0D0000784
     102     424       0       0       0       0       0       000010000D0000785
     102       0       0       1       0                               0D0000786
     110     425       0       0       0       0       0       000010000D0000787
     110       0       0       1       0                               0D0000788
     110     426       0       0       0       0       0       000010000D0000789
     110       0       0       1       0                               0D0000790
     110     427       0       0       0       0       0       000010000D0000791
     110       0       0       1       0                               0D0000792
     110     428       0       0       0       0       0       000010000D0000793
     110       0       0       1       0                               0D0000794
402,30,3,19,55,115,151,211,227,263,279,315,363,379,415,463,499,  0000001P0000001
515,551,567,603,619,635,651,667,683,699,715,731,747,763,779;     0000001P0000002
144,5,1,0,7;                                                     0000003P0000003
108,1.,0.,0.,20.,0,20.,-140.,-17.,0.;                            0000005P0000004
142,0,5,0,9,2;                                                   0000007P0000005
102,4,11,13,15,17;                                               0000009P0000006
110,20.,560.,17.,20.,0.,17.;                                     0000011P0000007
110,20.,0.,17.,20.,0.,-17.;                                      0000013P0000008
110,20.,0.,-17.,20.,560.,-17.;                                   0000015P0000009
110,20.,560.,-17.,20.,560.,17.;                                  0000017P0000010
144,21,1,0,29;                                                   0000019P0000011
120,25,27,4.71238898,6.283185307;                                0000021P0000012
124,1.,0.,0.,17.,0.,0.,-1.,-140.,0.,1.,0.,17.;                   0000023P0000013
110,0.,0.,1.,0.,0.,0.;                                           0000025P0000014
110,3.,0.,-700.,3.,0.,-140.;                                     0000027P0000015
142,0,21,31,41,3;                                                0000029P0000016
102,4,33,35,37,39;                                               0000031P0000017
110,1.,4.71238898,0.,1.,6.283185307,0.;                          0000033P0000018
110,1.,6.283185307,0.,-2.220446049E-16,6.283185307,0.;           0000035P0000019
110,0.,6.283185307,0.,-6.228336604E-19,4.71238898,0.;            0000037P0000020
110,-2.220446049E-16,4.71238898,0.,1.,4.71238898,0.;             0000039P0000021
102,4,43,47,49,53;                                               0000041P0000022
100,0.,0.,0.,0.,-3.,3.,0.;                                       0000043P0000023
124,1.,0.,0.,17.,0.,0.,1.,0.,0.,-1.,0.,17.;                      0000045P0000024
110,20.,0.,17.,20.,560.,17.;                                     0000047P0000025
100,0.,0.,0.,3.,0.,0.,3.;                                        0000049P0000026
124,1.,0.,0.,17.,0.,0.,-1.,560.,0.,1.,0.,17.;                    0000051P0000027
110,17.,560.,20.,17.,0.,20.;                                     0000053P0000028
144,57,1,1,59,87;                                                0000055P0000029
108,0.,1.,0.,560.,0,-9.98E+03,560.,-1.E+04,0.;                   0000057P0000030
142,0,57,0,61,2;                                                 0000059P0000031
102,8,63,65,69,71,75,77,81,83;                                   0000061P0000032
110,18.5,560.,-17.,18.5,560.,17.;                                0000063P0000033
100,0.,0.,0.,1.5,0.,-1.421085472E-14,1.5;                        0000065P0000034
124,1.,4.736951572E-15,0.,17.,0.,0.,-1.,560.,-4.736951572E-15,   0000067P0000035
1.,0.,17.;                                                       0000067P0000036
110,17.,560.,18.5,-17.,560.,18.5;                                0000069P0000037
100,0.,0.,0.,1.5,0.,-1.421085472E-14,1.5;                        0000071P0000038
124,4.736951572E-15,-1.,0.,-17.,0.,0.,-1.,560.,1.,               0000073P0000039
4.736951572E-15,0.,17.;                                          0000073P0000040
110,-18.5,560.,17.,-18.5,560.,-17.;                              0000075P0000041
100,0.,0.,0.,1.5,0.,-1.421085472E-14,1.5;                        0000077P0000042
124,-1.,-4.736951572E-15,0.,-17.,0.,-0.,-1.,560.,                0000079P0000043
4.736951572E-15,-1.,0.,-17.;                                     0000079P0000044
110,-17.,560.,-18.5,17.,560.,-18.5;                              0000081P0000045
100,0.,0.,0.,1.5,0.,-1.421085472E-14,1.5;                        0000083P0000046
124,-4.736951572E-15,1.,0.,17.,-0.,0.,-1.,560.,-1.,              0000085P0000047
-4.736951572E-15,0.,-17.;                                        0000085P0000048
142,0,57,0,89,2;                                                 0000087P0000049
102,8,91,93,97,99,103,105,109,111;                               0000089P0000050
110,20.,560.,17.,20.,560.,-17.;                                  0000091P0000051
100,0.,0.,0.,0.,-3.,3.,0.;                                       0000093P0000052
124,0.,-1.,0.,17.,0.,-0.,1.,560.,-1.,-0.,0.,-17.;                0000095P0000053
110,17.,560.,-20.,-17.,560.,-20.;                                0000097P0000054
100,0.,0.,0.,0.,-3.,3.,0.;                                       0000099P0000055
124,-1.,0.,0.,-17.,0.,0.,1.,560.,0.,1.,0.,-17.;                  0000101P0000056
110,-20.,560.,-17.,-20.,560.,17.;                                0000103P0000057
100,0.,0.,0.,0.,-3.,3.,0.;                                       0000105P0000058
124,0.,1.,0.,-17.,0.,0.,1.,560.,1.,0.,0.,17.;                    0000107P0000059
110,-17.,560.,20.,17.,560.,20.;                                  0000109P0000060
100,0.,0.,0.,0.,-3.,3.,0.;                                       0000111P0000061
124,1.,0.,0.,17.,0.,0.,1.,560.,0.,-1.,0.,17.;                    0000113P0000062
144,117,1,0,125;                                                 0000115P0000063
120,121,123,4.71238898,6.283185307;                              0000117P0000064
124,0.,1.,0.,17.,0.,0.,-1.,-140.,-1.,0.,0.,-17.;                 0000119P0000065
110,0.,0.,1.,0.,0.,0.;                                           0000121P0000066
110,3.,0.,-700.,3.,0.,-140.;                                     0000123P0000067
142,0,117,127,137,3;                                             0000125P0000068
102,4,129,131,133,135;                                           0000127P0000069
110,1.,4.71238898,0.,1.,6.283185307,0.;                          0000129P0000070
110,1.,6.283185307,0.,-2.220446049E-16,6.283185307,0.;           0000131P0000071
110,0.,6.283185307,0.,-6.228336604E-19,4.71238898,0.;            0000133P0000072
110,-2.220446049E-16,4.71238898,0.,1.,4.71238898,0.;             0000135P0000073
102,4,139,143,145,149;                                           0000137P0000074
100,0.,0.,0.,0.,-3.,3.,0.;                                       0000139P0000075
124,0.,-1.,0.,17.,0.,-0.,1.,0.,-1.,-0.,0.,-17.;                  0000141P0000076
110,17.,0.,-20.,17.,560.,-20.;                                   0000143P0000077
100,0.,0.,0.,3.,0.,0.,3.;                                        0000145P0000078
124,0.,1.,0.,17.,0.,0.,-1.,560.,-1.,0.,0.,-17.;                  0000147P0000079
110,20.,560.,-17.,20.,0.,-17.;                                   0000149P0000080
144,153,1,1,155,183;                                             0000151P0000081
108,0.,-1.,0.,0.,0,-9.98E+03,0.,1.E+04,0.;                       0000153P0000082
142,0,153,0,157,2;                                               0000155P0000083
102,8,159,163,165,169,171,175,177,181;                           0000157P0000084
100,0.,0.,0.,-1.421085472E-14,-1.5,1.5,0.;                       0000159P0000085
124,1.,-4.736951572E-15,0.,17.,0.,-0.,1.,0.,-4.736951572E-15,    0000161P0000086
-1.,0.,17.;                                                      0000161P0000087
110,18.5,0.,17.,18.5,0.,-17.;                                    0000163P0000088
100,0.,0.,0.,-1.421085472E-14,-1.5,1.5,0.;                       0000165P0000089
124,-4.736951572E-15,-1.,0.,17.,-0.,0.,1.,0.,-1.,                0000167P0000090
4.736951572E-15,0.,-17.;                                         0000167P0000091
110,17.,0.,-18.5,-17.,0.,-18.5;                                  0000169P0000092
100,0.,0.,0.,-1.421085472E-14,-1.5,1.5,0.;                       0000171P0000093
124,-1.,4.736951572E-15,0.,-17.,0.,0.,1.,0.,4.736951572E-15,1.,  0000173P0000094
0.,-17.;                                                         0000173P0000095
110,-18.5,0.,-17.,-18.5,0.,17.;                                  0000175P0000096
100,0.,0.,0.,-1.421085472E-14,-1.5,1.5,0.;                       0000177P0000097
124,4.736951572E-15,1.,0.,-17.,0.,0.,1.,0.,1.,-4.736951572E-15,  0000179P0000098
0.,17.;                                                          0000179P0000099
110,-17.,0.,18.5,17.,0.,18.5;                                    0000181P0000100
142,0,153,0,185,2;                                               0000183P0000101
102,8,187,189,193,195,199,201,205,207;                           0000185P0000102
110,20.,0.,-17.,20.,0.,17.;                                      0000187P0000103
100,0.,0.,0.,3.,0.,0.,3.;                                        0000189P0000104
124,1.,0.,0.,17.,0.,0.,-1.,0.,0.,1.,0.,17.;                      0000191P0000105
110,17.,0.,20.,-17.,0.,20.;                                      0000193P0000106
100,0.,0.,0.,3.,0.,0.,3.;                                        0000195P0000107
124,0.,-1.,0.,-17.,0.,0.,-1.,0.,1.,0.,0.,17.;                    0000197P0000108
110,-20.,0.,17.,-20.,0.,-17.;                                    0000199P0000109
100,0.,0.,0.,3.,0.,0.,3.;                                        0000201P0000110
124,-1.,-0.,0.,-17.,0.,-0.,-1.,0.,0.,-1.,0.,-17.;                0000203P0000111
110,-17.,0.,-20.,17.,0.,-20.;                                    0000205P0000112
100,0.,0.,0.,3.,0.,0.,3.;                                        0000207P0000113
124,0.,1.,0.,17.,0.,0.,-1.,0.,-1.,0.,0.,-17.;                    0000209P0000114
144,213,1,0,215;                                                 0000211P0000115
108,0.,-0.,1.,20.,0,17.,-140.,20.,0.;                            0000213P0000116
142,0,213,0,217,2;                                               0000215P0000117
102,4,219,221,223,225;                                           0000217P0000118
110,-17.,560.,20.,-17.,0.,20.;                                   0000219P0000119
110,-17.,0.,20.,17.,0.,20.;                                      0000221P0000120
110,17.,0.,20.,17.,560.,20.;                                     0000223P0000121
110,17.,560.,20.,-17.,560.,20.;                                  0000225P0000122
144,229,1,0,237;                                                 0000227P0000123
120,233,235,4.71238898,6.283185307;                              0000229P0000124
124,0.,-1.,0.,-17.,0.,0.,-1.,-140.,1.,0.,0.,17.;                 0000231P0000125
110,0.,0.,1.,0.,0.,0.;                                           0000233P0000126
110,3.,0.,-700.,3.,0.,-140.;                                     0000235P0000127
142,0,229,239,249,3;                                             0000237P0000128
102,4,241,243,245,247;                                           0000239P0000129
110,1.,4.71238898,0.,1.,6.283185307,0.;                          0000241P0000130
110,1.,6.283185307,0.,-2.220446049E-16,6.283185307,0.;           0000243P0000131
110,0.,6.283185307,0.,-6.228336604E-19,4.71238898,0.;            0000245P0000132
110,-2.220446049E-16,4.71238898,0.,1.,4.71238898,0.;             0000247P0000133
102,4,251,255,257,261;                                           0000249P0000134
100,0.,0.,0.,0.,-3.,3.,0.;                                       0000251P0000135
124,0.,1.,0.,-17.,0.,0.,1.,0.,1.,0.,0.,17.;                      0000253P0000136
110,-17.,0.,20.,-17.,560.,20.;                                   0000255P0000137
100,0.,0.,0.,3.,0.,0.,3.;                                        0000257P0000138
124,0.,-1.,0.,-17.,0.,0.,-1.,560.,1.,0.,0.,17.;                  0000259P0000139
110,-20.,560.,17.,-20.,0.,17.;                                   0000261P0000140
144,265,1,0,267;                                                 0000263P0000141
108,-1.,0.,0.,20.,0,-20.,-140.,17.,0.;                           0000265P0000142
142,0,265,0,269,2;                                               0000267P0000143
102,4,271,273,275,277;                                           0000269P0000144
110,-20.,560.,-17.,-20.,0.,-17.;                                 0000271P0000145
110,-20.,0.,-17.,-20.,0.,17.;                                    0000273P0000146
110,-20.,0.,17.,-20.,560.,17.;                                   0000275P0000147
110,-20.,560.,17.,-20.,560.,-17.;                                0000277P0000148
144,281,1,0,289;                                                 0000279P0000149
120,285,287,4.71238898,6.283185307;                              0000281P0000150
124,-1.,-0.,0.,-17.,0.,-0.,-1.,-140.,0.,-1.,0.,-17.;             0000283P0000151
110,0.,0.,1.,0.,0.,0.;                                           0000285P0000152
110,3.,0.,-700.,3.,0.,-140.;                                     0000287P0000153
142,0,281,291,301,3;                                             0000289P0000154
102,4,293,295,297,299;                                           0000291P0000155
110,1.,4.71238898,0.,1.,6.283185307,0.;                          0000293P0000156
110,1.,6.283185307,0.,-2.220446049E-16,6.283185307,0.;           0000295P0000157
110,0.,6.283185307,0.,-6.228336604E-19,4.71238898,0.;            0000297P0000158
110,-2.220446049E-16,4.71238898,0.,1.,4.71238898,0.;             0000299P0000159
102,4,303,307,309,313;                                           0000301P0000160
100,0.,0.,0.,0.,-3.,3.,0.;                                       0000303P0000161
124,-1.,0.,0.,-17.,0.,0.,1.,0.,0.,1.,0.,-17.;                    0000305P0000162
110,-20.,0.,-17.,-20.,560.,-17.;                                 0000307P0000163
100,0.,0.,0.,3.,0.,0.,3.;                                        0000309P0000164
124,-1.,-0.,0.,-17.,0.,-0.,-1.,560.,0.,-1.,0.,-17.;              0000311P0000165
110,-17.,560.,-20.,-17.,0.,-20.;                                 0000313P0000166
144,317,1,2,319,331,347;                                         0000315P0000167
108,0.,0.,-1.,20.,0,-17.,-140.,-20.,0.;                          0000317P0000168
142,0,317,0,321,2;                                               0000319P0000169
102,4,323,325,327,329;                                           0000321P0000170
110,17.,560.,-20.,17.,0.,-20.;                                   0000323P0000171
110,17.,0.,-20.,-17.,0.,-20.;                                    0000325P0000172
110,-17.,0.,-20.,-17.,560.,-20.;                                 0000327P0000173
110,-17.,560.,-20.,17.,560.,-20.;                                0000329P0000174
142,0,317,0,333,2;                                               0000331P0000175
102,6,335,337,339,341,343,345;                                   0000333P0000176
110,-3.71,532.2,-20.,3.72,532.2,-20.;                            0000335P0000177
110,3.72,532.2,-20.,7.4,538.6,-20.;                              0000337P0000178
110,7.4,538.6,-20.,3.72,545.,-20.;                               0000339P0000179
110,3.72,545.,-20.,-3.71,545.,-20.;                              0000341P0000180
110,-3.71,545.,-20.,-7.4,538.6,-20.;                             0000343P0000181
110,-7.4,538.6,-20.,-3.71,532.2,-20.;                            0000345P0000182
142,0,317,0,349,2;                                               0000347P0000183
102,6,351,353,355,357,359,361;                                   0000349P0000184
110,-3.71,15.,-20.,3.72,15.,-20.;                                0000351P0000185
110,3.72,15.,-20.,7.4,21.4,-20.;                                 0000353P0000186
110,7.4,21.4,-20.,3.72,27.8,-20.;                                0000355P0000187
110,3.72,27.8,-20.,-3.71,27.8,-20.;                              0000357P0000188
110,-3.71,27.8,-20.,-7.4,21.4,-20.;                              0000359P0000189
110,-7.4,21.4,-20.,-3.71,15.,-20.;                               0000361P0000190
144,365,1,0,367;                                                 0000363P0000191
108,-1.,-0.,-0.,-18.5,0,18.5,-140.,-17.,0.;                      0000365P0000192
142,0,365,0,369,2;                                               0000367P0000193
102,4,371,373,375,377;                                           0000369P0000194
110,18.5,0.,-17.,18.5,0.,17.;                                    0000371P0000195
110,18.5,0.,17.,18.5,560.,17.;                                   0000373P0000196
110,18.5,560.,17.,18.5,560.,-17.;                                0000375P0000197
110,18.5,560.,-17.,18.5,0.,-17.;                                 0000377P0000198
144,381,1,0,389;                                                 0000379P0000199
120,385,387,0.,1.570796327;                                      0000381P0000200
124,-4.736951572E-15,-1.,0.,17.,-0.,0.,-1.,-140.,-1.,            0000383P0000201
4.736951572E-15,0.,-17.;                                         0000383P0000202
110,0.,0.,1.,0.,0.,0.;                                           0000385P0000203
110,1.5,0.,-700.,1.5,0.,-140.;                                   0000387P0000204
142,0,381,391,401,3;                                             0000389P0000205
102,4,393,395,397,399;                                           0000391P0000206
110,-2.220446049E-16,1.776356839E-15,0.,1.,1.261213356E-13,0.;   0000393P0000207
110,1.,1.261213356E-13,0.,1.,1.570796327,0.;                     0000395P0000208
110,1.,1.570796327,0.,-2.220446049E-16,1.570796327,0.;           0000397P0000209
110,-1.868500981E-18,1.570796327,0.,-2.491334641E-18,            0000399P0000210
1.776356839E-15,0.;                                              0000399P0000211
102,4,403,405,409,411;                                           0000401P0000212
110,17.,560.,-18.5,17.,0.,-18.5;                                 0000403P0000213
100,0.,0.,0.,1.5,0.,-1.421085472E-14,1.5;                        0000405P0000214
124,-4.736951572E-15,1.,0.,17.,-0.,0.,-1.,0.,-1.,                0000407P0000215
-4.736951572E-15,0.,-17.;                                        0000407P0000216
110,18.5,0.,-17.,18.5,560.,-17.;                                 0000409P0000217
100,0.,0.,0.,-1.421085472E-14,-1.5,1.5,0.;                       0000411P0000218
124,-4.736951572E-15,-1.,0.,17.,-0.,0.,1.,560.,-1.,              0000413P0000219
4.736951572E-15,0.,-17.;                                         0000413P0000220
144,417,1,2,419,431,447;                                         0000415P0000221
108,-0.,-0.,1.,-18.5,0,-17.,-140.,-18.5,0.;                      0000417P0000222
142,0,417,0,421,2;                                               0000419P0000223
102,4,423,425,427,429;                                           0000421P0000224
110,-17.,560.,-18.5,-17.,0.,-18.5;                               0000423P0000225
110,-17.,0.,-18.5,17.,0.,-18.5;                                  0000425P0000226
110,17.,0.,-18.5,17.,560.,-18.5;                                 0000427P0000227
110,17.,560.,-18.5,-17.,560.,-18.5;                              0000429P0000228
142,0,417,0,433,2;                                               0000431P0000229
102,6,435,437,439,441,443,445;                                   0000433P0000230
110,7.4,538.6,-18.5,3.72,532.2,-18.5;                            0000435P0000231
110,3.72,532.2,-18.5,-3.71,532.2,-18.5;                          0000437P0000232
110,-3.71,532.2,-18.5,-7.4,538.6,-18.5;                          0000439P0000233
110,-7.4,538.6,-18.5,-3.71,545.,-18.5;                           0000441P0000234
110,-3.71,545.,-18.5,3.72,545.,-18.5;                            0000443P0000235
110,3.72,545.,-18.5,7.4,538.6,-18.5;                             0000445P0000236
142,0,417,0,449,2;                                               0000447P0000237
102,6,451,453,455,457,459,461;                                   0000449P0000238
110,-3.71,27.8,-18.5,3.72,27.8,-18.5;                            0000451P0000239
110,3.72,27.8,-18.5,7.4,21.4,-18.5;                              0000453P0000240
110,7.4,21.4,-18.5,3.72,15.,-18.5;                               0000455P0000241
110,3.72,15.,-18.5,-3.71,15.,-18.5;                              0000457P0000242
110,-3.71,15.,-18.5,-7.4,21.4,-18.5;                             0000459P0000243
110,-7.4,21.4,-18.5,-3.71,27.8,-18.5;                            0000461P0000244
144,465,1,0,473;                                                 0000463P0000245
120,469,471,0.,1.570796327;                                      0000465P0000246
124,-1.,4.736951572E-15,0.,-17.,0.,0.,-1.,-140.,4.736951572E-15, 0000467P0000247
1.,0.,-17.;                                                      0000467P0000248
110,0.,0.,1.,0.,0.,0.;                                           0000469P0000249
110,1.5,0.,-700.,1.5,0.,-140.;                                   0000471P0000250
142,0,465,475,485,3;                                             0000473P0000251
102,4,477,479,481,483;                                           0000475P0000252
110,-2.220446049E-16,1.776356839E-15,0.,1.,1.261213356E-13,0.;   0000477P0000253
110,1.,1.261213356E-13,0.,1.,1.570796327,0.;                     0000479P0000254
110,1.,1.570796327,0.,-2.220446049E-16,1.570796327,0.;           0000481P0000255
110,-1.868500981E-18,1.570796327,0.,-2.491334641E-18,            0000483P0000256
1.776356839E-15,0.;                                              0000483P0000257
102,4,487,489,493,495;                                           0000485P0000258
110,-18.5,560.,-17.,-18.5,0.,-17.;                               0000487P0000259
100,0.,0.,0.,1.5,0.,-1.421085472E-14,1.5;                        0000489P0000260
124,-1.,-4.736951572E-15,0.,-17.,0.,-0.,-1.,0.,4.736951572E-15,  0000491P0000261
-1.,0.,-17.;                                                     0000491P0000262
110,-17.,0.,-18.5,-17.,560.,-18.5;                               0000493P0000263
100,0.,0.,0.,-1.421085472E-14,-1.5,1.5,0.;                       0000495P0000264
124,-1.,4.736951572E-15,0.,-17.,0.,0.,1.,560.,4.736951572E-15,   0000497P0000265
1.,0.,-17.;                                                      0000497P0000266
144,501,1,0,503;                                                 0000499P0000267
108,1.,-0.,-0.,-18.5,0,-18.5,-140.,17.,0.;                       0000501P0000268
142,0,501,0,505,2;                                               0000503P0000269
102,4,507,509,511,513;                                           0000505P0000270
110,-18.5,0.,17.,-18.5,0.,-17.;                                  0000507P0000271
110,-18.5,0.,-17.,-18.5,560.,-17.;                               0000509P0000272
110,-18.5,560.,-17.,-18.5,560.,17.;                              0000511P0000273
110,-18.5,560.,17.,-18.5,0.,17.;                                 0000513P0000274
144,517,1,0,525;                                                 0000515P0000275
120,521,523,0.,1.570796327;                                      0000517P0000276
124,4.736951572E-15,1.,0.,-17.,0.,0.,-1.,-140.,1.,               0000519P0000277
-4.736951572E-15,0.,17.;                                         0000519P0000278
110,0.,0.,1.,0.,0.,0.;                                           0000521P0000279
110,1.5,0.,-700.,1.5,0.,-140.;                                   0000523P0000280
142,0,517,527,537,3;                                             0000525P0000281
102,4,529,531,533,535;                                           0000527P0000282
110,-2.220446049E-16,1.776356839E-15,0.,1.,1.261213356E-13,0.;   0000529P0000283
110,1.,1.261213356E-13,0.,1.,1.570796327,0.;                     0000531P0000284
110,1.,1.570796327,0.,-2.220446049E-16,1.570796327,0.;           0000533P0000285
110,-1.868500981E-18,1.570796327,0.,-2.491334641E-18,            0000535P0000286
1.776356839E-15,0.;                                              0000535P0000287
102,4,539,541,545,547;                                           0000537P0000288
110,-17.,560.,18.5,-17.,0.,18.5;                                 0000539P0000289
100,0.,0.,0.,1.5,0.,-1.421085472E-14,1.5;                        0000541P0000290
124,4.736951572E-15,-1.,0.,-17.,0.,0.,-1.,0.,1.,4.736951572E-15, 0000543P0000291
0.,17.;                                                          0000543P0000292
110,-18.5,0.,17.,-18.5,560.,17.;                                 0000545P0000293
100,0.,0.,0.,-1.421085472E-14,-1.5,1.5,0.;                       0000547P0000294
124,4.736951572E-15,1.,0.,-17.,0.,0.,1.,560.,1.,                 0000549P0000295
-4.736951572E-15,0.,17.;                                         0000549P0000296
144,553,1,0,555;                                                 0000551P0000297
108,-0.,0.,-1.,-18.5,0,17.,-140.,18.5,0.;                        0000553P0000298
142,0,553,0,557,2;                                               0000555P0000299
102,4,559,561,563,565;                                           0000557P0000300
110,17.,0.,18.5,-17.,0.,18.5;                                    0000559P0000301
110,-17.,0.,18.5,-17.,560.,18.5;                                 0000561P0000302
110,-17.,560.,18.5,17.,560.,18.5;                                0000563P0000303
110,17.,560.,18.5,17.,0.,18.5;                                   0000565P0000304
144,569,1,0,577;                                                 0000567P0000305
120,573,575,0.,1.570796327;                                      0000569P0000306
124,1.,-4.736951572E-15,0.,17.,0.,-0.,-1.,-140.,                 0000571P0000307
-4.736951572E-15,-1.,0.,17.;                                     0000571P0000308
110,0.,0.,1.,0.,0.,0.;                                           0000573P0000309
110,1.5,0.,-700.,1.5,0.,-140.;                                   0000575P0000310
142,0,569,579,589,3;                                             0000577P0000311
102,4,581,583,585,587;                                           0000579P0000312
110,-2.220446049E-16,1.776356839E-15,0.,1.,1.261213356E-13,0.;   0000581P0000313
110,1.,1.261213356E-13,0.,1.,1.570796327,0.;                     0000583P0000314
110,1.,1.570796327,0.,-2.220446049E-16,1.570796327,0.;           0000585P0000315
110,-1.868500981E-18,1.570796327,0.,-2.491334641E-18,            0000587P0000316
1.776356839E-15,0.;                                              0000587P0000317
102,4,591,593,597,599;                                           0000589P0000318
110,18.5,560.,17.,18.5,0.,17.;                                   0000591P0000319
100,0.,0.,0.,1.5,0.,-1.421085472E-14,1.5;                        0000593P0000320
124,1.,4.736951572E-15,0.,17.,0.,0.,-1.,0.,-4.736951572E-15,1.,  0000595P0000321
0.,17.;                                                          0000595P0000322
110,17.,0.,18.5,17.,560.,18.5;                                   0000597P0000323
100,0.,0.,0.,-1.421085472E-14,-1.5,1.5,0.;                       0000599P0000324
124,1.,-4.736951572E-15,0.,17.,0.,-0.,1.,560.,-4.736951572E-15,  0000601P0000325
-1.,0.,17.;                                                      0000601P0000326
144,605,1,0,607;                                                 0000603P0000327
108,0.,1.,0.,532.2,0,-3.71,532.2,-25.,0.;                        0000605P0000328
142,0,605,0,609,2;                                               0000607P0000329
102,4,611,613,615,617;                                           0000609P0000330
110,3.72,532.2,-20.,-3.71,532.2,-20.;                            0000611P0000331
110,-3.71,532.2,-20.,-3.71,532.2,-18.5;                          0000613P0000332
110,-3.71,532.2,-18.5,3.72,532.2,-18.5;                          0000615P0000333
110,3.72,532.2,-18.5,3.72,532.2,-20.;                            0000617P0000334
144,621,1,0,623;                                                 0000619P0000335
108,0.866320767,0.499488067,-0.,262.613499247,0,-7.4,538.6,-25., 0000621P0000336
0.;                                                              0000621P0000337
142,0,621,0,625,2;                                               0000623P0000338
102,4,627,629,631,633;                                           0000625P0000339
110,-3.71,532.2,-20.,-7.4,538.6,-20.;                            0000627P0000340
110,-7.4,538.6,-20.,-7.4,538.6,-18.5;                            0000629P0000341
110,-7.4,538.6,-18.5,-3.71,532.2,-18.5;                          0000631P0000342
110,-3.71,532.2,-18.5,-3.71,532.2,-20.;                          0000633P0000343
144,637,1,0,639;                                                 0000635P0000344
108,0.866320767,-0.499488067,0.,-275.435046595,0,-3.71,545.,     0000637P0000345
-25.,0.;                                                         0000637P0000346
142,0,637,0,641,2;                                               0000639P0000347
102,4,643,645,647,649;                                           0000641P0000348
110,-7.4,538.6,-20.,-3.71,545.,-20.;                             0000643P0000349
110,-3.71,545.,-20.,-3.71,545.,-18.5;                            0000645P0000350
110,-3.71,545.,-18.5,-7.4,538.6,-18.5;                           0000647P0000351
110,-7.4,538.6,-18.5,-7.4,538.6,-20.;                            0000649P0000352
144,653,1,0,655;                                                 0000651P0000353
108,0.,-1.,0.,-545.,0,3.72,545.,-25.,0.;                         0000653P0000354
142,0,653,0,657,2;                                               0000655P0000355
102,4,659,661,663,665;                                           0000657P0000356
110,-3.71,545.,-20.,3.72,545.,-20.;                              0000659P0000357
110,3.72,545.,-20.,3.72,545.,-18.5;                              0000661P0000358
110,3.72,545.,-18.5,-3.71,545.,-18.5;                            0000663P0000359
110,-3.71,545.,-18.5,-3.71,545.,-20.;                            0000665P0000360
144,669,1,0,671;                                                 0000667P0000361
108,-0.866906303,-0.498471124,0.,-274.891654168,0,7.4,538.6,     0000669P0000362
-25.,0.;                                                         0000669P0000363
142,0,669,0,673,2;                                               0000671P0000364
102,4,675,677,679,681;                                           0000673P0000365
110,3.72,545.,-20.,7.4,538.6,-20.;                               0000675P0000366
110,7.4,538.6,-20.,7.4,538.6,-18.5;                              0000677P0000367
110,7.4,538.6,-18.5,3.72,545.,-18.5;                             0000679P0000368
110,3.72,545.,-18.5,3.72,545.,-20.;                              0000681P0000369
144,685,1,0,687;                                                 0000683P0000370
108,-0.866906303,0.498471124,0.,262.061440883,0,3.72,532.2,-25., 0000685P0000371
0.;                                                              0000685P0000372
142,0,685,0,689,2;                                               0000687P0000373
102,4,691,693,695,697;                                           0000689P0000374
110,7.4,538.6,-20.,3.72,532.2,-20.;                              0000691P0000375
110,3.72,532.2,-20.,3.72,532.2,-18.5;                            0000693P0000376
110,3.72,532.2,-18.5,7.4,538.6,-18.5;                            0000695P0000377
110,7.4,538.6,-18.5,7.4,538.6,-20.;                              0000697P0000378
144,701,1,0,703;                                                 0000699P0000379
108,0.,1.,0.,15.,0,-3.71,15.,-25.,0.;                            0000701P0000380
142,0,701,0,705,2;                                               0000703P0000381
102,4,707,709,711,713;                                           0000705P0000382
110,3.72,15.,-20.,-3.71,15.,-20.;                                0000707P0000383
110,-3.71,15.,-20.,-3.71,15.,-18.5;                              0000709P0000384
110,-3.71,15.,-18.5,3.72,15.,-18.5;                              0000711P0000385
110,3.72,15.,-18.5,3.72,15.,-20.;                                0000713P0000386
144,717,1,0,719;                                                 0000715P0000387
108,0.866320767,0.499488067,-0.,4.278270961,0,-7.4,21.4,-25.,0.; 0000717P0000388
142,0,717,0,721,2;                                               0000719P0000389
102,4,723,725,727,729;                                           0000721P0000390
110,-3.71,15.,-20.,-7.4,21.4,-20.;                               0000723P0000391
110,-7.4,21.4,-20.,-7.4,21.4,-18.5;                              0000725P0000392
110,-7.4,21.4,-18.5,-3.71,15.,-18.5;                             0000727P0000393
110,-3.71,15.,-18.5,-3.71,15.,-20.;                              0000729P0000394
144,733,1,0,735;                                                 0000731P0000395
108,-0.866906303,0.498471124,0.,4.252175416,0,3.72,15.,-25.,0.;  0000733P0000396
142,0,733,0,737,2;                                               0000735P0000397
102,4,739,741,743,745;                                           0000737P0000398
110,7.4,21.4,-20.,3.72,15.,-20.;                                 0000739P0000399
110,3.72,15.,-20.,3.72,15.,-18.5;                                0000741P0000400
110,3.72,15.,-18.5,7.4,21.4,-18.5;                               0000743P0000401
110,7.4,21.4,-18.5,7.4,21.4,-20.;                                0000745P0000402
144,749,1,0,751;                                                 0000747P0000403
108,0.866320767,-0.499488067,0.,-17.099818309,0,-3.71,27.8,-25., 0000749P0000404
0.;                                                              0000749P0000405
142,0,749,0,753,2;                                               0000751P0000406
102,4,755,757,759,761;                                           0000753P0000407
110,-7.4,21.4,-20.,-3.71,27.8,-20.;                              0000755P0000408
110,-3.71,27.8,-20.,-3.71,27.8,-18.5;                            0000757P0000409
110,-3.71,27.8,-18.5,-7.4,21.4,-18.5;                            0000759P0000410
110,-7.4,21.4,-18.5,-7.4,21.4,-20.;                              0000761P0000411
144,765,1,0,767;                                                 0000763P0000412
108,-0.866906303,-0.498471124,0.,-17.082388702,0,7.4,21.4,-25.,  0000765P0000413
0.;                                                              0000765P0000414
142,0,765,0,769,2;                                               0000767P0000415
102,4,771,773,775,777;                                           0000769P0000416
110,3.72,27.8,-20.,7.4,21.4,-20.;                                0000771P0000417
110,7.4,21.4,-20.,7.4,21.4,-18.5;                                0000773P0000418
110,7.4,21.4,-18.5,3.72,27.8,-18.5;                              0000775P0000419
110,3.72,27.8,-18.5,3.72,27.8,-20.;                              0000777P0000420
144,781,1,0,783;                                                 0000779P0000421
108,0.,-1.,0.,-27.8,0,3.72,27.8,-25.,0.;                         0000781P0000422
142,0,781,0,785,2;                                               0000783P0000423
102,4,787,789,791,793;                                           0000785P0000424
110,-3.71,27.8,-20.,3.72,27.8,-20.;                              0000787P0000425
110,3.72,27.8,-20.,3.72,27.8,-18.5;                              0000789P0000426
110,3.72,27.8,-18.5,-3.71,27.8,-18.5;                            0000791P0000427
110,-3.71,27.8,-18.5,-3.71,27.8,-20.;                            0000793P0000428
S      1G      4D    794P    428                                        T0000001
