                                                                        S0000001
,,31HOpen CASCADE IGES processor 8.0,13HFilename.iges,                  G0000001
16HOpen CASCADE 8.0,31HOpen CASCADE IGES processor 8.0,32,308,15,308,15,G0000002
,1.,2,2HMM,1,0.01,15H20261008.060937,1.33334E-07,572.5,4Hroot,,11,0,    G0000003
15H20261008.060937,;                                                    G0000004
     402       1       0       0       0       0       0       000000000D0000001
     402       0       0       2       1                               0D0000002
     144       3       0       0       0       0       0       000020000D0000003
     144       0       0       1       0                               0D0000004
     108       4       0       0       0       0       0       000010000D0000005
     108       0       0       1       0                               0D0000006
     142       5       0       0       0       0       0       000010500D0000007
     142       0       0       1       0                               0D0000008
     102       6       0       0       0       0       0       000010000D0000009
     102       0       0       1       0                               0D0000010
     110       7       0       0       0       0       0       000010000D0000011
     110       0       0       1       0                               0D0000012
     110       8       0       0       0       0       0       000010000D0000013
     110       0       0       1       0                               0D0000014
     110       9       0       0       0       0       0       000010000D0000015
     110       0       0       1       0                               0D0000016
     110      10       0       0       0       0       0       000010000D0000017
     110       0       0       1       0                               0D0000018
     144      11       0       0       0       0       0       000020000D0000019
     144       0       0       1       0                               0D0000020
     120      12       0       0       0       0      23       000010000D0000021
     120       0       0       1       0                               0D0000022
     124      13       0       0       0       0       0       000000000D0000023
     124       0       0       2       0                               0D0000024
     110      15       0       0       0       0       0       000010000D0000025
     110       0       0       1       0                               0D0000026
     110      16       0       0       0       0       0       000010000D0000027
     110       0       0       1       0                               0D0000028
     142      17       0       0       0       0       0       000010500D0000029
     142       0       0       1       0                               0D0000030
     102      18       0       0       0       0       0       000010000D0000031
     102       0       0       1       0                               0D0000032
     126      19       0       0       0       0       0       000010000D0000033
     126       0       0      10       0                               0D0000034
     110      29       0       0       0       0       0       000010000D0000035
     110       0       0       1       0                               0D0000036
     126      30       0       0       0       0       0       000010000D0000037
     126       0       0      10       0                               0D0000038
     110      40       0       0       0       0       0       000010000D0000039
     110       0       0       1       0                               0D0000040
     102      41       0       0       0       0       0       000010000D0000041
     102       0       0       1       0                               0D0000042
     104      42       0       0       0       0      45       000010000D0000043
     104       0       0       2       1                               0D0000044
     124      44       0       0       0       0       0       000000000D0000045
     124       0       0       2       0                               0D0000046
     110      46       0       0       0       0       0       000010000D0000047
     110       0       0       1       0                               0D0000048
     104      47       0       0       0       0      51       000010000D0000049
     104       0       0       2       1                               0D0000050
     124      49       0       0       0       0       0       000000000D0000051
     124       0       0       2       0                               0D0000052
     110      51       0       0       0       0       0       000010000D0000053
     110       0       0       1       0                               0D0000054
     144      52       0       0       0       0       0       000020000D0000055
     144       0       0       1       0                               0D0000056
     108      53       0       0       0       0       0       000010000D0000057
     108       0       0       2       0                               0D0000058
     142      55       0       0       0       0       0       000010500D0000059
     142       0       0       1       0                               0D0000060
     102      56       0       0       0       0       0       000010000D0000061
     102       0       0       1       0                               0D0000062
     104      57       0       0       0       0      65       000010000D0000063
     104       0       0       2       1                               0D0000064
     124      59       0       0       0       0       0       000000000D0000065
     124       0       0       2       0                               0D0000066
     110      61       0       0       0       0       0       000010000D0000067
     110       0       0       1       0                               0D0000068
     104      62       0       0       0       0      71       000010000D0000069
     104       0       0       2       1                               0D0000070
     124      64       0       0       0       0       0       000000000D0000071
     124       0       0       2       0                               0D0000072
     110      66       0       0       0       0       0       000010000D0000073
     110       0       0       1       0                               0D0000074
     104      67       0       0       0       0      77       000010000D0000075
     104       0       0       2       1                               0D0000076
     124      69       0       0       0       0       0       000000000D0000077
     124       0       0       2       0                               0D0000078
     110      71       0       0       0       0       0       000010000D0000079
     110       0       0       1       0                               0D0000080
     104      72       0       0       0       0      83       000010000D0000081
     104       0       0       2       1                               0D0000082
     124      74       0       0       0       0       0       000000000D0000083
     124       0       0       2       0                               0D0000084
     110      76       0       0       0       0       0       000010000D0000085
     110       0       0       1       0                               0D0000086
     142      77       0       0       0       0       0       000010500D0000087
     142       0       0       1       0                               0D0000088
     102      78       0       0       0       0       0       000010000D0000089
     102       0       0       1       0                               0D0000090
     110      79       0       0       0       0       0       000010000D0000091
     110       0       0       1       0                               0D0000092
     104      80       0       0       0       0      95       000010000D0000093
     104       0       0       2       1                               0D0000094
     124      82       0       0       0       0       0       000000000D0000095
     124       0       0       2       0                               0D0000096
     110      84       0       0       0       0       0       000010000D0000097
     110       0       0       1       0                               0D0000098
     104      85       0       0       0       0     101       000010000D0000099
     104       0       0       2       1                               0D0000100
     124      87       0       0       0       0       0       000000000D0000101
     124       0       0       2       0                               0D0000102
     110      89       0       0       0       0       0       000010000D0000103
     110       0       0       1       0                               0D0000104
     104      90       0       0       0       0     107       000010000D0000105
     104       0       0       2       1                               0D0000106
     124      92       0       0       0       0       0       000000000D0000107
     124       0       0       2       0                               0D0000108
     110      94       0       0       0       0       0       000010000D0000109
     110       0       0       1       0                               0D0000110
     104      95       0       0       0       0     113       000010000D0000111
     104       0       0       2       1                               0D0000112
     124      97       0       0       0       0       0       000000000D0000113
     124       0       0       2       0                               0D0000114
     144      99       0       0       0       0       0       000020000D0000115
     144       0       0       1       0                               0D0000116
     120     100       0       0       0       0     119       000010000D0000117
     120       0       0       1       0                               0D0000118
     124     101       0       0       0       0       0       000000000D0000119
     124       0       0       2       0                               0D0000120
     110     103       0       0       0       0       0       000010000D0000121
     110       0       0       1       0                               0D0000122
     110     104       0       0       0       0       0       000010000D0000123
     110       0       0       1       0                               0D0000124
     142     105       0       0       0       0       0       000010500D0000125
     142       0       0       1       0                               0D0000126
     102     106       0       0       0       0       0       000010000D0000127
     102       0       0       1       0                               0D0000128
     126     107       0       0       0       0       0       000010000D0000129
     126       0       0       9       0                               0D0000130
     110     116       0       0       0       0       0       000010000D0000131
     110       0       0       1       0                               0D0000132
     126     117       0       0       0       0       0       000010000D0000133
     126       0       0      10       0                               0D0000134
     110     127       0       0       0       0       0       000010000D0000135
     110       0       0       1       0                               0D0000136
     102     128       0       0       0       0       0       000010000D0000137
     102       0       0       1       0                               0D0000138
     104     129       0       0       0       0     141       000010000D0000139
     104       0       0       2       1                               0D0000140
     124     131       0       0       0       0       0       000000000D0000141
     124       0       0       2       0                               0D0000142
     110     133       0       0       0       0       0       000010000D0000143
     110       0       0       1       0                               0D0000144
     104     134       0       0       0       0     147       000010000D0000145
     104       0       0       2       1                               0D0000146
     124     136       0       0       0       0       0       000000000D0000147
     124       0       0       2       0                               0D0000148
     110     138       0       0       0       0       0       000010000D0000149
     110       0       0       1       0                               0D0000150
     144     139       0       0       0       0       0       000020000D0000151
     144       0       0       1       0                               0D0000152
     108     140       0       0       0       0       0       000010000D0000153
     108       0       0       2       0                               0D0000154
     142     142       0       0       0       0       0       000010500D0000155
     142       0       0       1       0                               0D0000156
     102     143       0       0       0       0       0       000010000D0000157
     102       0       0       1       0                               0D0000158
     104     144       0       0       0       0     161       000010000D0000159
     104       0       0       2       1                               0D0000160
     124     146       0       0       0       0       0       000000000D0000161
     124       0       0       2       0                               0D0000162
     110     148       0       0       0       0       0       000010000D0000163
     110       0       0       1       0                               0D0000164
     104     149       0       0       0       0     167       000010000D0000165
     104       0       0       2       1                               0D0000166
     124     151       0       0       0       0       0       000000000D0000167
     124       0       0       2       0                               0D0000168
     110     153       0       0       0       0       0       000010000D0000169
     110       0       0       1       0                               0D0000170
     104     154       0       0       0       0     173       000010000D0000171
     104       0       0       2       1                               0D0000172
     124     156       0       0       0       0       0       000000000D0000173
     124       0       0       2       0                               0D0000174
     110     158       0       0       0       0       0       000010000D0000175
     110       0       0       1       0                               0D0000176
     104     159       0       0       0       0     179       000010000D0000177
     104       0       0       2       1                               0D0000178
     124     161       0       0       0       0       0       000000000D0000179
     124       0       0       2       0                               0D0000180
     110     163       0       0       0       0       0       000010000D0000181
     110       0       0       1       0                               0D0000182
     142     164       0       0       0       0       0       000010500D0000183
     142       0       0       1       0                               0D0000184
     102     165       0       0       0       0       0       000010000D0000185
     102       0       0       1       0                               0D0000186
     110     166       0       0       0       0       0       000010000D0000187
     110       0       0       1       0                               0D0000188
     104     167       0       0       0       0     191       000010000D0000189
     104       0       0       2       1                               0D0000190
     124     169       0       0       0       0       0       000000000D0000191
     124       0       0       2       0                               0D0000192
     110     171       0       0       0       0       0       000010000D0000193
     110       0       0       1       0                               0D0000194
     104     172       0       0       0       0     197       000010000D0000195
     104       0       0       2       1                               0D0000196
     124     174       0       0       0       0       0       000000000D0000197
     124       0       0       2       0                               0D0000198
     110     176       0       0       0       0       0       000010000D0000199
     110       0       0       1       0                               0D0000200
     104     177       0       0       0       0     203       000010000D0000201
     104       0       0       2       1                               0D0000202
     124     179       0       0       0       0       0       000000000D0000203
     124       0       0       2       0                               0D0000204
     110     181       0       0       0       0       0       000010000D0000205
     110       0       0       1       0                               0D0000206
     104     182       0       0       0       0     209       000010000D0000207
     104       0       0       2       1                               0D0000208
     124     184       0       0       0       0       0       000000000D0000209
     124       0       0       2       0                               0D0000210
     144     186       0       0       0       0       0       000020000D0000211
     144       0       0       1       0                               0D0000212
     108     187       0       0       0       0       0       000010000D0000213
     108       0       0       1       0                               0D0000214
     142     188       0       0       0       0       0       000010500D0000215
     142       0       0       1       0                               0D0000216
     102     189       0       0       0       0       0       000010000D0000217
     102       0       0       1       0                               0D0000218
     110     190       0       0       0       0       0       000010000D0000219
     110       0       0       1       0                               0D0000220
     110     191       0       0       0       0       0       000010000D0000221
     110       0       0       1       0                               0D0000222
     110     192       0       0       0       0       0       000010000D0000223
     110       0       0       1       0                               0D0000224
     110     193       0       0       0       0       0       000010000D0000225
     110       0       0       1       0                               0D0000226
     144     194       0       0       0       0       0       000020000D0000227
     144       0       0       1       0                               0D0000228
     120     195       0       0       0       0     231       000010000D0000229
     120       0       0       1       0                               0D0000230
     124     196       0       0       0       0       0       000000000D0000231
     124       0       0       2       0                               0D0000232
     110     198       0       0       0       0       0       000010000D0000233
     110       0       0       1       0                               0D0000234
     110     199       0       0       0       0       0       000010000D0000235
     110       0       0       1       0                               0D0000236
     142     200       0       0       0       0       0       000010500D0000237
     142       0       0       1       0                               0D0000238
     102     201       0       0       0       0       0       000010000D0000239
     102       0       0       1       0                               0D0000240
     126     202       0       0       0       0       0       000010000D0000241
     126       0       0       9       0                               0D0000242
     110     211       0       0       0       0       0       000010000D0000243
     110       0       0       1       0                               0D0000244
     126     212       0       0       0       0       0       000010000D0000245
     126       0       0      10       0                               0D0000246
     110     222       0       0       0       0       0       000010000D0000247
     110       0       0       1       0                               0D0000248
     102     223       0       0       0       0       0       000010000D0000249
     102       0       0       1       0                               0D0000250
     104     224       0       0       0       0     253       000010000D0000251
     104       0       0       2       1                               0D0000252
     124     226       0       0       0       0       0       000000000D0000253
     124       0       0       2       0                               0D0000254
     110     228       0       0       0       0       0       000010000D0000255
     110       0       0       1       0                               0D0000256
     104     229       0       0       0       0     259       000010000D0000257
     104       0       0       2       1                               0D0000258
     124     231       0       0       0       0       0       000000000D0000259
     124       0       0       2       0                               0D0000260
     110     233       0       0       0       0       0       000010000D0000261
     110       0       0       1       0                               0D0000262
     144     234       0       0       0       0       0       000020000D0000263
     144       0       0       1       0                               0D0000264
     108     235       0       0       0       0       0       000010000D0000265
     108       0       0       1       0                               0D0000266
     142     236       0       0       0       0       0       000010500D0000267
     142       0       0       1       0                               0D0000268
     102     237       0       0       0       0       0       000010000D0000269
     102       0       0       1       0                               0D0000270
     110     238       0       0       0       0       0       000010000D0000271
     110       0       0       1       0                               0D0000272
     110     239       0       0       0       0       0       000010000D0000273
     110       0       0       1       0                               0D0000274
     110     240       0       0       0       0       0       000010000D0000275
     110       0       0       1       0                               0D0000276
     110     241       0       0       0       0       0       000010000D0000277
     110       0       0       1       0                               0D0000278
     144     242       0       0       0       0       0       000020000D0000279
     144       0       0       1       0                               0D0000280
     120     243       0       0       0       0     283       000010000D0000281
     120       0       0       1       0                               0D0000282
     124     244       0       0       0       0       0       000000000D0000283
     124       0       0       2       0                               0D0000284
     110     246       0       0       0       0       0       000010000D0000285
     110       0       0       1       0                               0D0000286
     110     247       0       0       0       0       0       000010000D0000287
     110       0       0       1       0                               0D0000288
     142     248       0       0       0       0       0       000010500D0000289
     142       0       0       1       0                               0D0000290
     102     249       0       0       0       0       0       000010000D0000291
     102       0       0       1       0                               0D0000292
     126     250       0       0       0       0       0       000010000D0000293
     126       0       0       9       0                               0D0000294
     110     259       0       0       0       0       0       000010000D0000295
     110       0       0       1       0                               0D0000296
     126     260       0       0       0       0       0       000010000D0000297
     126       0       0      10       0                               0D0000298
     110     270       0       0       0       0       0       000010000D0000299
     110       0       0       1       0                               0D0000300
     102     271       0       0       0       0       0       000010000D0000301
     102       0       0       1       0                               0D0000302
     104     272       0       0       0       0     305       000010000D0000303
     104       0       0       2       1                               0D0000304
     124     274       0       0       0       0       0       000000000D0000305
     124       0       0       2       0                               0D0000306
     110     276       0       0       0       0       0       000010000D0000307
     110       0       0       1       0                               0D0000308
     104     277       0       0       0       0     311       000010000D0000309
     104       0       0       2       1                               0D0000310
     124     279       0       0       0       0       0       000000000D0000311
     124       0       0       2       0                               0D0000312
     110     281       0       0       0       0       0       000010000D0000313
     110       0       0       1       0                               0D0000314
     144     282       0       0       0       0       0       000020000D0000315
     144       0       0       1       0                               0D0000316
     108     283       0       0       0       0       0       000010000D0000317
     108       0       0       1       0                               0D0000318
     142     284       0       0       0       0       0       000010500D0000319
     142       0       0       1       0                               0D0000320
     102     285       0       0       0       0       0       000010000D0000321
     102       0       0       1       0                               0D0000322
     110     286       0       0       0       0       0       000010000D0000323
     110       0       0       1       0                               0D0000324
     110     287       0       0       0       0       0       000010000D0000325
     110       0       0       1       0                               0D0000326
     110     288       0       0       0       0       0       000010000D0000327
     110       0       0       1       0                               0D0000328
     110     289       0       0       0       0       0       000010000D0000329
     110       0       0       1       0                               0D0000330
     144     290       0       0       0       0       0       000020000D0000331
     144       0       0       1       0                               0D0000332
     120     291       0       0       0       0     335       000010000D0000333
     120       0       0       1       0                               0D0000334
     124     292       0       0       0       0       0       000000000D0000335
     124       0       0       2       1                               0D0000336
     110     294       0       0       0       0       0       000010000D0000337
     110       0       0       1       0                               0D0000338
     110     295       0       0       0       0       0       000010000D0000339
     110       0       0       1       0                               0D0000340
     142     296       0       0       0       0       0       000010500D0000341
     142       0       0       1       0                               0D0000342
     102     297       0       0       0       0       0       000010000D0000343
     102       0       0       1       0                               0D0000344
     110     298       0       0       0       0       0       000010000D0000345
     110       0       0       1       0                               0D0000346
     126     299       0       0       0       0       0       000010000D0000347
     126       0       0       9       0                               0D0000348
     110     308       0       0       0       0       0       000010000D0000349
     110       0       0       1       0                               0D0000350
     126     309       0       0       0       0       0       000010000D0000351
     126       0       0       9       0                               0D0000352
     102     318       0       0       0       0       0       000010000D0000353
     102       0       0       1       0                               0D0000354
     110     319       0       0       0       0       0       000010000D0000355
     110       0       0       1       0                               0D0000356
     104     320       0       0       0       0     359       000010000D0000357
     104       0       0       2       1                               0D0000358
     124     322       0       0       0       0       0       000000000D0000359
     124       0       0       2       0                               0D0000360
     110     324       0       0       0       0       0       000010000D0000361
     110       0       0       1       0                               0D0000362
     104     325       0       0       0       0     365       000010000D0000363
     104       0       0       2       1                               0D0000364
     124     327       0       0       0       0       0       000000000D0000365
     124       0       0       2       0                               0D0000366
     144     329       0       0       0       0       0       000020000D0000367
     144       0       0       1       0                               0D0000368
     108     330       0       0       0       0       0       000010000D0000369
     108       0       0       1       0                               0D0000370
     142     331       0       0       0       0       0       000010500D0000371
     142       0       0       1       0                               0D0000372
     102     332       0       0       0       0       0       000010000D0000373
     102       0       0       1       0                               0D0000374
     110     333       0       0       0       0       0       000010000D0000375
     110       0       0       1       0                               0D0000376
     110     334       0       0       0       0       0       000010000D0000377
     110       0       0       1       0                               0D0000378
     110     335       0       0       0       0       0       000010000D0000379
     110       0       0       1       0                               0D0000380
     110     336       0       0       0       0       0       000010000D0000381
     110       0       0       1       0                               0D0000382
     144     337       0       0       0       0       0       000020000D0000383
     144       0       0       1       0                               0D0000384
     120     338       0       0       0       0     387       000010000D0000385
     120       0       0       1       0                               0D0000386
     124     339       0       0       0       0       0       000000000D0000387
     124       0       0       2       1                               0D0000388
     110     341       0       0       0       0       0       000010000D0000389
     110       0       0       1       0                               0D0000390
     110     342       0       0       0       0       0       000010000D0000391
     110       0       0       1       0                               0D0000392
     142     343       0       0       0       0       0       000010500D0000393
     142       0       0       1       0                               0D0000394
     102     344       0       0       0       0       0       000010000D0000395
     102       0       0       1       0                               0D0000396
     110     345       0       0       0       0       0       000010000D0000397
     110       0       0       2       0                               0D0000398
     126     347       0       0       0       0       0       000010000D0000399
     126       0       0       8       0                               0D0000400
     110     355       0       0       0       0       0       000010000D0000401
     110       0       0       1       0                               0D0000402
     126     356       0       0       0       0       0       000010000D0000403
     126       0       0       9       0                               0D0000404
     102     365       0       0       0       0       0       000010000D0000405
     102       0       0       1       0                               0D0000406
     110     366       0       0       0       0       0       000010000D0000407
     110       0       0       1       0                               0D0000408
     104     367       0       0       0       0     411       000010000D0000409
     104       0       0       2       1                               0D0000410
     124     369       0       0       0       0       0       000000000D0000411
     124       0       0       2       0                               0D0000412
     110     371       0       0       0       0       0       000010000D0000413
     110       0       0       1       0                               0D0000414
     104     372       0       0       0       0     417       000010000D0000415
     104       0       0       2       1                               0D0000416
     124     374       0       0       0       0       0       000000000D0000417
     124       0       0       2       0                               0D0000418
     144     376       0       0       0       0       0       000020000D0000419
     144       0       0       1       0                               0D0000420
     108     377       0       0       0       0       0       000010000D0000421
     108       0       0       1       0                               0D0000422
     142     378       0       0       0       0       0       000010500D0000423
     142       0       0       1       0                               0D0000424
     102     379       0       0       0       0       0       000010000D0000425
     102       0       0       1       0                               0D0000426
     110     380       0       0       0       0       0       000010000D0000427
     110       0       0       1       0                               0D0000428
     110     381       0       0       0       0       0       000010000D0000429
     110       0       0       1       0                               0D0000430
     110     382       0       0       0       0       0       000010000D0000431
     110       0       0       1       0                               0D0000432
     110     383       0       0       0       0       0       000010000D0000433
     110       0       0       1       0                               0D0000434
     144     384       0       0       0       0       0       000020000D0000435
     144       0       0       1       0                               0D0000436
     120     385       0       0       0       0     439       000010000D0000437
     120       0       0       1       0                               0D0000438
     124     386       0       0       0       0       0       000000000D0000439
     124       0       0       2       1                               0D0000440
     110     388       0       0       0       0       0       000010000D0000441
     110       0       0       1       0                               0D0000442
     110     389       0       0       0       0       0       000010000D0000443
     110       0       0       1       0                               0D0000444
     142     390       0       0       0       0       0       000010500D0000445
     142       0       0       1       0                               0D0000446
     102     391       0       0       0       0       0       000010000D0000447
     102       0       0       1       0                               0D0000448
     110     392       0       0       0       0       0       000010000D0000449
     110       0       0       2       0                               0D0000450
     126     394       0       0       0       0       0       000010000D0000451
     126       0       0       9       0                               0D0000452
     110     403       0       0       0       0       0       000010000D0000453
     110       0       0       1       0                               0D0000454
     126     404       0       0       0       0       0       000010000D0000455
     126       0       0       9       0                               0D0000456
     102     413       0       0       0       0       0       000010000D0000457
     102       0       0       1       0                               0D0000458
     110     414       0       0       0       0       0       000010000D0000459
     110       0       0       1       0                               0D0000460
     104     415       0       0       0       0     463       000010000D0000461
     104       0       0       2       1                               0D0000462
     124     417       0       0       0       0       0       000000000D0000463
     124       0       0       2       0                               0D0000464
     110     419       0       0       0       0       0       000010000D0000465
     110       0       0       1       0                               0D0000466
     104     420       0       0       0       0     469       000010000D0000467
     104       0       0       2       1                               0D0000468
     124     422       0       0       0       0       0       000000000D0000469
     124       0       0       2       0                               0D0000470
     144     424       0       0       0       0       0       000020000D0000471
     144       0       0       1       0                               0D0000472
     108     425       0       0       0       0       0       000010000D0000473
     108       0       0       1       0                               0D0000474
     142     426       0       0       0       0       0       000010500D0000475
     142       0       0       1       0                               0D0000476
     102     427       0       0       0       0       0       000010000D0000477
     102       0       0       1       0                               0D0000478
     110     428       0       0       0       0       0       000010000D0000479
     110       0       0       1       0                               0D0000480
     110     429       0       0       0       0       0       000010000D0000481
     110       0       0       1       0                               0D0000482
     110     430       0       0       0       0       0       000010000D0000483
     110       0       0       1       0                               0D0000484
     110     431       0       0       0       0       0       000010000D0000485
     110       0       0       1       0                               0D0000486
     144     432       0       0       0       0       0       000020000D0000487
     144       0       0       1       0                               0D0000488
     120     433       0       0       0       0     491       000010000D0000489
     120       0       0       1       0                               0D0000490
     124     434       0       0       0       0       0       000000000D0000491
     124       0       0       2       1                               0D0000492
     110     436       0       0       0       0       0       000010000D0000493
     110       0       0       1       0                               0D0000494
     110     437       0       0       0       0       0       000010000D0000495
     110       0       0       1       0                               0D0000496
     142     438       0       0       0       0       0       000010500D0000497
     142       0       0       1       0                               0D0000498
     102     439       0       0       0       0       0       000010000D0000499
     102       0       0       1       0                               0D0000500
     110     440       0       0       0       0       0       000010000D0000501
     110       0       0       1       0                               0D0000502
     126     441       0       0       0       0       0       000010000D0000503
     126       0       0       9       0                               0D0000504
     110     450       0       0       0       0       0       000010000D0000505
     110       0       0       1       0                               0D0000506
     126     451       0       0       0       0       0       000010000D0000507
     126       0       0       9       0                               0D0000508
     102     460       0       0       0       0       0       000010000D0000509
     102       0       0       1       0                               0D0000510
     110     461       0       0       0       0       0       000010000D0000511
     110       0       0       1       0                               0D0000512
     104     462       0       0       0       0     515       000010000D0000513
     104       0       0       2       1                               0D0000514
     124     464       0       0       0       0       0       000000000D0000515
     124       0       0       2       0                               0D0000516
     110     466       0       0       0       0       0       000010000D0000517
     110       0       0       1       0                               0D0000518
     104     467       0       0       0       0     521       000010000D0000519
     104       0       0       2       1                               0D0000520
     124     469       0       0       0       0       0       000000000D0000521
     124       0       0       2       0                               0D0000522
     144     471       0       0       0       0       0       000020000D0000523
     144       0       0       1       0                               0D0000524
     108     472       0       0       0       0       0       000010000D0000525
     108       0       0       1       0                               0D0000526
     142     473       0       0       0       0       0       000010500D0000527
     142       0       0       1       0                               0D0000528
     102     474       0       0       0       0       0       000010000D0000529
     102       0       0       1       0                               0D0000530
     110     475       0       0       0       0       0       000010000D0000531
     110       0       0       1       0                               0D0000532
     110     476       0       0       0       0       0       000010000D0000533
     110       0       0       1       0                               0D0000534
     110     477       0       0       0       0       0       000010000D0000535
     110       0       0       1       0                               0D0000536
     110     478       0       0       0       0       0       000010000D0000537
     110       0       0       1       0                               0D0000538
402,18,3,19,55,115,151,211,227,263,279,315,331,367,383,419,435,  0000001P0000001
471,487,523;                                                     0000001P0000002
144,5,1,0,7;                                                     0000003P0000003
108,1.,0.,0.,10.,0,10.,-100.,-7.,0.;                             0000005P0000004
142,0,5,0,9,2;                                                   0000007P0000005
102,4,11,13,15,17;                                               0000009P0000006
110,10.,572.5,7.,10.,3.97903932E-13,7.;                          0000011P0000007
110,10.,6.536993169E-13,7.,10.,6.536993169E-13,-7.;              0000013P0000008
110,10.,3.97903932E-13,-7.,10.,572.5,-7.;                        0000015P0000009
110,10.,572.5,-7.,10.,572.5,7.;                                  0000017P0000010
144,21,1,0,29;                                                   0000019P0000011
120,25,27,4.71238898,6.283185307;                                0000021P0000012
124,1.,-5.921189465E-16,0.,7.,0.,0.,-1.,-100.,5.921189465E-16,   0000023P0000013
1.,0.,7.;                                                        0000023P0000014
110,0.,0.,1.,0.,0.,0.;                                           0000025P0000015
110,3.,0.,-672.5,3.,0.,-100.;                                    0000027P0000016
142,0,21,31,41,3;                                                0000029P0000017
102,4,33,35,37,39;                                               0000031P0000018
126,8,8,1,0,1,0,5.921189465E-16,5.921189465E-16,5.921189465E-16, 0000033P0000019
5.921189465E-16,5.921189465E-16,5.921189465E-16,5.921189465E-16, 0000033P0000020
5.921189465E-16,5.921189465E-16,1.570796327,1.570796327,         0000033P0000021
1.570796327,1.570796327,1.570796327,1.570796327,1.570796327,     0000033P0000022
1.570796327,1.570796327,1.,1.,1.,1.,1.,1.,1.,1.,1.,0.994759825,  0000033P0000023
4.71238898,0.,0.995788731,4.908738521,0.,0.996817637,            0000033P0000024
5.105088062,0.,0.997786096,5.301437603,0.,0.99863367,            0000033P0000025
5.497787144,0.,0.999307343,5.694136685,0.,0.999769114,           0000033P0000026
5.890486225,0.,1.,6.086835766,0.,1.,6.283185307,0.,              0000033P0000027
5.921189465E-16,1.570796327,0.,0.,1.;                            0000033P0000028
110,1.,6.283185307,0.,-2.220446049E-16,6.283185307,0.;           0000035P0000029
126,8,8,1,0,1,0,1.570796327,1.570796327,1.570796327,1.570796327, 0000037P0000030
1.570796327,1.570796327,1.570796327,1.570796327,1.570796327,     0000037P0000031
3.141592654,3.141592654,3.141592654,3.141592654,3.141592654,     0000037P0000032
3.141592654,3.141592654,3.141592654,3.141592654,1.,1.,1.,1.,1.,  0000037P0000033
1.,1.,1.,1.,3.971592584E-16,6.283185307,0.,3.970831041E-16,      0000037P0000034
6.086835766,0.,2.30886166E-04,5.890486225,0.,6.926565207E-04,    0000037P0000035
5.694136685,0.,1.366329705E-03,5.497787144,0.,2.213904303E-03,   0000037P0000036
5.301437603,0.,3.182362649E-03,5.105088062,0.,4.211268782E-03,   0000037P0000037
4.908738521,0.,5.240174672E-03,4.71238898,0.,1.570796327,        0000037P0000038
3.141592654,0.,0.,1.;                                            0000037P0000039
110,5.240174672E-03,4.71238898,0.,0.994759825,4.71238898,0.;     0000039P0000040
102,4,43,47,49,53;                                               0000041P0000041
104,5.555555556E-02,0.,0.111111111,0.,-0.,-1.,0.,                0000043P0000042
-8.881784197E-16,-3.,4.242640687,-3.552713679E-15;               0000043P0000043
124,0.707106781,0.,0.707106781,7.,-0.707106781,0.,0.707106781,   0000045P0000044
3.,0.,-1.,0.,7.;                                                 0000045P0000045
110,10.,3.97903932E-13,7.,10.,572.5,7.;                          0000047P0000046
104,5.555555556E-02,0.,0.111111111,0.,-0.,-1.,0.,-4.242640687,   0000049P0000047
-8.881784197E-16,0.,-3.;                                         0000049P0000048
124,-0.707106781,0.,0.707106781,7.,-0.707106781,0.,-0.707106781, 0000051P0000049
569.5,0.,-1.,0.,7.;                                              0000051P0000050
110,7.,569.5,10.,7.,3.,10.;                                      0000053P0000051
144,57,1,1,59,87;                                                0000055P0000052
108,-0.707106781,0.707106781,0.,397.747564417,0,                 0000057P0000053
-7.061067812E+03,-6.498567812E+03,-1.E+04,0.;                    0000057P0000054
142,0,57,0,61,2;                                                 0000059P0000055
102,8,63,67,69,73,75,79,81,85;                                   0000061P0000056
104,0.222222222,0.,0.444444444,0.,-0.,-1.,0.,-2.121320344,       0000063P0000057
-1.776356839E-15,0.,-1.5;                                        0000063P0000058
124,-0.707106781,0.,0.707106781,7.,-0.707106781,0.,-0.707106781, 0000065P0000059
569.5,0.,-1.,0.,7.;                                              0000065P0000060
110,7.,569.5,8.5,-7.,555.5,8.5;                                  0000067P0000061
104,0.222222222,0.,0.444444444,0.,-0.,-1.,0.,0.,-1.5,            0000069P0000062
2.121320344,-1.776356839E-15;                                    0000069P0000063
124,-0.707106781,0.,0.707106781,-7.,-0.707106781,0.,             0000071P0000064
-0.707106781,555.5,0.,-1.,0.,7.;                                 0000071P0000065
110,-8.5,554.,7.,-8.5,554.,-7.;                                  0000073P0000066
104,0.222222222,0.,0.444444444,0.,-0.,-1.,0.,2.121320344,        0000075P0000067
1.776356839E-15,0.,1.5;                                          0000075P0000068
124,-0.707106781,0.,0.707106781,-7.,-0.707106781,0.,             0000077P0000069
-0.707106781,555.5,0.,-1.,0.,-7.;                                0000077P0000070
110,-7.,555.5,-8.5,7.,569.5,-8.5;                                0000079P0000071
104,0.222222222,0.,0.444444444,0.,-0.,-1.,0.,0.,1.5,             0000081P0000072
-2.121320344,1.776356839E-15;                                    0000081P0000073
124,-0.707106781,0.,0.707106781,7.,-0.707106781,0.,-0.707106781, 0000083P0000074
569.5,0.,-1.,0.,-7.;                                             0000083P0000075
110,8.5,571.,-7.,8.5,571.,7.;                                    0000085P0000076
142,0,57,0,89,2;                                                 0000087P0000077
102,8,91,93,97,99,103,105,109,111;                               0000089P0000078
110,10.,572.5,7.,10.,572.5,-7.;                                  0000091P0000079
104,5.555555556E-02,0.,0.111111111,0.,-0.,-1.,0.,-4.242640687,   0000093P0000080
-8.881784197E-16,0.,-3.;                                         0000093P0000081
124,-0.707106781,0.,-0.707106781,7.,-0.707106781,0.,0.707106781, 0000095P0000082
569.5,0.,1.,0.,-7.;                                              0000095P0000083
110,7.,569.5,-10.,-7.,555.5,-10.;                                0000097P0000084
104,5.555555556E-02,0.,0.111111111,0.,-0.,-1.,0.,0.,-3.,         0000099P0000085
4.242640687,-3.552713679E-15;                                    0000099P0000086
124,-0.707106781,0.,-0.707106781,-7.,-0.707106781,0.,            0000101P0000087
0.707106781,555.5,0.,1.,0.,-7.;                                  0000101P0000088
110,-10.,552.5,-7.,-10.,552.5,7.;                                0000103P0000089
104,5.555555556E-02,0.,0.111111111,0.,-0.,-1.,0.,4.242640687,    0000105P0000090
1.776356839E-15,0.,3.;                                           0000105P0000091
124,-0.707106781,0.,-0.707106781,-7.,-0.707106781,0.,            0000107P0000092
0.707106781,555.5,0.,1.,0.,7.;                                   0000107P0000093
110,-7.,555.5,10.,7.,569.5,10.;                                  0000109P0000094
104,5.555555556E-02,0.,0.111111111,0.,-0.,-1.,0.,0.,3.,          0000111P0000095
-4.242640687,1.776356839E-15;                                    0000111P0000096
124,-0.707106781,0.,-0.707106781,7.,-0.707106781,0.,0.707106781, 0000113P0000097
569.5,0.,1.,0.,7.;                                               0000113P0000098
144,117,1,0,125;                                                 0000115P0000099
120,121,123,4.71238898,6.283185307;                              0000117P0000100
124,5.921189465E-16,1.,0.,7.,0.,0.,-1.,-100.,-1.,                0000119P0000101
5.921189465E-16,0.,-7.;                                          0000119P0000102
110,0.,0.,1.,0.,0.,0.;                                           0000121P0000103
110,3.,0.,-672.5,3.,0.,-100.;                                    0000123P0000104
142,0,117,127,137,3;                                             0000125P0000105
102,4,129,131,133,135;                                           0000127P0000106
126,8,8,1,0,1,0,4.71238898,4.71238898,4.71238898,4.71238898,     0000129P0000107
4.71238898,4.71238898,4.71238898,4.71238898,4.71238898,          0000129P0000108
6.283185307,6.283185307,6.283185307,6.283185307,6.283185307,     0000129P0000109
6.283185307,6.283185307,6.283185307,6.283185307,1.,1.,1.,1.,1.,  0000129P0000110
1.,1.,1.,1.,1.,4.71238898,0.,1.,4.908738521,0.,0.999769114,      0000129P0000111
5.105088062,0.,0.999307343,5.301437603,0.,0.99863367,            0000129P0000112
5.497787144,0.,0.997786096,5.694136685,0.,0.996817637,           0000129P0000113
5.890486225,0.,0.995788731,6.086835766,0.,0.994759825,           0000129P0000114
6.283185307,0.,4.71238898,6.283185307,0.,0.,1.;                  0000129P0000115
110,0.994759825,6.283185307,0.,5.240174672E-03,6.283185307,0.;   0000131P0000116
126,8,8,1,0,1,0,3.141592654,3.141592654,3.141592654,3.141592654, 0000133P0000117
3.141592654,3.141592654,3.141592654,3.141592654,3.141592654,     0000133P0000118
4.71238898,4.71238898,4.71238898,4.71238898,4.71238898,          0000133P0000119
4.71238898,4.71238898,4.71238898,4.71238898,1.,1.,1.,1.,1.,1.,   0000133P0000120
1.,1.,1.,5.240174672E-03,6.283185307,0.,4.211268782E-03,         0000133P0000121
6.086835766,0.,3.182362646E-03,5.890486225,0.,2.213904312E-03,   0000133P0000122
5.694136685,0.,1.366329689E-03,5.497787144,0.,6.926565293E-04,   0000133P0000123
5.301437603,0.,2.308861626E-04,5.105088062,0.,3.966261781E-16,   0000133P0000124
4.908738521,0.,3.965500237E-16,4.71238898,0.,3.141592654,        0000133P0000125
4.71238898,0.,0.,1.;                                             0000133P0000126
110,-2.220446049E-16,4.71238898,0.,1.,4.71238898,0.;             0000135P0000127
102,4,139,143,145,149;                                           0000137P0000128
104,5.555555556E-02,0.,0.111111111,0.,-0.,-1.,0.,4.242640687,    0000139P0000129
2.664535259E-15,0.,3.;                                           0000139P0000130
124,0.707106781,0.,0.707106781,7.,-0.707106781,0.,0.707106781,   0000141P0000131
3.,0.,-1.,0.,-7.;                                                0000141P0000132
110,7.,3.,-10.,7.,569.5,-10.;                                    0000143P0000133
104,5.555555556E-02,0.,0.111111111,0.,-0.,-1.,0.,0.,3.,          0000145P0000134
-4.242640687,1.776356839E-15;                                    0000145P0000135
124,-0.707106781,0.,0.707106781,7.,-0.707106781,0.,-0.707106781, 0000147P0000136
569.5,0.,-1.,0.,-7.;                                             0000147P0000137
110,10.,572.5,-7.,10.,3.97903932E-13,-7.;                        0000149P0000138
144,153,1,1,155,183;                                             0000151P0000139
108,-0.707106781,-0.707106781,0.,-7.071067812,0,                 0000153P0000140
-7.061067812E+03,7.071067812E+03,1.E+04,0.;                      0000153P0000141
142,0,153,0,157,2;                                               0000155P0000142
102,8,159,163,165,169,171,175,177,181;                           0000157P0000143
104,0.222222222,0.,0.444444444,0.,-0.,-1.,0.,0.,-1.5,            0000159P0000144
2.121320344,-1.776356839E-15;                                    0000159P0000145
124,0.707106781,0.,0.707106781,7.,-0.707106781,0.,0.707106781,   0000161P0000146
3.,0.,-1.,0.,7.;                                                 0000161P0000147
110,8.5,1.5,7.,8.5,1.5,-7.;                                      0000163P0000148
104,0.222222222,0.,0.444444444,0.,-0.,-1.,0.,2.121320344,        0000165P0000149
1.776356839E-15,0.,1.5;                                          0000165P0000150
124,0.707106781,0.,0.707106781,7.,-0.707106781,0.,0.707106781,   0000167P0000151
3.,0.,-1.,0.,-7.;                                                0000167P0000152
110,7.,3.,-8.5,-7.,17.,-8.5;                                     0000169P0000153
104,0.222222222,0.,0.444444444,0.,-0.,-1.,0.,0.,1.5,             0000171P0000154
-2.121320344,1.776356839E-15;                                    0000171P0000155
124,0.707106781,0.,0.707106781,-7.,-0.707106781,0.,0.707106781,  0000173P0000156
17.,0.,-1.,0.,-7.;                                               0000173P0000157
110,-8.5,18.5,-7.,-8.5,18.5,7.;                                  0000175P0000158
104,0.222222222,0.,0.444444444,0.,-0.,-1.,0.,-2.121320344,       0000177P0000159
-1.776356839E-15,0.,-1.5;                                        0000177P0000160
124,0.707106781,0.,0.707106781,-7.,-0.707106781,0.,0.707106781,  0000179P0000161
17.,0.,-1.,0.,7.;                                                0000179P0000162
110,-7.,17.,8.5,7.,3.,8.5;                                       0000181P0000163
142,0,153,0,185,2;                                               0000183P0000164
102,8,187,189,193,195,199,201,205,207;                           0000185P0000165
110,10.,6.536993169E-13,-7.,10.,6.536993169E-13,7.;              0000187P0000166
104,5.555555556E-02,0.,0.111111111,0.,-0.,-1.,0.,4.242640687,    0000189P0000167
1.776356839E-15,1.776356839E-15,3.;                              0000189P0000168
124,0.707106781,0.,-0.707106781,7.,-0.707106781,0.,-0.707106781, 0000191P0000169
3.,0.,1.,0.,7.;                                                  0000191P0000170
110,7.,3.,10.,-7.,17.,10.;                                       0000193P0000171
104,5.555555556E-02,0.,0.111111111,0.,-0.,-1.,0.,0.,3.,          0000195P0000172
-4.242640687,1.776356839E-15;                                    0000195P0000173
124,0.707106781,0.,-0.707106781,-7.,-0.707106781,0.,             0000197P0000174
-0.707106781,17.,0.,1.,0.,7.;                                    0000197P0000175
110,-10.,20.,7.,-10.,20.,-7.;                                    0000199P0000176
104,5.555555556E-02,0.,0.111111111,0.,-0.,-1.,0.,-4.242640687,   0000201P0000177
-8.881784197E-16,0.,-3.;                                         0000201P0000178
124,0.707106781,0.,-0.707106781,-7.,-0.707106781,0.,             0000203P0000179
-0.707106781,17.,0.,1.,0.,-7.;                                   0000203P0000180
110,-7.,17.,-10.,7.,3.,-10.;                                     0000205P0000181
104,5.555555556E-02,0.,0.111111111,0.,-0.,-1.,0.,                0000207P0000182
-8.881784197E-16,-3.,4.242640687,-3.552713679E-15;               0000207P0000183
124,0.707106781,0.,-0.707106781,7.,-0.707106781,0.,-0.707106781, 0000209P0000184
3.,0.,1.,0.,-7.;                                                 0000209P0000185
144,213,1,0,215;                                                 0000211P0000186
108,0.,-0.,1.,10.,0,7.,-100.,10.,0.;                             0000213P0000187
142,0,213,0,217,2;                                               0000215P0000188
102,4,219,221,223,225;                                           0000217P0000189
110,-7.,555.5,10.,-7.,17.,10.;                                   0000219P0000190
110,-7.,17.,10.,7.,3.,10.;                                       0000221P0000191
110,7.,3.,10.,7.,569.5,10.;                                      0000223P0000192
110,7.,569.5,10.,-7.,555.5,10.;                                  0000225P0000193
144,229,1,0,237;                                                 0000227P0000194
120,233,235,4.71238898,6.283185307;                              0000229P0000195
124,-5.921189465E-16,-1.,0.,-7.,0.,-0.,-1.,-100.,1.,             0000231P0000196
-5.921189465E-16,0.,7.;                                          0000231P0000197
110,0.,0.,1.,0.,0.,0.;                                           0000233P0000198
110,3.,0.,-655.5,3.,0.,-117.;                                    0000235P0000199
142,0,229,239,249,3;                                             0000237P0000200
102,4,241,243,245,247;                                           0000239P0000201
126,8,8,1,0,1,0,1.570796327,1.570796327,1.570796327,1.570796327, 0000241P0000202
1.570796327,1.570796327,1.570796327,1.570796327,1.570796327,     0000241P0000203
3.141592654,3.141592654,3.141592654,3.141592654,3.141592654,     0000241P0000204
3.141592654,3.141592654,3.141592654,3.141592654,1.,1.,1.,1.,1.,  0000241P0000205
1.,1.,1.,1.,0.994428969,4.71238898,0.,0.994428969,4.908738521,   0000241P0000206
0.,0.994674433,5.105088062,0.,0.995165359,5.301437603,0.,        0000241P0000207
0.995881567,5.497787144,0.,0.996782656,5.694136685,0.,           0000241P0000208
0.997812261,5.890486225,0.,0.998906131,6.086835766,0.,1.,        0000241P0000209
6.283185307,0.,1.570796327,3.141592654,-0.,-0.,1.;               0000241P0000210
110,1.,6.283185307,0.,-2.220446049E-16,6.283185307,0.;           0000243P0000211
126,8,8,1,0,1,0,5.921189465E-16,5.921189465E-16,5.921189465E-16, 0000245P0000212
5.921189465E-16,5.921189465E-16,5.921189465E-16,5.921189465E-16, 0000245P0000213
5.921189465E-16,5.921189465E-16,1.570796327,1.570796327,         0000245P0000214
1.570796327,1.570796327,1.570796327,1.570796327,1.570796327,     0000245P0000215
1.570796327,1.570796327,1.,1.,1.,1.,1.,1.,1.,1.,1.,0.,           0000245P0000216
6.283185307,0.,1.093869308E-03,6.086835766,0.,2.187738876E-03,   0000245P0000217
5.890486225,0.,3.217344071E-03,5.694136685,0.,4.118433155E-03,   0000245P0000218
5.497787144,0.,4.834640928E-03,5.301437603,0.,5.325566708E-03,   0000245P0000219
5.105088062,0.,5.571030641E-03,4.908738521,0.,5.571030641E-03,   0000245P0000220
4.71238898,0.,5.921189465E-16,1.570796327,-0.,-0.,1.;            0000245P0000221
110,5.571030641E-03,4.71238898,0.,0.994428969,4.71238898,0.;     0000247P0000222
102,4,251,255,257,261;                                           0000249P0000223
104,5.555555556E-02,0.,0.111111111,0.,-0.,-1.,0.,-4.242640687,   0000251P0000224
-8.881784197E-16,0.,-3.;                                         0000251P0000225
124,0.707106781,0.,0.707106781,-7.,-0.707106781,0.,0.707106781,  0000253P0000226
17.,0.,-1.,0.,7.;                                                0000253P0000227
110,-7.,17.,10.,-7.,555.5,10.;                                   0000255P0000228
104,5.555555556E-02,0.,0.111111111,0.,-0.,-1.,0.,0.,-3.,         0000257P0000229
4.242640687,-3.552713679E-15;                                    0000257P0000230
124,-0.707106781,0.,0.707106781,-7.,-0.707106781,0.,             0000259P0000231
-0.707106781,555.5,0.,-1.,0.,7.;                                 0000259P0000232
110,-10.,552.5,7.,-10.,20.,7.;                                   0000261P0000233
144,265,1,0,267;                                                 0000263P0000234
108,-1.,0.,0.,10.,0,-10.,-100.,7.,0.;                            0000265P0000235
142,0,265,0,269,2;                                               0000267P0000236
102,4,271,273,275,277;                                           0000269P0000237
110,-10.,552.5,-7.,-10.,20.,-7.;                                 0000271P0000238
110,-10.,20.,-7.,-10.,20.,7.;                                    0000273P0000239
110,-10.,20.,7.,-10.,552.5,7.;                                   0000275P0000240
110,-10.,552.5,7.,-10.,552.5,-7.;                                0000277P0000241
144,281,1,0,289;                                                 0000279P0000242
120,285,287,4.71238898,6.283185307;                              0000281P0000243
124,-1.,5.921189465E-16,0.,-7.,-0.,0.,-1.,-100.,                 0000283P0000244
-5.921189465E-16,-1.,0.,-7.;                                     0000283P0000245
110,0.,0.,1.,0.,0.,0.;                                           0000285P0000246
110,3.,0.,-655.5,3.,0.,-117.;                                    0000287P0000247
142,0,281,291,301,3;                                             0000289P0000248
102,4,293,295,297,299;                                           0000291P0000249
126,8,8,1,0,1,0,3.141592654,3.141592654,3.141592654,3.141592654, 0000293P0000250
3.141592654,3.141592654,3.141592654,3.141592654,3.141592654,     0000293P0000251
4.71238898,4.71238898,4.71238898,4.71238898,4.71238898,          0000293P0000252
4.71238898,4.71238898,4.71238898,4.71238898,1.,1.,1.,1.,1.,1.,   0000293P0000253
1.,1.,1.,1.,4.71238898,0.,0.998906131,4.908738521,0.,            0000293P0000254
0.997812261,5.105088062,0.,0.996782656,5.301437603,0.,           0000293P0000255
0.995881567,5.497787144,0.,0.995165359,5.694136685,0.,           0000293P0000256
0.994674433,5.890486225,0.,0.994428969,6.086835766,0.,           0000293P0000257
0.994428969,6.283185307,0.,3.141592654,4.71238898,-0.,-0.,1.;    0000293P0000258
110,0.994428969,6.283185307,0.,5.571030641E-03,6.283185307,0.;   0000295P0000259
126,8,8,1,0,1,0,4.71238898,4.71238898,4.71238898,4.71238898,     0000297P0000260
4.71238898,4.71238898,4.71238898,4.71238898,4.71238898,          0000297P0000261
6.283185307,6.283185307,6.283185307,6.283185307,6.283185307,     0000297P0000262
6.283185307,6.283185307,6.283185307,6.283185307,1.,1.,1.,1.,1.,  0000297P0000263
1.,1.,1.,1.,5.571030641E-03,6.283185307,0.,5.571030641E-03,      0000297P0000264
6.086835766,0.,5.325566707E-03,5.890486225,0.,4.834640933E-03,   0000297P0000265
5.694136685,0.,4.118433145E-03,5.497787144,0.,3.217344081E-03,   0000297P0000266
5.301437603,0.,2.187738875E-03,5.105088062,0.,1.093869308E-03,   0000297P0000267
4.908738521,0.,-6.477007424E-19,4.71238898,0.,4.71238898,        0000297P0000268
6.283185307,-0.,-0.,1.;                                          0000297P0000269
110,-2.220446049E-16,4.71238898,0.,1.,4.71238898,0.;             0000299P0000270
102,4,303,307,309,313;                                           0000301P0000271
104,5.555555556E-02,0.,0.111111111,0.,-0.,-1.,0.,0.,3.,          0000303P0000272
-4.242640687,1.776356839E-15;                                    0000303P0000273
124,0.707106781,0.,0.707106781,-7.,-0.707106781,0.,0.707106781,  0000305P0000274
17.,0.,-1.,0.,-7.;                                               0000305P0000275
110,-10.,20.,-7.,-10.,552.5,-7.;                                 0000307P0000276
104,5.555555556E-02,0.,0.111111111,0.,-0.,-1.,0.,4.242640687,    0000309P0000277
2.664535259E-15,0.,3.;                                           0000309P0000278
124,-0.707106781,0.,0.707106781,-7.,-0.707106781,0.,             0000311P0000279
-0.707106781,555.5,0.,-1.,0.,-7.;                                0000311P0000280
110,-7.,555.5,-10.,-7.,17.,-10.;                                 0000313P0000281
144,317,1,0,319;                                                 0000315P0000282
108,0.,0.,-1.,10.,0,-7.,-100.,-10.,0.;                           0000317P0000283
142,0,317,0,321,2;                                               0000319P0000284
102,4,323,325,327,329;                                           0000321P0000285
110,7.,569.5,-10.,7.,3.,-10.;                                    0000323P0000286
110,7.,3.,-10.,-7.,17.,-10.;                                     0000325P0000287
110,-7.,17.,-10.,-7.,555.5,-10.;                                 0000327P0000288
110,-7.,555.5,-10.,7.,569.5,-10.;                                0000329P0000289
144,333,1,0,341;                                                 0000331P0000290
120,337,339,0.,1.570796327;                                      0000333P0000291
124,1.,1.184237893E-15,0.,7.,0.,0.,-1.,-100.,1.184237893E-15,    0000335P0000292
-1.,0.,7.;                                                       0000335P0000293
110,0.,0.,1.,0.,0.,0.;                                           0000337P0000294
110,1.5,0.,-671.,1.5,0.,-101.5;                                  0000339P0000295
142,0,333,343,353,3;                                             0000341P0000296
102,4,345,347,349,351;                                           0000343P0000297
110,-2.220446049E-16,1.998401444E-15,0.,1.,1.284528039E-13,0.;   0000345P0000298
126,7,7,1,0,1,0,1.184237893E-15,1.184237893E-15,1.184237893E-15, 0000347P0000299
1.184237893E-15,1.184237893E-15,1.184237893E-15,1.184237893E-15, 0000347P0000300
1.184237893E-15,1.570796327,1.570796327,1.570796327,1.570796327, 0000347P0000301
1.570796327,1.570796327,1.570796327,1.570796327,1.,1.,1.,1.,1.,  0000347P0000302
1.,1.,1.,1.,1.278976924E-13,0.,1.,0.224399475,0.,0.999845262,    0000347P0000303
0.448798951,0.,0.99953581,0.673198426,0.,0.999090641,            0000347P0000304
0.897597901,0.,0.998548195,1.121997376,0.,0.997957154,           0000347P0000305
1.346396852,0.,0.997366111,1.570796327,0.,1.184237893E-15,       0000347P0000306
1.570796327,0.,0.,1.;                                            0000347P0000307
110,0.997366111,1.570796327,0.,2.633889377E-03,1.570796327,0.;   0000349P0000308
126,7,7,1,0,1,0,1.570796327,1.570796327,1.570796327,1.570796327, 0000351P0000309
1.570796327,1.570796327,1.570796327,1.570796327,3.141592654,     0000351P0000310
3.141592654,3.141592654,3.141592654,3.141592654,3.141592654,     0000351P0000311
3.141592654,3.141592654,1.,1.,1.,1.,1.,1.,1.,1.,2.633889377E-03, 0000351P0000312
1.570796327,0.,2.042845983E-03,1.346396852,0.,1.451804989E-03,   0000351P0000313
1.121997376,0.,9.093586679E-04,0.897597901,0.,4.64190067E-04,    0000351P0000314
0.673198426,0.,1.547375047E-04,0.448798951,0.,-2.362283944E-18,  0000351P0000315
0.224399475,0.,-2.449775942E-18,1.776356839E-15,0.,1.570796327,  0000351P0000316
3.141592654,0.,0.,1.;                                            0000351P0000317
102,4,355,357,361,363;                                           0000353P0000318
110,8.5,571.,7.,8.5,1.5,7.;                                      0000355P0000319
104,0.222222222,0.,0.444444444,0.,-0.,-1.,0.,2.121320344,        0000357P0000320
1.776356839E-15,1.776356839E-15,1.5;                             0000357P0000321
124,0.707106781,0.,-0.707106781,7.,-0.707106781,0.,-0.707106781, 0000359P0000322
3.,0.,1.,0.,7.;                                                  0000359P0000323
110,7.,3.,8.5,7.,569.5,8.5;                                      0000361P0000324
104,0.222222222,0.,0.444444444,0.,-0.,-1.,0.,0.,1.5,             0000363P0000325
-2.121320344,1.776356839E-15;                                    0000363P0000326
124,-0.707106781,0.,-0.707106781,7.,-0.707106781,0.,0.707106781, 0000365P0000327
569.5,0.,1.,0.,7.;                                               0000365P0000328
144,369,1,0,371;                                                 0000367P0000329
108,-1.,-0.,-0.,-8.5,0,8.5,-100.,-7.,0.;                         0000369P0000330
142,0,369,0,373,2;                                               0000371P0000331
102,4,375,377,379,381;                                           0000373P0000332
110,8.5,1.5,-7.,8.5,1.5,7.;                                      0000375P0000333
110,8.5,1.5,7.,8.5,571.,7.;                                      0000377P0000334
110,8.5,571.,7.,8.5,571.,-7.;                                    0000379P0000335
110,8.5,571.,-7.,8.5,1.5,-7.;                                    0000381P0000336
144,385,1,0,393;                                                 0000383P0000337
120,389,391,-8.881784197E-16,1.570796327;                        0000385P0000338
124,1.184237893E-15,-1.,0.,7.,0.,-0.,-1.,-100.,-1.,              0000387P0000339
-1.184237893E-15,0.,-7.;                                         0000387P0000340
110,0.,0.,1.,0.,0.,0.;                                           0000389P0000341
110,1.5,0.,-671.,1.5,0.,-101.5;                                  0000391P0000342
142,0,385,395,405,3;                                             0000393P0000343
102,4,397,399,401,403;                                           0000395P0000344
110,2.633889377E-03,2.331468352E-15,0.,0.997366111,              0000397P0000345
1.28119737E-13,0.;                                               0000397P0000346
126,7,7,1,0,1,0,4.71238898,4.71238898,4.71238898,4.71238898,     0000399P0000347
4.71238898,4.71238898,4.71238898,4.71238898,6.283185307,         0000399P0000348
6.283185307,6.283185307,6.283185307,6.283185307,6.283185307,     0000399P0000349
6.283185307,6.283185307,1.,1.,1.,1.,1.,1.,1.,1.,0.997366111,     0000399P0000350
1.27009514E-13,0.,0.997957154,0.224399475,0.,0.998548195,        0000399P0000351
0.448798951,0.,0.999090641,0.673198426,0.,0.99953581,            0000399P0000352
0.897597901,0.,0.999845262,1.121997376,0.,1.,1.346396852,0.,1.,  0000399P0000353
1.570796327,0.,4.71238898,6.283185307,0.,0.,1.;                  0000399P0000354
110,1.,1.570796327,0.,-2.220446049E-16,1.570796327,0.;           0000401P0000355
126,7,7,1,0,1,0,3.141592654,3.141592654,3.141592654,3.141592654, 0000403P0000356
3.141592654,3.141592654,3.141592654,3.141592654,4.71238898,      0000403P0000357
4.71238898,4.71238898,4.71238898,4.71238898,4.71238898,          0000403P0000358
4.71238898,4.71238898,1.,1.,1.,1.,1.,1.,1.,1.,-1.837331957E-18,  0000403P0000359
1.570796327,0.,-1.924823955E-18,1.346396852,0.,1.547375049E-04,  0000403P0000360
1.121997376,0.,4.641900668E-04,0.897597901,0.,9.093586684E-04,   0000403P0000361
0.673198426,0.,1.451804989E-03,0.448798951,0.,2.042845983E-03,   0000403P0000362
0.224399475,0.,2.633889377E-03,8.881784197E-16,0.,3.141592654,   0000403P0000363
4.71238898,0.,0.,1.;                                             0000403P0000364
102,4,407,409,413,415;                                           0000405P0000365
110,7.,569.5,-8.5,7.,3.,-8.5;                                    0000407P0000366
104,0.222222222,0.,0.444444444,0.,-0.,-1.,0.,0.,-1.5,            0000409P0000367
2.121320344,-1.776356839E-15;                                    0000409P0000368
124,0.707106781,0.,-0.707106781,7.,-0.707106781,0.,-0.707106781, 0000411P0000369
3.,0.,1.,0.,-7.;                                                 0000411P0000370
110,8.5,1.5,-7.,8.5,571.,-7.;                                    0000413P0000371
104,0.222222222,0.,0.444444444,0.,-0.,-1.,0.,-2.121320344,       0000415P0000372
-1.776356839E-15,0.,-1.5;                                        0000415P0000373
124,-0.707106781,0.,-0.707106781,7.,-0.707106781,0.,0.707106781, 0000417P0000374
569.5,0.,1.,0.,-7.;                                              0000417P0000375
144,421,1,0,423;                                                 0000419P0000376
108,-0.,-0.,1.,-8.5,0,-7.,-100.,-8.5,0.;                         0000421P0000377
142,0,421,0,425,2;                                               0000423P0000378
102,4,427,429,431,433;                                           0000425P0000379
110,-7.,17.,-8.5,7.,3.,-8.5;                                     0000427P0000380
110,7.,3.,-8.5,7.,569.5,-8.5;                                    0000429P0000381
110,7.,569.5,-8.5,-7.,555.5,-8.5;                                0000431P0000382
110,-7.,555.5,-8.5,-7.,17.,-8.5;                                 0000433P0000383
144,437,1,0,445;                                                 0000435P0000384
120,441,443,0.,1.570796327;                                      0000437P0000385
124,-1.,-1.184237893E-15,0.,-7.,-0.,0.,-1.,-100.,                0000439P0000386
-1.184237893E-15,1.,0.,-7.;                                      0000439P0000387
110,0.,0.,1.,0.,0.,0.;                                           0000441P0000388
110,1.5,0.,-655.5,1.5,0.,-117.;                                  0000443P0000389
142,0,437,447,457,3;                                             0000445P0000390
102,4,449,451,453,455;                                           0000447P0000391
110,2.78551532E-03,2.220446049E-15,0.,0.997214485,               0000449P0000392
1.21125332E-13,0.;                                               0000449P0000393
126,7,7,1,0,1,0,3.141592654,3.141592654,3.141592654,3.141592654, 0000451P0000394
3.141592654,3.141592654,3.141592654,3.141592654,4.71238898,      0000451P0000395
4.71238898,4.71238898,4.71238898,4.71238898,4.71238898,          0000451P0000396
4.71238898,4.71238898,1.,1.,1.,1.,1.,1.,1.,1.,0.997214485,       0000451P0000397
1.207922651E-13,0.,0.997214485,0.224399475,0.,0.99737813,        0000451P0000398
0.448798951,0.,0.997705397,0.673198426,0.,0.998176193,           0000451P0000399
0.897597901,0.,0.998749866,1.121997376,0.,0.999374932,           0000451P0000400
1.346396852,0.,1.,1.570796327,0.,3.141592654,4.71238898,-0.,-0., 0000451P0000401
1.;                                                              0000451P0000402
110,1.,1.570796327,0.,-2.220446049E-16,1.570796327,0.;           0000453P0000403
126,7,7,1,0,1,0,4.71238898,4.71238898,4.71238898,4.71238898,     0000455P0000404
4.71238898,4.71238898,4.71238898,4.71238898,6.283185307,         0000455P0000405
6.283185307,6.283185307,6.283185307,6.283185307,6.283185307,     0000455P0000406
6.283185307,6.283185307,1.,1.,1.,1.,1.,1.,1.,1.,                 0000455P0000407
-1.943102227E-18,1.570796327,0.,6.250681762E-04,1.346396852,0.,  0000455P0000408
1.250133814E-03,1.121997376,0.,1.823807314E-03,0.897597901,0.,   0000455P0000409
2.294603077E-03,0.673198426,0.,2.621869993E-03,0.448798951,0.,   0000455P0000410
2.78551532E-03,0.224399475,0.,2.78551532E-03,1.776356839E-15,0., 0000455P0000411
4.71238898,6.283185307,-0.,-0.,1.;                               0000455P0000412
102,4,459,461,465,467;                                           0000457P0000413
110,-8.5,554.,-7.,-8.5,18.5,-7.;                                 0000459P0000414
104,0.222222222,0.,0.444444444,0.,-0.,-1.,0.,-2.121320344,       0000461P0000415
-1.776356839E-15,0.,-1.5;                                        0000461P0000416
124,0.707106781,0.,-0.707106781,-7.,-0.707106781,0.,             0000463P0000417
-0.707106781,17.,0.,1.,0.,-7.;                                   0000463P0000418
110,-7.,17.,-8.5,-7.,555.5,-8.5;                                 0000465P0000419
104,0.222222222,0.,0.444444444,0.,-0.,-1.,0.,0.,-1.5,            0000467P0000420
2.121320344,-1.776356839E-15;                                    0000467P0000421
124,-0.707106781,0.,-0.707106781,-7.,-0.707106781,0.,            0000469P0000422
0.707106781,555.5,0.,1.,0.,-7.;                                  0000469P0000423
144,473,1,0,475;                                                 0000471P0000424
108,1.,-0.,-0.,-8.5,0,-8.5,-100.,7.,0.;                          0000473P0000425
142,0,473,0,477,2;                                               0000475P0000426
102,4,479,481,483,485;                                           0000477P0000427
110,-8.5,18.5,7.,-8.5,18.5,-7.;                                  0000479P0000428
110,-8.5,18.5,-7.,-8.5,554.,-7.;                                 0000481P0000429
110,-8.5,554.,-7.,-8.5,554.,7.;                                  0000483P0000430
110,-8.5,554.,7.,-8.5,18.5,7.;                                   0000485P0000431
144,489,1,0,497;                                                 0000487P0000432
120,493,495,-8.881784197E-16,1.570796327;                        0000489P0000433
124,-1.184237893E-15,1.,0.,-7.,0.,0.,-1.,-100.,1.,               0000491P0000434
1.184237893E-15,0.,7.;                                           0000491P0000435
110,0.,0.,1.,0.,0.,0.;                                           0000493P0000436
110,1.5,0.,-655.5,1.5,0.,-117.;                                  0000495P0000437
142,0,489,499,509,3;                                             0000497P0000438
102,4,501,503,505,507;                                           0000499P0000439
110,-2.220446049E-16,1.887379142E-15,0.,1.,1.214583989E-13,0.;   0000501P0000440
126,7,7,1,0,1,0,1.570796327,1.570796327,1.570796327,1.570796327, 0000503P0000441
1.570796327,1.570796327,1.570796327,1.570796327,3.141592654,     0000503P0000442
3.141592654,3.141592654,3.141592654,3.141592654,3.141592654,     0000503P0000443
3.141592654,3.141592654,1.,1.,1.,1.,1.,1.,1.,1.,1.,              0000503P0000444
1.207922651E-13,0.,0.999374932,0.224399475,0.,0.998749866,       0000503P0000445
0.448798951,0.,0.998176193,0.673198426,0.,0.997705397,           0000503P0000446
0.897597901,0.,0.99737813,1.121997376,0.,0.997214485,            0000503P0000447
1.346396852,0.,0.997214485,1.570796327,0.,1.570796327,           0000503P0000448
3.141592654,-0.,-0.,1.;                                          0000503P0000449
110,0.997214485,1.570796327,0.,2.78551532E-03,1.570796327,0.;    0000505P0000450
126,7,7,1,0,1,0,1.184237893E-15,1.184237893E-15,1.184237893E-15, 0000507P0000451
1.184237893E-15,1.184237893E-15,1.184237893E-15,1.184237893E-15, 0000507P0000452
1.184237893E-15,1.570796327,1.570796327,1.570796327,1.570796327, 0000507P0000453
1.570796327,1.570796327,1.570796327,1.570796327,1.,1.,1.,1.,1.,  0000507P0000454
1.,1.,1.,2.78551532E-03,1.570796327,0.,2.78551532E-03,           0000507P0000455
1.346396852,0.,2.621869993E-03,1.121997376,0.,2.294603077E-03,   0000507P0000456
0.897597901,0.,1.823807314E-03,0.673198426,0.,1.250133814E-03,   0000507P0000457
0.448798951,0.,6.250681762E-04,0.224399475,0.,-2.59080297E-18,   0000507P0000458
8.881784197E-16,0.,1.184237893E-15,1.570796327,-0.,-0.,1.;       0000507P0000459
102,4,511,513,517,519;                                           0000509P0000460
110,-7.,555.5,8.5,-7.,17.,8.5;                                   0000511P0000461
104,0.222222222,0.,0.444444444,0.,-0.,-1.,0.,0.,1.5,             0000513P0000462
-2.121320344,1.776356839E-15;                                    0000513P0000463
124,0.707106781,0.,-0.707106781,-7.,-0.707106781,0.,             0000515P0000464
-0.707106781,17.,0.,1.,0.,7.;                                    0000515P0000465
110,-8.5,18.5,7.,-8.5,554.,7.;                                   0000517P0000466
104,0.222222222,0.,0.444444444,0.,-0.,-1.,0.,2.121320344,        0000519P0000467
1.776356839E-15,0.,1.5;                                          0000519P0000468
124,-0.707106781,0.,-0.707106781,-7.,-0.707106781,0.,            0000521P0000469
0.707106781,555.5,0.,1.,0.,7.;                                   0000521P0000470
144,525,1,0,527;                                                 0000523P0000471
108,-0.,0.,-1.,-8.5,0,7.,-100.,8.5,0.;                           0000525P0000472
142,0,525,0,529,2;                                               0000527P0000473
102,4,531,533,535,537;                                           0000529P0000474
110,7.,3.,8.5,-7.,17.,8.5;                                       0000531P0000475
110,-7.,17.,8.5,-7.,555.5,8.5;                                   0000533P0000476
110,-7.,555.5,8.5,7.,569.5,8.5;                                  0000535P0000477
110,7.,569.5,8.5,7.,3.,8.5;                                      0000537P0000478
S      1G      4D    538P    478                                        T0000001
