                                                                        S0000001
,,31HOpen CASCADE IGES processor 8.0,13HFilename.iges,                  G0000001
16HOpen CASCADE 8.0,31HOpen CASCADE IGES processor 8.0,32,308,15,308,15,G0000002
,1.,2,2HMM,1,0.01,15H20261008.060937,1.33334E-07,1600.,4Hroot,,11,0,    G0000003
15H20261008.060937,;                                                    G0000004
     402       1       0       0       0       0       0       000000000D0000001
     402       0       0       2       1                               0D0000002
     144       3       0       0       0       0       0       000020000D0000003
     144       0       0       1       0                               0D0000004
     108       4       0       0       0       0       0       000010000D0000005
     108       0       0       1       0                               0D0000006
     142       5       0       0       0       0       0       000010500D0000007
     142       0       0       1       0                               0D0000008
     102       6       0       0       0       0       0       000010000D0000009
     102       0       0       1       0                               0D0000010
     110       7       0       0       0       0       0       000010000D0000011
     110       0       0       1       0                               0D0000012
     110       8       0       0       0       0       0       000010000D0000013
     110       0       0       1       0                               0D0000014
     110       9       0       0       0       0       0       000010000D0000015
     110       0       0       1       0                               0D0000016
     110      10       0       0       0       0       0       000010000D0000017
     110       0       0       1       0                               0D0000018
     144      11       0       0       0       0       0       000020000D0000019
     144       0       0       1       0                               0D0000020
     120      12       0       0       0       0      23       000010000D0000021
     120       0       0       1       0                               0D0000022
     124      13       0       0       0       0       0       000000000D0000023
     124       0       0       2       0                               0D0000024
     110      15       0       0       0       0       0       000010000D0000025
     110       0       0       1       0                               0D0000026
     110      16       0       0       0       0       0       000010000D0000027
     110       0       0       1       0                               0D0000028
     142      17       0       0       0       0       0       000010500D0000029
     142       0       0       1       0                               0D0000030
     102      18       0       0       0       0       0       000010000D0000031
     102       0       0       1       0                               0D0000032
     126      19       0       0       0       0       0       000010000D0000033
     126       0       0      10       0                               0D0000034
     110      29       0       0       0       0       0       000010000D0000035
     110       0       0       1       0                               0D0000036
     126      30       0       0       0       0       0       000010000D0000037
     126       0       0       9       0                               0D0000038
     110      39       0       0       0       0       0       000010000D0000039
     110       0       0       1       0                               0D0000040
     102      40       0       0       0       0       0       000010000D0000041
     102       0       0       1       0                               0D0000042
     104      41       0       0       0       0      45       000010000D0000043
     104       0       0       2       1                               0D0000044
     124      43       0       0       0       0       0       000000000D0000045
     124       0       0       2       0                               0D0000046
     110      45       0       0       0       0       0       000010000D0000047
     110       0       0       1       0                               0D0000048
     104      46       0       0       0       0      51       000010000D0000049
     104       0       0       2       1                               0D0000050
     124      48       0       0       0       0       0       000000000D0000051
     124       0       0       2       0                               0D0000052
     110      50       0       0       0       0       0       000010000D0000053
     110       0       0       1       0                               0D0000054
     144      51       0       0       0       0       0       000020000D0000055
     144       0       0       1       0                               0D0000056
     108      52       0       0       0       0       0       000010000D0000057
     108       0       0       2       0                               0D0000058
     142      54       0       0       0       0       0       000010500D0000059
     142       0       0       1       0                               0D0000060
     102      55       0       0       0       0       0       000010000D0000061
     102       0       0       1       0                               0D0000062
     104      56       0       0       0       0      65       000010000D0000063
     104       0       0       2       1                               0D0000064
     124      58       0       0       0       0       0       000000000D0000065
     124       0       0       2       0                               0D0000066
     110      60       0       0       0       0       0       000010000D0000067
     110       0       0       1       0                               0D0000068
     104      61       0       0       0       0      71       000010000D0000069
     104       0       0       2       1                               0D0000070
     124      63       0       0       0       0       0       000000000D0000071
     124       0       0       2       0                               0D0000072
     110      65       0       0       0       0       0       000010000D0000073
     110       0       0       1       0                               0D0000074
     104      66       0       0       0       0      77       000010000D0000075
     104       0       0       2       1                               0D0000076
     124      68       0       0       0       0       0       000000000D0000077
     124       0       0       2       0                               0D0000078
     110      70       0       0       0       0       0       000010000D0000079
     110       0       0       1       0                               0D0000080
     104      71       0       0       0       0      83       000010000D0000081
     104       0       0       2       1                               0D0000082
     124      73       0       0       0       0       0       000000000D0000083
     124       0       0       2       0                               0D0000084
     110      75       0       0       0       0       0       000010000D0000085
     110       0       0       1       0                               0D0000086
     142      76       0       0       0       0       0       000010500D0000087
     142       0       0       1       0                               0D0000088
     102      77       0       0       0       0       0       000010000D0000089
     102       0       0       1       0                               0D0000090
     110      78       0       0       0       0       0       000010000D0000091
     110       0       0       1       0                               0D0000092
     104      79       0       0       0       0      95       000010000D0000093
     104       0       0       2       1                               0D0000094
     124      81       0       0       0       0       0       000000000D0000095
     124       0       0       2       0                               0D0000096
     110      83       0       0       0       0       0       000010000D0000097
     110       0       0       1       0                               0D0000098
     104      84       0       0       0       0     101       000010000D0000099
     104       0       0       2       1                               0D0000100
     124      86       0       0       0       0       0       000000000D0000101
     124       0       0       2       0                               0D0000102
     110      88       0       0       0       0       0       000010000D0000103
     110       0       0       1       0                               0D0000104
     104      89       0       0       0       0     107       000010000D0000105
     104       0       0       2       1                               0D0000106
     124      91       0       0       0       0       0       000000000D0000107
     124       0       0       2       0                               0D0000108
     110      93       0       0       0       0       0       000010000D0000109
     110       0       0       1       0                               0D0000110
     104      94       0       0       0       0     113       000010000D0000111
     104       0       0       2       1                               0D0000112
     124      96       0       0       0       0       0       000000000D0000113
     124       0       0       2       0                               0D0000114
     144      98       0       0       0       0       0       000020000D0000115
     144       0       0       1       0                               0D0000116
     120      99       0       0       0       0     119       000010000D0000117
     120       0       0       1       0                               0D0000118
     124     100       0       0       0       0       0       000000000D0000119
     124       0       0       1       0                               0D0000120
     110     101       0       0       0       0       0       000010000D0000121
     110       0       0       1       0                               0D0000122
     110     102       0       0       0       0       0       000010000D0000123
     110       0       0       1       0                               0D0000124
     142     103       0       0       0       0       0       000010500D0000125
     142       0       0       1       0                               0D0000126
     102     104       0       0       0       0       0       000010000D0000127
     102       0       0       1       0                               0D0000128
     126     105       0       0       0       0       0       000010000D0000129
     126       0       0       9       0                               0D0000130
     110     114       0       0       0       0       0       000010000D0000131
     110       0       0       1       0                               0D0000132
     126     115       0       0       0       0       0       000010000D0000133
     126       0       0      10       0                               0D0000134
     110     125       0       0       0       0       0       000010000D0000135
     110       0       0       1       0                               0D0000136
     102     126       0       0       0       0       0       000010000D0000137
     102       0       0       1       0                               0D0000138
     104     127       0       0       0       0     141       000010000D0000139
     104       0       0       2       1                               0D0000140
     124     129       0       0       0       0       0       000000000D0000141
     124       0       0       2       0                               0D0000142
     110     131       0       0       0       0       0       000010000D0000143
     110       0       0       1       0                               0D0000144
     104     132       0       0       0       0     147       000010000D0000145
     104       0       0       2       1                               0D0000146
     124     134       0       0       0       0       0       000000000D0000147
     124       0       0       2       0                               0D0000148
     110     136       0       0       0       0       0       000010000D0000149
     110       0       0       1       0                               0D0000150
     144     137       0       0       0       0       0       000020000D0000151
     144       0       0       1       0                               0D0000152
     108     138       0       0       0       0       0       000010000D0000153
     108       0       0       2       0                               0D0000154
     142     140       0       0       0       0       0       000010500D0000155
     142       0       0       1       0                               0D0000156
     102     141       0       0       0       0       0       000010000D0000157
     102       0       0       1       0                               0D0000158
     104     142       0       0       0       0     161       000010000D0000159
     104       0       0       2       1                               0D0000160
     124     144       0       0       0       0       0       000000000D0000161
     124       0       0       2       0                               0D0000162
     110     146       0       0       0       0       0       000010000D0000163
     110       0       0       1       0                               0D0000164
     104     147       0       0       0       0     167       000010000D0000165
     104       0       0       2       1                               0D0000166
     124     149       0       0       0       0       0       000000000D0000167
     124       0       0       2       0                               0D0000168
     110     151       0       0       0       0       0       000010000D0000169
     110       0       0       1       0                               0D0000170
     104     152       0       0       0       0     173       000010000D0000171
     104       0       0       2       1                               0D0000172
     124     154       0       0       0       0       0       000000000D0000173
     124       0       0       2       0                               0D0000174
     110     156       0       0       0       0       0       000010000D0000175
     110       0       0       1       0                               0D0000176
     104     157       0       0       0       0     179       000010000D0000177
     104       0       0       2       1                               0D0000178
     124     159       0       0       0       0       0       000000000D0000179
     124       0       0       2       0                               0D0000180
     110     161       0       0       0       0       0       000010000D0000181
     110       0       0       1       0                               0D0000182
     142     162       0       0       0       0       0       000010500D0000183
     142       0       0       1       0                               0D0000184
     102     163       0       0       0       0       0       000010000D0000185
     102       0       0       1       0                               0D0000186
     110     164       0       0       0       0       0       000010000D0000187
     110       0       0       1       0                               0D0000188
     104     165       0       0       0       0     191       000010000D0000189
     104       0       0       2       1                               0D0000190
     124     167       0       0       0       0       0       000000000D0000191
     124       0       0       2       0                               0D0000192
     110     169       0       0       0       0       0       000010000D0000193
     110       0       0       1       0                               0D0000194
     104     170       0       0       0       0     197       000010000D0000195
     104       0       0       2       1                               0D0000196
     124     172       0       0       0       0       0       000000000D0000197
     124       0       0       2       0                               0D0000198
     110     174       0       0       0       0       0       000010000D0000199
     110       0       0       1       0                               0D0000200
     104     175       0       0       0       0     203       000010000D0000201
     104       0       0       2       1                               0D0000202
     124     177       0       0       0       0       0       000000000D0000203
     124       0       0       2       0                               0D0000204
     110     179       0       0       0       0       0       000010000D0000205
     110       0       0       1       0                               0D0000206
     104     180       0       0       0       0     209       000010000D0000207
     104       0       0       2       1                               0D0000208
     124     182       0       0       0       0       0       000000000D0000209
     124       0       0       2       0                               0D0000210
     144     184       0       0       0       0       0       000020000D0000211
     144       0       0       1       0                               0D0000212
     108     185       0       0       0       0       0       000010000D0000213
     108       0       0       1       0                               0D0000214
     142     186       0       0       0       0       0       000010500D0000215
     142       0       0       1       0                               0D0000216
     102     187       0       0       0       0       0       000010000D0000217
     102       0       0       1       0                               0D0000218
     110     188       0       0       0       0       0       000010000D0000219
     110       0       0       1       0                               0D0000220
     110     189       0       0       0       0       0       000010000D0000221
     110       0       0       1       0                               0D0000222
     110     190       0       0       0       0       0       000010000D0000223
     110       0       0       1       0                               0D0000224
     110     191       0       0       0       0       0       000010000D0000225
     110       0       0       1       0                               0D0000226
     144     192       0       0       0       0       0       000020000D0000227
     144       0       0       1       0                               0D0000228
     120     193       0       0       0       0     231       000010000D0000229
     120       0       0       1       0                               0D0000230
     124     194       0       0       0       0       0       000000000D0000231
     124       0       0       1       0                               0D0000232
     110     195       0       0       0       0       0       000010000D0000233
     110       0       0       1       0                               0D0000234
     110     196       0       0       0       0       0       000010000D0000235
     110       0       0       1       0                               0D0000236
     142     197       0       0       0       0       0       000010500D0000237
     142       0       0       1       0                               0D0000238
     102     198       0       0       0       0       0       000010000D0000239
     102       0       0       1       0                               0D0000240
     126     199       0       0       0       0       0       000010000D0000241
     126       0       0       9       0                               0D0000242
     110     208       0       0       0       0       0       000010000D0000243
     110       0       0       1       0                               0D0000244
     126     209       0       0       0       0       0       000010000D0000245
     126       0       0      10       0                               0D0000246
     110     219       0       0       0       0       0       000010000D0000247
     110       0       0       1       0                               0D0000248
     102     220       0       0       0       0       0       000010000D0000249
     102       0       0       1       0                               0D0000250
     104     221       0       0       0       0     253       000010000D0000251
     104       0       0       2       1                               0D0000252
     124     223       0       0       0       0       0       000000000D0000253
     124       0       0       2       0                               0D0000254
     110     225       0       0       0       0       0       000010000D0000255
     110       0       0       1       0                               0D0000256
     104     226       0       0       0       0     259       000010000D0000257
     104       0       0       2       1                               0D0000258
     124     228       0       0       0       0       0       000000000D0000259
     124       0       0       2       0                               0D0000260
     110     230       0       0       0       0       0       000010000D0000261
     110       0       0       1       0                               0D0000262
     144     231       0       0       0       0       0       000020000D0000263
     144       0       0       1       0                               0D0000264
     108     232       0       0       0       0       0       000010000D0000265
     108       0       0       1       0                               0D0000266
     142     233       0       0       0       0       0       000010500D0000267
     142       0       0       1       0                               0D0000268
     102     234       0       0       0       0       0       000010000D0000269
     102       0       0       1       0                               0D0000270
     110     235       0       0       0       0       0       000010000D0000271
     110       0       0       1       0                               0D0000272
     110     236       0       0       0       0       0       000010000D0000273
     110       0       0       1       0                               0D0000274
     110     237       0       0       0       0       0       000010000D0000275
     110       0       0       1       0                               0D0000276
     110     238       0       0       0       0       0       000010000D0000277
     110       0       0       1       0                               0D0000278
     144     239       0       0       0       0       0       000020000D0000279
     144       0       0       1       0                               0D0000280
     120     240       0       0       0       0     283       000010000D0000281
     120       0       0       1       0                               0D0000282
     124     241       0       0       0       0       0       000000000D0000283
     124       0       0       2       0                               0D0000284
     110     243       0       0       0       0       0       000010000D0000285
     110       0       0       1       0                               0D0000286
     110     244       0       0       0       0       0       000010000D0000287
     110       0       0       1       0                               0D0000288
     142     245       0       0       0       0       0       000010500D0000289
     142       0       0       1       0                               0D0000290
     102     246       0       0       0       0       0       000010000D0000291
     102       0       0       1       0                               0D0000292
     126     247       0       0       0       0       0       000010000D0000293
     126       0       0       9       0                               0D0000294
     110     256       0       0       0       0       0       000010000D0000295
     110       0       0       1       0                               0D0000296
     126     257       0       0       0       0       0       000010000D0000297
     126       0       0      10       0                               0D0000298
     110     267       0       0       0       0       0       000010000D0000299
     110       0       0       1       0                               0D0000300
     102     268       0       0       0       0       0       000010000D0000301
     102       0       0       1       0                               0D0000302
     104     269       0       0       0       0     305       000010000D0000303
     104       0       0       2       1                               0D0000304
     124     271       0       0       0       0       0       000000000D0000305
     124       0       0       2       0                               0D0000306
     110     273       0       0       0       0       0       000010000D0000307
     110       0       0       1       0                               0D0000308
     104     274       0       0       0       0     311       000010000D0000309
     104       0       0       2       1                               0D0000310
     124     276       0       0       0       0       0       000000000D0000311
     124       0       0       2       0                               0D0000312
     110     278       0       0       0       0       0       000010000D0000313
     110       0       0       1       0                               0D0000314
     144     279       0       0       0       0       0       000020000D0000315
     144       0       0       1       0                               0D0000316
     108     280       0       0       0       0       0       000010000D0000317
     108       0       0       1       0                               0D0000318
     142     281       0       0       0       0       0       000010500D0000319
     142       0       0       1       0                               0D0000320
     102     282       0       0       0       0       0       000010000D0000321
     102       0       0       1       0                               0D0000322
     110     283       0       0       0       0       0       000010000D0000323
     110       0       0       1       0                               0D0000324
     110     284       0       0       0       0       0       000010000D0000325
     110       0       0       1       0                               0D0000326
     110     285       0       0       0       0       0       000010000D0000327
     110       0       0       1       0                               0D0000328
     110     286       0       0       0       0       0       000010000D0000329
     110       0       0       1       0                               0D0000330
     144     287       0       0       0       0       0       000020000D0000331
     144       0       0       1       0                               0D0000332
     120     288       0       0       0       0     335       000010000D0000333
     120       0       0       1       0                               0D0000334
     124     289       0       0       0       0       0       000000000D0000335
     124       0       0       2       1                               0D0000336
     110     291       0       0       0       0       0       000010000D0000337
     110       0       0       1       0                               0D0000338
     110     292       0       0       0       0       0       000010000D0000339
     110       0       0       1       0                               0D0000340
     142     293       0       0       0       0       0       000010500D0000341
     142       0       0       1       0                               0D0000342
     102     294       0       0       0       0       0       000010000D0000343
     102       0       0       1       0                               0D0000344
     110     295       0       0       0       0       0       000010000D0000345
     110       0       0       1       0                               0D0000346
     126     296       0       0       0       0       0       000010000D0000347
     126       0       0      10       0                               0D0000348
     110     306       0       0       0       0       0       000010000D0000349
     110       0       0       1       0                               0D0000350
     126     307       0       0       0       0       0       000010000D0000351
     126       0       0       9       0                               0D0000352
     102     316       0       0       0       0       0       000010000D0000353
     102       0       0       1       0                               0D0000354
     110     317       0       0       0       0       0       000010000D0000355
     110       0       0       1       0                               0D0000356
     104     318       0       0       0       0     359       000010000D0000357
     104       0       0       2       1                               0D0000358
     124     320       0       0       0       0       0       000000000D0000359
     124       0       0       2       0                               0D0000360
     110     322       0       0       0       0       0       000010000D0000361
     110       0       0       1       0                               0D0000362
     104     323       0       0       0       0     365       000010000D0000363
     104       0       0       2       1                               0D0000364
     124     325       0       0       0       0       0       000000000D0000365
     124       0       0       2       0                               0D0000366
     144     327       0       0       0       0       0       000020000D0000367
     144       0       0       1       0                               0D0000368
     108     328       0       0       0       0       0       000010000D0000369
     108       0       0       1       0                               0D0000370
     142     329       0       0       0       0       0       000010500D0000371
     142       0       0       1       0                               0D0000372
     102     330       0       0       0       0       0       000010000D0000373
     102       0       0       1       0                               0D0000374
     110     331       0       0       0       0       0       000010000D0000375
     110       0       0       1       0                               0D0000376
     110     332       0       0       0       0       0       000010000D0000377
     110       0       0       1       0                               0D0000378
     110     333       0       0       0       0       0       000010000D0000379
     110       0       0       1       0                               0D0000380
     110     334       0       0       0       0       0       000010000D0000381
     110       0       0       1       0                               0D0000382
     144     335       0       0       0       0       0       000020000D0000383
     144       0       0       1       0                               0D0000384
     120     336       0       0       0       0     387       000010000D0000385
     120       0       0       1       0                               0D0000386
     124     337       0       0       0       0       0       000000000D0000387
     124       0       0       1       1                               0D0000388
     110     338       0       0       0       0       0       000010000D0000389
     110       0       0       1       0                               0D0000390
     110     339       0       0       0       0       0       000010000D0000391
     110       0       0       1       0                               0D0000392
     142     340       0       0       0       0       0       000010500D0000393
     142       0       0       1       0                               0D0000394
     102     341       0       0       0       0       0       000010000D0000395
     102       0       0       1       0                               0D0000396
     110     342       0       0       0       0       0       000010000D0000397
     110       0       0       2       0                               0D0000398
     126     344       0       0       0       0       0       000010000D0000399
     126       0       0       8       0                               0D0000400
     110     352       0       0       0       0       0       000010000D0000401
     110       0       0       1       0                               0D0000402
     126     353       0       0       0       0       0       000010000D0000403
     126       0       0       9       0                               0D0000404
     102     362       0       0       0       0       0       000010000D0000405
     102       0       0       1       0                               0D0000406
     110     363       0       0       0       0       0       000010000D0000407
     110       0       0       1       0                               0D0000408
     104     364       0       0       0       0     411       000010000D0000409
     104       0       0       2       1                               0D0000410
     124     366       0       0       0       0       0       000000000D0000411
     124       0       0       2       0                               0D0000412
     110     368       0       0       0       0       0       000010000D0000413
     110       0       0       1       0                               0D0000414
     104     369       0       0       0       0     417       000010000D0000415
     104       0       0       2       1                               0D0000416
     124     371       0       0       0       0       0       000000000D0000417
     124       0       0       2       0                               0D0000418
     144     373       0       0       0       0       0       000020000D0000419
     144       0       0       1       0                               0D0000420
     108     374       0       0       0       0       0       000010000D0000421
     108       0       0       1       0                               0D0000422
     142     375       0       0       0       0       0       000010500D0000423
     142       0       0       1       0                               0D0000424
     102     376       0       0       0       0       0       000010000D0000425
     102       0       0       1       0                               0D0000426
     110     377       0       0       0       0       0       000010000D0000427
     110       0       0       1       0                               0D0000428
     110     378       0       0       0       0       0       000010000D0000429
     110       0       0       1       0                               0D0000430
     110     379       0       0       0       0       0       000010000D0000431
     110       0       0       1       0                               0D0000432
     110     380       0       0       0       0       0       000010000D0000433
     110       0       0       1       0                               0D0000434
     144     381       0       0       0       0       0       000020000D0000435
     144       0       0       1       0                               0D0000436
     120     382       0       0       0       0     439       000010000D0000437
     120       0       0       1       0                               0D0000438
     124     383       0       0       0       0       0       000000000D0000439
     124       0       0       2       1                               0D0000440
     110     385       0       0       0       0       0       000010000D0000441
     110       0       0       1       0                               0D0000442
     110     386       0       0       0       0       0       000010000D0000443
     110       0       0       1       0                               0D0000444
     142     387       0       0       0       0       0       000010500D0000445
     142       0       0       1       0                               0D0000446
     102     388       0       0       0       0       0       000010000D0000447
     102       0       0       1       0                               0D0000448
     110     389       0       0       0       0       0       000010000D0000449
     110       0       0       2       0                               0D0000450
     126     391       0       0       0       0       0       000010000D0000451
     126       0       0       9       0                               0D0000452
     110     400       0       0       0       0       0       000010000D0000453
     110       0       0       1       0                               0D0000454
     126     401       0       0       0       0       0       000010000D0000455
     126       0       0       9       0                               0D0000456
     102     410       0       0       0       0       0       000010000D0000457
     102       0       0       1       0                               0D0000458
     110     411       0       0       0       0       0       000010000D0000459
     110       0       0       1       0                               0D0000460
     104     412       0       0       0       0     463       000010000D0000461
     104       0       0       2       1                               0D0000462
     124     414       0       0       0       0       0       000000000D0000463
     124       0       0       2       0                               0D0000464
     110     416       0       0       0       0       0       000010000D0000465
     110       0       0       1       0                               0D0000466
     104     417       0       0       0       0     469       000010000D0000467
     104       0       0       2       1                               0D0000468
     124     419       0       0       0       0       0       000000000D0000469
     124       0       0       2       0                               0D0000470
     144     421       0       0       0       0       0       000020000D0000471
     144       0       0       1       0                               0D0000472
     108     422       0       0       0       0       0       000010000D0000473
     108       0       0       1       0                               0D0000474
     142     423       0       0       0       0       0       000010500D0000475
     142       0       0       1       0                               0D0000476
     102     424       0       0       0       0       0       000010000D0000477
     102       0       0       1       0                               0D0000478
     110     425       0       0       0       0       0       000010000D0000479
     110       0       0       1       0                               0D0000480
     110     426       0       0       0       0       0       000010000D0000481
     110       0       0       1       0                               0D0000482
     110     427       0       0       0       0       0       000010000D0000483
     110       0       0       1       0                               0D0000484
     110     428       0       0       0       0       0       000010000D0000485
     110       0       0       1       0                               0D0000486
     144     429       0       0       0       0       0       000020000D0000487
     144       0       0       1       0                               0D0000488
     120     430       0       0       0       0     491       000010000D0000489
     120       0       0       1       0                               0D0000490
     124     431       0       0       0       0       0       000000000D0000491
     124       0       0       1       1                               0D0000492
     110     432       0       0       0       0       0       000010000D0000493
     110       0       0       1       0                               0D0000494
     110     433       0       0       0       0       0       000010000D0000495
     110       0       0       1       0                               0D0000496
     142     434       0       0       0       0       0       000010500D0000497
     142       0       0       1       0                               0D0000498
     102     435       0       0       0       0       0       000010000D0000499
     102       0       0       1       0                               0D0000500
     110     436       0       0       0       0       0       000010000D0000501
     110       0       0       1       0                               0D0000502
     126     437       0       0       0       0       0       000010000D0000503
     126       0       0       9       0                               0D0000504
     110     446       0       0       0       0       0       000010000D0000505
     110       0       0       1       0                               0D0000506
     126     447       0       0       0       0       0       000010000D0000507
     126       0       0      10       0                               0D0000508
     102     457       0       0       0       0       0       000010000D0000509
     102       0       0       1       0                               0D0000510
     110     458       0       0       0       0       0       000010000D0000511
     110       0       0       1       0                               0D0000512
     104     459       0       0       0       0     515       000010000D0000513
     104       0       0       2       1                               0D0000514
     124     461       0       0       0       0       0       000000000D0000515
     124       0       0       2       0                               0D0000516
     110     463       0       0       0       0       0       000010000D0000517
     110       0       0       1       0                               0D0000518
     104     464       0       0       0       0     521       000010000D0000519
     104       0       0       2       1                               0D0000520
     124     466       0       0       0       0       0       000000000D0000521
     124       0       0       2       0                               0D0000522
     144     468       0       0       0       0       0       000020000D0000523
     144       0       0       1       0                               0D0000524
     108     469       0       0       0       0       0       000010000D0000525
     108       0       0       1       0                               0D0000526
     142     470       0       0       0       0       0       000010500D0000527
     142       0       0       1       0                               0D0000528
     102     471       0       0       0       0       0       000010000D0000529
     102       0       0       1       0                               0D0000530
     110     472       0       0       0       0       0       000010000D0000531
     110       0       0       1       0                               0D0000532
     110     473       0       0       0       0       0       000010000D0000533
     110       0       0       1       0                               0D0000534
     110     474       0       0       0       0       0       000010000D0000535
     110       0       0       1       0                               0D0000536
     110     475       0       0       0       0       0       000010000D0000537
     110       0       0       1       0                               0D0000538
402,18,3,19,55,115,151,211,227,263,279,315,331,367,383,419,435,  0000001P0000001
471,487,523;                                                     0000001P0000002
144,5,1,0,7;                                                     0000003P0000003
108,1.,0.,0.,20.,0,20.,-140.,-7.,0.;                             0000005P0000004
142,0,5,0,9,2;                                                   0000007P0000005
102,4,11,13,15,17;                                               0000009P0000006
110,20.,1.6E+03,7.,20.,0.,7.;                                    0000011P0000007
110,20.,1.98951966E-13,7.,20.,1.98951966E-13,-7.;                0000013P0000008
110,20.,0.,-7.,20.,1.6E+03,-7.;                                  0000015P0000009
110,20.,1.6E+03,-7.,20.,1.6E+03,7.;                              0000017P0000010
144,21,1,0,29;                                                   0000019P0000011
120,25,27,4.71238898,6.283185307;                                0000021P0000012
124,1.,-5.921189465E-16,0.,17.,0.,0.,-1.,-140.,5.921189465E-16,  0000023P0000013
1.,0.,7.;                                                        0000023P0000014
110,0.,0.,1.,0.,0.,0.;                                           0000025P0000015
110,3.,0.,-1.74E+03,3.,0.,-140.;                                 0000027P0000016
142,0,21,31,41,3;                                                0000029P0000017
102,4,33,35,37,39;                                               0000031P0000018
126,8,8,1,0,1,0,5.921189465E-16,5.921189465E-16,5.921189465E-16, 0000033P0000019
5.921189465E-16,5.921189465E-16,5.921189465E-16,5.921189465E-16, 0000033P0000020
5.921189465E-16,5.921189465E-16,1.570796327,1.570796327,         0000033P0000021
1.570796327,1.570796327,1.570796327,1.570796327,1.570796327,     0000033P0000022
1.570796327,1.570796327,1.,1.,1.,1.,1.,1.,1.,1.,1.,0.998125,     0000033P0000023
4.71238898,0.,0.998493155,4.908738521,0.,0.998861311,            0000033P0000024
5.105088062,0.,0.999207837,5.301437603,0.,0.99951111,            0000033P0000025
5.497787144,0.,0.999752159,5.694136685,0.,0.999917386,           0000033P0000026
5.890486225,0.,1.,6.086835766,0.,1.,6.283185307,0.,              0000033P0000027
5.921189465E-16,1.570796327,0.,0.,1.;                            0000033P0000028
110,1.,6.283185307,0.,5.551115123E-16,6.283185307,0.;            0000035P0000029
126,8,8,1,0,1,0,1.570796327,1.570796327,1.570796327,1.570796327, 0000037P0000030
1.570796327,1.570796327,1.570796327,1.570796327,1.570796327,     0000037P0000031
3.141592654,3.141592654,3.141592654,3.141592654,3.141592654,     0000037P0000032
3.141592654,3.141592654,3.141592654,3.141592654,1.,1.,1.,1.,1.,  0000037P0000033
1.,1.,1.,1.,0.,6.283185307,0.,-2.724897264E-20,6.086835766,0.,   0000037P0000034
8.261395458E-05,5.890486225,0.,2.478411648E-04,5.694136685,0.,   0000037P0000035
4.888898466E-04,5.497787144,0.,7.921626372E-04,5.301437603,0.,   0000037P0000036
1.138689135E-03,5.105088062,0.,1.506844611E-03,4.908738521,0.,   0000037P0000037
1.875E-03,4.71238898,0.,1.570796327,3.141592654,0.,0.,1.;        0000037P0000038
110,1.875E-03,4.71238898,0.,0.998125,4.71238898,0.;              0000039P0000039
102,4,43,47,49,53;                                               0000041P0000040
104,5.555555556E-02,0.,0.111111111,0.,-0.,-1.,0.,0.,-3.,         0000043P0000041
4.242640687,-3.552713679E-15;                                    0000043P0000042
124,0.707106781,0.,0.707106781,17.,-0.707106781,0.,0.707106781,  0000045P0000043
3.,0.,-1.,0.,7.;                                                 0000045P0000044
110,20.,0.,7.,20.,1.6E+03,7.;                                    0000047P0000045
104,5.555555556E-02,0.,0.111111111,0.,-0.,-1.,0.,-4.242640687,   0000049P0000046
-8.881784197E-16,0.,-3.;                                         0000049P0000047
124,-0.707106781,0.,0.707106781,17.,-0.707106781,0.,             0000051P0000048
-0.707106781,1.597E+03,0.,-1.,0.,7.;                             0000051P0000049
110,17.,1.597E+03,10.,17.,3.,10.;                                0000053P0000050
144,57,1,1,59,87;                                                0000055P0000051
108,-0.707106781,0.707106781,0.,1.117228714E+03,0,               0000057P0000052
-7.051067812E+03,-5.471067812E+03,-1.E+04,0.;                    0000057P0000053
142,0,57,0,61,2;                                                 0000059P0000054
102,8,63,67,69,73,75,79,81,85;                                   0000061P0000055
104,0.222222222,0.,0.444444444,0.,-0.,-1.,0.,-2.121320344,       0000063P0000056
1.776356839E-15,0.,-1.5;                                         0000063P0000057
124,-0.707106781,0.,0.707106781,17.,-0.707106781,0.,             0000065P0000058
-0.707106781,1.597E+03,0.,-1.,0.,7.;                             0000065P0000059
110,17.,1.597E+03,8.5,-17.,1.563E+03,8.5;                        0000067P0000060
104,0.222222222,0.,0.444444444,0.,-0.,-1.,0.,0.,-1.5,            0000069P0000061
2.121320344,8.881784197E-16;                                     0000069P0000062
124,-0.707106781,0.,0.707106781,-17.,-0.707106781,0.,            0000071P0000063
-0.707106781,1.563E+03,0.,-1.,0.,7.;                             0000071P0000064
110,-18.5,1.5615E+03,7.,-18.5,1.5615E+03,-7.;                    0000073P0000065
104,0.222222222,0.,0.444444444,0.,-0.,-1.,0.,2.121320344,        0000075P0000066
-8.881784197E-16,0.,1.5;                                         0000075P0000067
124,-0.707106781,0.,0.707106781,-17.,-0.707106781,0.,            0000077P0000068
-0.707106781,1.563E+03,0.,-1.,0.,-7.;                            0000077P0000069
110,-17.,1.563E+03,-8.5,17.,1.597E+03,-8.5;                      0000079P0000070
104,0.222222222,0.,0.444444444,0.,-0.,-1.,0.,0.,1.5,             0000081P0000071
-2.121320344,-1.776356839E-15;                                   0000081P0000072
124,-0.707106781,0.,0.707106781,17.,-0.707106781,0.,             0000083P0000073
-0.707106781,1.597E+03,0.,-1.,0.,-7.;                            0000083P0000074
110,18.5,1.5985E+03,-7.,18.5,1.5985E+03,7.;                      0000085P0000075
142,0,57,0,89,2;                                                 0000087P0000076
102,8,91,93,97,99,103,105,109,111;                               0000089P0000077
110,20.,1.6E+03,7.,20.,1.6E+03,-7.;                              0000091P0000078
104,5.555555556E-02,0.,0.111111111,0.,-0.,-1.,0.,-4.242640687,   0000093P0000079
-8.881784197E-16,0.,-3.;                                         0000093P0000080
124,-0.707106781,0.,-0.707106781,17.,-0.707106781,0.,            0000095P0000081
0.707106781,1.597E+03,0.,1.,0.,-7.;                              0000095P0000082
110,17.,1.597E+03,-10.,-17.,1.563E+03,-10.;                      0000097P0000083
104,5.555555556E-02,0.,0.111111111,0.,-0.,-1.,0.,0.,-3.,         0000099P0000084
4.242640687,-3.552713679E-15;                                    0000099P0000085
124,-0.707106781,0.,-0.707106781,-17.,-0.707106781,0.,           0000101P0000086
0.707106781,1.563E+03,0.,1.,0.,-7.;                              0000101P0000087
110,-20.,1.56E+03,-7.,-20.,1.56E+03,7.;                          0000103P0000088
104,5.555555556E-02,0.,0.111111111,0.,-0.,-1.,0.,4.242640687,    0000105P0000089
1.776356839E-15,0.,3.;                                           0000105P0000090
124,-0.707106781,0.,-0.707106781,-17.,-0.707106781,0.,           0000107P0000091
0.707106781,1.563E+03,0.,1.,0.,7.;                               0000107P0000092
110,-17.,1.563E+03,10.,17.,1.597E+03,10.;                        0000109P0000093
104,5.555555556E-02,0.,0.111111111,0.,-0.,-1.,0.,0.,3.,          0000111P0000094
-4.242640687,1.776356839E-15;                                    0000111P0000095
124,-0.707106781,0.,-0.707106781,17.,-0.707106781,0.,            0000113P0000096
0.707106781,1.597E+03,0.,1.,0.,7.;                               0000113P0000097
144,117,1,0,125;                                                 0000115P0000098
120,121,123,4.71238898,6.283185307;                              0000117P0000099
124,0.,1.,0.,17.,0.,0.,-1.,-140.,-1.,0.,0.,-7.;                  0000119P0000100
110,0.,0.,1.,0.,0.,0.;                                           0000121P0000101
110,3.,0.,-1.74E+03,3.,0.,-140.;                                 0000123P0000102
142,0,117,127,137,3;                                             0000125P0000103
102,4,129,131,133,135;                                           0000127P0000104
126,8,8,1,0,1,0,4.71238898,4.71238898,4.71238898,4.71238898,     0000129P0000105
4.71238898,4.71238898,4.71238898,4.71238898,4.71238898,          0000129P0000106
6.283185307,6.283185307,6.283185307,6.283185307,6.283185307,     0000129P0000107
6.283185307,6.283185307,6.283185307,6.283185307,1.,1.,1.,1.,1.,  0000129P0000108
1.,1.,1.,1.,1.,4.71238898,0.,1.,4.908738521,0.,0.999917386,      0000129P0000109
5.105088062,0.,0.999752159,5.301437603,0.,0.99951111,            0000129P0000110
5.497787144,0.,0.999207837,5.694136685,0.,0.998861311,           0000129P0000111
5.890486225,0.,0.998493155,6.086835766,0.,0.998125,6.283185307,  0000129P0000112
0.,4.71238898,6.283185307,0.,0.,1.;                              0000129P0000113
110,0.998125,6.283185307,0.,1.875E-03,6.283185307,0.;            0000131P0000114
126,8,8,1,0,1,0,3.141592654,3.141592654,3.141592654,3.141592654, 0000133P0000115
3.141592654,3.141592654,3.141592654,3.141592654,3.141592654,     0000133P0000116
4.71238898,4.71238898,4.71238898,4.71238898,4.71238898,          0000133P0000117
4.71238898,4.71238898,4.71238898,4.71238898,1.,1.,1.,1.,1.,1.,   0000133P0000118
1.,1.,1.,1.875E-03,6.283185307,0.,1.506844611E-03,6.086835766,   0000133P0000119
0.,1.138689136E-03,5.890486225,0.,7.921626262E-04,5.694136685,   0000133P0000120
0.,4.888898483E-04,5.497787144,0.,2.478411567E-04,5.301437603,   0000133P0000121
0.,8.261395633E-05,5.105088062,0.,-1.907428085E-19,4.908738521,  0000133P0000122
0.,-2.179917811E-19,4.71238898,0.,3.141592654,4.71238898,0.,0.,  0000133P0000123
1.;                                                              0000133P0000124
110,5.551115123E-16,4.71238898,0.,1.,4.71238898,0.;              0000135P0000125
102,4,139,143,145,149;                                           0000137P0000126
104,5.555555556E-02,0.,0.111111111,0.,-0.,-1.,0.,4.242640687,    0000139P0000127
2.664535259E-15,0.,3.;                                           0000139P0000128
124,0.707106781,0.,0.707106781,17.,-0.707106781,0.,0.707106781,  0000141P0000129
3.,0.,-1.,0.,-7.;                                                0000141P0000130
110,17.,3.,-10.,17.,1.597E+03,-10.;                              0000143P0000131
104,5.555555556E-02,0.,0.111111111,0.,-0.,-1.,0.,0.,3.,          0000145P0000132
-4.242640687,1.776356839E-15;                                    0000145P0000133
124,-0.707106781,0.,0.707106781,17.,-0.707106781,0.,             0000147P0000134
-0.707106781,1.597E+03,0.,-1.,0.,-7.;                            0000147P0000135
110,20.,1.6E+03,-7.,20.,0.,-7.;                                  0000149P0000136
144,153,1,1,155,183;                                             0000151P0000137
108,-0.707106781,-0.707106781,0.,-14.142135624,0,                0000153P0000138
-7.051067812E+03,7.071067812E+03,1.E+04,0.;                      0000153P0000139
142,0,153,0,157,2;                                               0000155P0000140
102,8,159,163,165,169,171,175,177,181;                           0000157P0000141
104,0.222222222,0.,0.444444444,0.,-0.,-1.,0.,0.,-1.5,            0000159P0000142
2.121320344,8.881784197E-16;                                     0000159P0000143
124,0.707106781,0.,0.707106781,17.,-0.707106781,0.,0.707106781,  0000161P0000144
3.,0.,-1.,0.,7.;                                                 0000161P0000145
110,18.5,1.5,7.,18.5,1.5,-7.;                                    0000163P0000146
104,0.222222222,0.,0.444444444,0.,-0.,-1.,0.,2.121320344,        0000165P0000147
-8.881784197E-16,0.,1.5;                                         0000165P0000148
124,0.707106781,0.,0.707106781,17.,-0.707106781,0.,0.707106781,  0000167P0000149
3.,0.,-1.,0.,-7.;                                                0000167P0000150
110,17.,3.,-8.5,-17.,37.,-8.5;                                   0000169P0000151
104,0.222222222,0.,0.444444444,0.,-0.,-1.,0.,0.,1.5,             0000171P0000152
-2.121320344,-1.776356839E-15;                                   0000171P0000153
124,0.707106781,0.,0.707106781,-17.,-0.707106781,0.,0.707106781, 0000173P0000154
37.,0.,-1.,0.,-7.;                                               0000173P0000155
110,-18.5,38.5,-7.,-18.5,38.5,7.;                                0000175P0000156
104,0.222222222,0.,0.444444444,0.,-0.,-1.,0.,-2.121320344,       0000177P0000157
1.776356839E-15,0.,-1.5;                                         0000177P0000158
124,0.707106781,0.,0.707106781,-17.,-0.707106781,0.,0.707106781, 0000179P0000159
37.,0.,-1.,0.,7.;                                                0000179P0000160
110,-17.,37.,8.5,17.,3.,8.5;                                     0000181P0000161
142,0,153,0,185,2;                                               0000183P0000162
102,8,187,189,193,195,199,201,205,207;                           0000185P0000163
110,20.,1.98951966E-13,-7.,20.,1.98951966E-13,7.;                0000187P0000164
104,5.555555556E-02,0.,0.111111111,0.,-0.,-1.,0.,4.242640687,    0000189P0000165
1.776356839E-15,0.,3.;                                           0000189P0000166
124,0.707106781,0.,-0.707106781,17.,-0.707106781,0.,             0000191P0000167
-0.707106781,3.,0.,1.,0.,7.;                                     0000191P0000168
110,17.,3.,10.,-17.,37.,10.;                                     0000193P0000169
104,5.555555556E-02,0.,0.111111111,0.,-0.,-1.,0.,0.,3.,          0000195P0000170
-4.242640687,1.776356839E-15;                                    0000195P0000171
124,0.707106781,0.,-0.707106781,-17.,-0.707106781,0.,            0000197P0000172
-0.707106781,37.,0.,1.,0.,7.;                                    0000197P0000173
110,-20.,40.,7.,-20.,40.,-7.;                                    0000199P0000174
104,5.555555556E-02,0.,0.111111111,0.,-0.,-1.,0.,-4.242640687,   0000201P0000175
-8.881784197E-16,0.,-3.;                                         0000201P0000176
124,0.707106781,0.,-0.707106781,-17.,-0.707106781,0.,            0000203P0000177
-0.707106781,37.,0.,1.,0.,-7.;                                   0000203P0000178
110,-17.,37.,-10.,17.,3.,-10.;                                   0000205P0000179
104,5.555555556E-02,0.,0.111111111,0.,-0.,-1.,0.,0.,-3.,         0000207P0000180
4.242640687,-3.552713679E-15;                                    0000207P0000181
124,0.707106781,0.,-0.707106781,17.,-0.707106781,0.,             0000209P0000182
-0.707106781,3.,0.,1.,0.,-7.;                                    0000209P0000183
144,213,1,0,215;                                                 0000211P0000184
108,0.,-0.,1.,10.,0,17.,-140.,10.,0.;                            0000213P0000185
142,0,213,0,217,2;                                               0000215P0000186
102,4,219,221,223,225;                                           0000217P0000187
110,-17.,1.563E+03,10.,-17.,37.,10.;                             0000219P0000188
110,-17.,37.,10.,17.,3.,10.;                                     0000221P0000189
110,17.,3.,10.,17.,1.597E+03,10.;                                0000223P0000190
110,17.,1.597E+03,10.,-17.,1.563E+03,10.;                        0000225P0000191
144,229,1,0,237;                                                 0000227P0000192
120,233,235,4.71238898,6.283185307;                              0000229P0000193
124,0.,-1.,0.,-17.,0.,0.,-1.,-140.,1.,0.,0.,7.;                  0000231P0000194
110,0.,0.,1.,0.,0.,0.;                                           0000233P0000195
110,3.,0.,-1.703E+03,3.,0.,-177.;                                0000235P0000196
142,0,229,239,249,3;                                             0000237P0000197
102,4,241,243,245,247;                                           0000239P0000198
126,8,8,1,0,1,0,1.570796327,1.570796327,1.570796327,1.570796327, 0000241P0000199
1.570796327,1.570796327,1.570796327,1.570796327,1.570796327,     0000241P0000200
3.141592654,3.141592654,3.141592654,3.141592654,3.141592654,     0000241P0000201
3.141592654,3.141592654,3.141592654,3.141592654,1.,1.,1.,1.,1.,  0000241P0000202
1.,1.,1.,1.,0.998034076,4.71238898,0.,0.998034076,4.908738521,   0000241P0000203
0.,0.998120696,5.105088062,0.,0.998293936,5.301437603,0.,        0000241P0000204
0.998546673,5.497787144,0.,0.998864653,5.694136685,0.,           0000241P0000205
0.999227983,5.890486225,0.,0.999613992,6.086835766,0.,1.,        0000241P0000206
6.283185307,0.,1.570796327,3.141592654,-0.,-0.,1.;               0000241P0000207
110,1.,6.283185307,0.,-3.330669074E-16,6.283185307,0.;           0000243P0000208
126,8,8,1,0,1,0,5.921189465E-16,5.921189465E-16,5.921189465E-16, 0000245P0000209
5.921189465E-16,5.921189465E-16,5.921189465E-16,5.921189465E-16, 0000245P0000210
5.921189465E-16,5.921189465E-16,1.570796327,1.570796327,         0000245P0000211
1.570796327,1.570796327,1.570796327,1.570796327,1.570796327,     0000245P0000212
1.570796327,1.570796327,1.,1.,1.,1.,1.,1.,1.,1.,1.,0.,           0000245P0000213
6.283185307,0.,3.860082717E-04,6.086835766,0.,7.720166345E-04,   0000245P0000214
5.890486225,0.,1.135347174E-03,5.694136685,0.,1.453326505E-03,   0000245P0000215
5.497787144,0.,1.706064315E-03,5.301437603,0.,1.879303848E-03,   0000245P0000216
5.105088062,0.,1.965923984E-03,4.908738521,0.,1.965923984E-03,   0000245P0000217
4.71238898,0.,5.921189465E-16,1.570796327,-0.,-0.,1.;            0000245P0000218
110,1.965923984E-03,4.71238898,0.,0.998034076,4.71238898,0.;     0000247P0000219
102,4,251,255,257,261;                                           0000249P0000220
104,5.555555556E-02,0.,0.111111111,0.,-0.,-1.,0.,-4.242640687,   0000251P0000221
-8.881784197E-16,0.,-3.;                                         0000251P0000222
124,0.707106781,0.,0.707106781,-17.,-0.707106781,0.,0.707106781, 0000253P0000223
37.,0.,-1.,0.,7.;                                                0000253P0000224
110,-17.,37.,10.,-17.,1.563E+03,10.;                             0000255P0000225
104,5.555555556E-02,0.,0.111111111,0.,-0.,-1.,0.,0.,-3.,         0000257P0000226
4.242640687,-3.552713679E-15;                                    0000257P0000227
124,-0.707106781,0.,0.707106781,-17.,-0.707106781,0.,            0000259P0000228
-0.707106781,1.563E+03,0.,-1.,0.,7.;                             0000259P0000229
110,-20.,1.56E+03,7.,-20.,40.,7.;                                0000261P0000230
144,265,1,0,267;                                                 0000263P0000231
108,-1.,0.,0.,20.,0,-20.,-140.,7.,0.;                            0000265P0000232
142,0,265,0,269,2;                                               0000267P0000233
102,4,271,273,275,277;                                           0000269P0000234
110,-20.,1.56E+03,-7.,-20.,40.,-7.;                              0000271P0000235
110,-20.,40.,-7.,-20.,40.,7.;                                    0000273P0000236
110,-20.,40.,7.,-20.,1.56E+03,7.;                                0000275P0000237
110,-20.,1.56E+03,7.,-20.,1.56E+03,-7.;                          0000277P0000238
144,281,1,0,289;                                                 0000279P0000239
120,285,287,4.71238898,6.283185307;                              0000281P0000240
124,-1.,5.921189465E-16,0.,-17.,-0.,0.,-1.,-140.,                0000283P0000241
-5.921189465E-16,-1.,0.,-7.;                                     0000283P0000242
110,0.,0.,1.,0.,0.,0.;                                           0000285P0000243
110,3.,0.,-1.703E+03,3.,0.,-177.;                                0000287P0000244
142,0,281,291,301,3;                                             0000289P0000245
102,4,293,295,297,299;                                           0000291P0000246
126,8,8,1,0,1,0,3.141592654,3.141592654,3.141592654,3.141592654, 0000293P0000247
3.141592654,3.141592654,3.141592654,3.141592654,3.141592654,     0000293P0000248
4.71238898,4.71238898,4.71238898,4.71238898,4.71238898,          0000293P0000249
4.71238898,4.71238898,4.71238898,4.71238898,1.,1.,1.,1.,1.,1.,   0000293P0000250
1.,1.,1.,1.,4.71238898,0.,0.999613992,4.908738521,0.,            0000293P0000251
0.999227983,5.105088062,0.,0.998864653,5.301437603,0.,           0000293P0000252
0.998546673,5.497787144,0.,0.998293936,5.694136685,0.,           0000293P0000253
0.998120696,5.890486225,0.,0.998034076,6.086835766,0.,           0000293P0000254
0.998034076,6.283185307,0.,3.141592654,4.71238898,-0.,-0.,1.;    0000293P0000255
110,0.998034076,6.283185307,0.,1.965923984E-03,6.283185307,0.;   0000295P0000256
126,8,8,1,0,1,0,4.71238898,4.71238898,4.71238898,4.71238898,     0000297P0000257
4.71238898,4.71238898,4.71238898,4.71238898,4.71238898,          0000297P0000258
6.283185307,6.283185307,6.283185307,6.283185307,6.283185307,     0000297P0000259
6.283185307,6.283185307,6.283185307,6.283185307,1.,1.,1.,1.,1.,  0000297P0000260
1.,1.,1.,1.,1.965923984E-03,6.283185307,0.,1.965923984E-03,      0000297P0000261
6.086835766,0.,1.879303849E-03,5.890486225,0.,1.706064314E-03,   0000297P0000262
5.694136685,0.,1.45332651E-03,5.497787144,0.,1.135347173E-03,    0000297P0000263
5.301437603,0.,7.720166353E-04,5.105088062,0.,3.860082717E-04,   0000297P0000264
4.908738521,0.,-2.285628111E-19,4.71238898,0.,4.71238898,        0000297P0000265
6.283185307,-0.,-0.,1.;                                          0000297P0000266
110,-3.330669074E-16,4.71238898,0.,1.,4.71238898,0.;             0000299P0000267
102,4,303,307,309,313;                                           0000301P0000268
104,5.555555556E-02,0.,0.111111111,0.,-0.,-1.,0.,0.,3.,          0000303P0000269
-4.242640687,1.776356839E-15;                                    0000303P0000270
124,0.707106781,0.,0.707106781,-17.,-0.707106781,0.,0.707106781, 0000305P0000271
37.,0.,-1.,0.,-7.;                                               0000305P0000272
110,-20.,40.,-7.,-20.,1.56E+03,-7.;                              0000307P0000273
104,5.555555556E-02,0.,0.111111111,0.,-0.,-1.,0.,4.242640687,    0000309P0000274
2.664535259E-15,0.,3.;                                           0000309P0000275
124,-0.707106781,0.,0.707106781,-17.,-0.707106781,0.,            0000311P0000276
-0.707106781,1.563E+03,0.,-1.,0.,-7.;                            0000311P0000277
110,-17.,1.563E+03,-10.,-17.,37.,-10.;                           0000313P0000278
144,317,1,0,319;                                                 0000315P0000279
108,0.,0.,-1.,10.,0,-17.,-140.,-10.,0.;                          0000317P0000280
142,0,317,0,321,2;                                               0000319P0000281
102,4,323,325,327,329;                                           0000321P0000282
110,17.,1.597E+03,-10.,17.,3.,-10.;                              0000323P0000283
110,17.,3.,-10.,-17.,37.,-10.;                                   0000325P0000284
110,-17.,37.,-10.,-17.,1.563E+03,-10.;                           0000327P0000285
110,-17.,1.563E+03,-10.,17.,1.597E+03,-10.;                      0000329P0000286
144,333,1,0,341;                                                 0000331P0000287
120,337,339,0.,1.570796327;                                      0000333P0000288
124,1.,-1.184237893E-15,0.,17.,0.,-0.,-1.,-140.,                 0000335P0000289
-1.184237893E-15,-1.,0.,7.;                                      0000335P0000290
110,0.,0.,1.,0.,0.,0.;                                           0000337P0000291
110,1.5,0.,-1.7385E+03,1.5,0.,-141.5;                            0000339P0000292
142,0,333,343,353,3;                                             0000341P0000293
102,4,345,347,349,351;                                           0000343P0000294
110,-3.330669074E-16,2.109423747E-15,0.,1.,3.567146578E-13,0.;   0000345P0000295
126,7,7,1,0,1,0,-8.881784197E-16,-8.881784197E-16,               0000347P0000296
-8.881784197E-16,-8.881784197E-16,-8.881784197E-16,              0000347P0000297
-8.881784197E-16,-8.881784197E-16,-8.881784197E-16,1.570796327,  0000347P0000298
1.570796327,1.570796327,1.570796327,1.570796327,1.570796327,     0000347P0000299
1.570796327,1.570796327,1.,1.,1.,1.,1.,1.,1.,1.,1.,              0000347P0000300
3.570477247E-13,0.,1.,0.224399475,0.,0.99994482,0.448798951,0.,  0000347P0000301
0.999834467,0.673198426,0.,0.999675717,0.897597901,0.,           0000347P0000302
0.999482277,1.121997376,0.,0.999271509,1.346396852,0.,           0000347P0000303
0.999060739,1.570796327,0.,-8.881784197E-16,1.570796327,0.,0.,   0000347P0000304
1.;                                                              0000347P0000305
110,0.999060739,1.570796327,0.,9.392611146E-04,1.570796327,0.;   0000349P0000306
126,7,7,1,0,1,0,1.570796327,1.570796327,1.570796327,1.570796327, 0000351P0000307
1.570796327,1.570796327,1.570796327,1.570796327,3.141592654,     0000351P0000308
3.141592654,3.141592654,3.141592654,3.141592654,3.141592654,     0000351P0000309
3.141592654,3.141592654,1.,1.,1.,1.,1.,1.,1.,1.,9.392611146E-04, 0000351P0000310
1.570796327,0.,7.284914133E-04,1.346396852,0.,5.177225679E-04,   0000351P0000311
1.121997376,0.,3.242828812E-04,0.897597901,0.,1.655330258E-04,   0000351P0000312
0.673198426,0.,5.518034378E-05,0.448798951,0.,-8.424049508E-19,  0000351P0000313
0.224399475,0.,-8.736051341E-19,1.776356839E-15,0.,1.570796327,  0000351P0000314
3.141592654,0.,0.,1.;                                            0000351P0000315
102,4,355,357,361,363;                                           0000353P0000316
110,18.5,1.5985E+03,7.,18.5,1.5,7.;                              0000355P0000317
104,0.222222222,0.,0.444444444,0.,-0.,-1.,0.,2.121320344,        0000357P0000318
-8.881784197E-16,0.,1.5;                                         0000357P0000319
124,0.707106781,0.,-0.707106781,17.,-0.707106781,0.,             0000359P0000320
-0.707106781,3.,0.,1.,0.,7.;                                     0000359P0000321
110,17.,3.,8.5,17.,1.597E+03,8.5;                                0000361P0000322
104,0.222222222,0.,0.444444444,0.,-0.,-1.,0.,0.,1.5,             0000363P0000323
-2.121320344,-1.776356839E-15;                                   0000363P0000324
124,-0.707106781,0.,-0.707106781,17.,-0.707106781,0.,            0000365P0000325
0.707106781,1.597E+03,0.,1.,0.,7.;                               0000365P0000326
144,369,1,0,371;                                                 0000367P0000327
108,-1.,-0.,-0.,-18.5,0,18.5,-140.,-7.,0.;                       0000369P0000328
142,0,369,0,373,2;                                               0000371P0000329
102,4,375,377,379,381;                                           0000373P0000330
110,18.5,1.5,-7.,18.5,1.5,7.;                                    0000375P0000331
110,18.5,1.5,7.,18.5,1.5985E+03,7.;                              0000377P0000332
110,18.5,1.5985E+03,7.,18.5,1.5985E+03,-7.;                      0000379P0000333
110,18.5,1.5985E+03,-7.,18.5,1.5,-7.;                            0000381P0000334
144,385,1,0,393;                                                 0000383P0000335
120,389,391,0.,1.570796327;                                      0000385P0000336
124,0.,-1.,0.,17.,0.,-0.,-1.,-140.,-1.,-0.,0.,-7.;               0000387P0000337
110,0.,0.,1.,0.,0.,0.;                                           0000389P0000338
110,1.5,0.,-1.7385E+03,1.5,0.,-141.5;                            0000391P0000339
142,0,385,395,405,3;                                             0000393P0000340
102,4,397,399,401,403;                                           0000395P0000341
110,9.392611146E-04,2.442490654E-15,0.,0.999060739,              0000397P0000342
3.563815909E-13,0.;                                              0000397P0000343
126,7,7,1,0,1,0,4.71238898,4.71238898,4.71238898,4.71238898,     0000399P0000344
4.71238898,4.71238898,4.71238898,4.71238898,6.283185307,         0000399P0000345
6.283185307,6.283185307,6.283185307,6.283185307,6.283185307,     0000399P0000346
6.283185307,6.283185307,1.,1.,1.,1.,1.,1.,1.,1.,0.999060739,     0000399P0000347
3.561595463E-13,0.,0.999271509,0.224399475,0.,0.999482277,       0000399P0000348
0.448798951,0.,0.999675717,0.673198426,0.,0.999834467,           0000399P0000349
0.897597901,0.,0.99994482,1.121997376,0.,1.,1.346396852,0.,1.,   0000399P0000350
1.570796327,0.,4.71238898,6.283185307,0.,0.,1.;                  0000399P0000351
110,1.,1.570796327,0.,-3.330669074E-16,1.570796327,0.;           0000401P0000352
126,7,7,1,0,1,0,3.141592654,3.141592654,3.141592654,3.141592654, 0000403P0000353
3.141592654,3.141592654,3.141592654,3.141592654,4.71238898,      0000403P0000354
4.71238898,4.71238898,4.71238898,4.71238898,4.71238898,          0000403P0000355
4.71238898,4.71238898,1.,1.,1.,1.,1.,1.,1.,1.,-6.552038506E-19,  0000403P0000356
1.570796327,0.,-6.86404034E-19,1.346396852,0.,5.518034389E-05,   0000403P0000357
1.121997376,0.,1.655330257E-04,0.897597901,0.,3.242828816E-04,   0000403P0000358
0.673198426,0.,5.177225678E-04,0.448798951,0.,7.284914133E-04,   0000403P0000359
0.224399475,0.,9.392611146E-04,1.776356839E-15,0.,3.141592654,   0000403P0000360
4.71238898,0.,0.,1.;                                             0000403P0000361
102,4,407,409,413,415;                                           0000405P0000362
110,17.,1.597E+03,-8.5,17.,3.,-8.5;                              0000407P0000363
104,0.222222222,0.,0.444444444,0.,-0.,-1.,0.,0.,-1.5,            0000409P0000364
2.121320344,8.881784197E-16;                                     0000409P0000365
124,0.707106781,0.,-0.707106781,17.,-0.707106781,0.,             0000411P0000366
-0.707106781,3.,0.,1.,0.,-7.;                                    0000411P0000367
110,18.5,1.5,-7.,18.5,1.5985E+03,-7.;                            0000413P0000368
104,0.222222222,0.,0.444444444,0.,-0.,-1.,0.,-2.121320344,       0000415P0000369
1.776356839E-15,0.,-1.5;                                         0000415P0000370
124,-0.707106781,0.,-0.707106781,17.,-0.707106781,0.,            0000417P0000371
0.707106781,1.597E+03,0.,1.,0.,-7.;                              0000417P0000372
144,421,1,0,423;                                                 0000419P0000373
108,-0.,-0.,1.,-8.5,0,-17.,-140.,-8.5,0.;                        0000421P0000374
142,0,421,0,425,2;                                               0000423P0000375
102,4,427,429,431,433;                                           0000425P0000376
110,-17.,37.,-8.5,17.,3.,-8.5;                                   0000427P0000377
110,17.,3.,-8.5,17.,1.597E+03,-8.5;                              0000429P0000378
110,17.,1.597E+03,-8.5,-17.,1.563E+03,-8.5;                      0000431P0000379
110,-17.,1.563E+03,-8.5,-17.,37.,-8.5;                           0000433P0000380
144,437,1,0,445;                                                 0000435P0000381
120,441,443,0.,1.570796327;                                      0000437P0000382
124,-1.,1.184237893E-15,0.,-17.,0.,0.,-1.,-140.,1.184237893E-15, 0000439P0000383
1.,0.,-7.;                                                       0000439P0000384
110,0.,0.,1.,0.,0.,0.;                                           0000441P0000385
110,1.5,0.,-1.703E+03,1.5,0.,-177.;                              0000443P0000386
142,0,437,447,457,3;                                             0000445P0000387
102,4,449,451,453,455;                                           0000447P0000388
110,9.829619921E-04,2.331468352E-15,0.,0.999017038,              0000449P0000389
3.405054017E-13,0.;                                              0000449P0000390
126,7,7,1,0,1,0,3.141592654,3.141592654,3.141592654,3.141592654, 0000451P0000391
3.141592654,3.141592654,3.141592654,3.141592654,4.71238898,      0000451P0000392
4.71238898,4.71238898,4.71238898,4.71238898,4.71238898,          0000451P0000393
4.71238898,4.71238898,1.,1.,1.,1.,1.,1.,1.,1.,0.999017038,       0000451P0000394
3.401723347E-13,0.,0.999017038,0.224399475,0.,0.999074786,       0000451P0000395
0.448798951,0.,0.999190273,0.673198426,0.,0.999356409,           0000451P0000396
0.897597901,0.,0.999558849,1.121997376,0.,0.999779424,           0000451P0000397
1.346396852,0.,1.,1.570796327,0.,3.141592654,4.71238898,-0.,-0., 0000451P0000398
1.;                                                              0000451P0000399
110,1.,1.570796327,0.,-3.330669074E-16,1.570796327,0.;           0000453P0000400
126,7,7,1,0,1,0,4.71238898,4.71238898,4.71238898,4.71238898,     0000455P0000401
4.71238898,4.71238898,4.71238898,4.71238898,6.283185307,         0000455P0000402
6.283185307,6.283185307,6.283185307,6.283185307,6.283185307,     0000455P0000403
6.283185307,6.283185307,1.,1.,1.,1.,1.,1.,1.,1.,                 0000455P0000404
-6.856884334E-19,1.570796327,0.,2.205761552E-04,1.346396852,0.,  0000455P0000405
4.411514149E-04,1.121997376,0.,6.435912438E-04,0.897597901,0.,   0000455P0000406
8.09727233E-04,0.673198426,0.,9.252142798E-04,0.448798951,0.,    0000455P0000407
9.829619921E-04,0.224399475,0.,9.829619921E-04,2.664535259E-15,  0000455P0000408
0.,4.71238898,6.283185307,-0.,-0.,1.;                            0000455P0000409
102,4,459,461,465,467;                                           0000457P0000410
110,-18.5,1.5615E+03,-7.,-18.5,38.5,-7.;                         0000459P0000411
104,0.222222222,0.,0.444444444,0.,-0.,-1.,0.,-2.121320344,       0000461P0000412
1.776356839E-15,0.,-1.5;                                         0000461P0000413
124,0.707106781,0.,-0.707106781,-17.,-0.707106781,0.,            0000463P0000414
-0.707106781,37.,0.,1.,0.,-7.;                                   0000463P0000415
110,-17.,37.,-8.5,-17.,1.563E+03,-8.5;                           0000465P0000416
104,0.222222222,0.,0.444444444,0.,-0.,-1.,0.,0.,-1.5,            0000467P0000417
2.121320344,8.881784197E-16;                                     0000467P0000418
124,-0.707106781,0.,-0.707106781,-17.,-0.707106781,0.,           0000469P0000419
0.707106781,1.563E+03,0.,1.,0.,-7.;                              0000469P0000420
144,473,1,0,475;                                                 0000471P0000421
108,1.,-0.,-0.,-18.5,0,-18.5,-140.,7.,0.;                        0000473P0000422
142,0,473,0,477,2;                                               0000475P0000423
102,4,479,481,483,485;                                           0000477P0000424
110,-18.5,38.5,7.,-18.5,38.5,-7.;                                0000479P0000425
110,-18.5,38.5,-7.,-18.5,1.5615E+03,-7.;                         0000481P0000426
110,-18.5,1.5615E+03,-7.,-18.5,1.5615E+03,7.;                    0000483P0000427
110,-18.5,1.5615E+03,7.,-18.5,38.5,7.;                           0000485P0000428
144,489,1,0,497;                                                 0000487P0000429
120,493,495,0.,1.570796327;                                      0000489P0000430
124,0.,1.,0.,-17.,0.,0.,-1.,-140.,1.,0.,0.,7.;                   0000491P0000431
110,0.,0.,1.,0.,0.,0.;                                           0000493P0000432
110,1.5,0.,-1.703E+03,1.5,0.,-177.;                              0000495P0000433
142,0,489,499,509,3;                                             0000497P0000434
102,4,501,503,505,507;                                           0000499P0000435
110,-3.330669074E-16,1.998401444E-15,0.,1.,3.408384686E-13,0.;   0000501P0000436
126,7,7,1,0,1,0,1.570796327,1.570796327,1.570796327,1.570796327, 0000503P0000437
1.570796327,1.570796327,1.570796327,1.570796327,3.141592654,     0000503P0000438
3.141592654,3.141592654,3.141592654,3.141592654,3.141592654,     0000503P0000439
3.141592654,3.141592654,1.,1.,1.,1.,1.,1.,1.,1.,1.,              0000503P0000440
3.410605132E-13,0.,0.999779424,0.224399475,0.,0.999558849,       0000503P0000441
0.448798951,0.,0.999356409,0.673198426,0.,0.999190273,           0000503P0000442
0.897597901,0.,0.999074786,1.121997376,0.,0.999017038,           0000503P0000443
1.346396852,0.,0.999017038,1.570796327,0.,1.570796327,           0000503P0000444
3.141592654,-0.,-0.,1.;                                          0000503P0000445
110,0.999017038,1.570796327,0.,9.829619921E-04,1.570796327,0.;   0000505P0000446
126,7,7,1,0,1,0,-8.881784197E-16,-8.881784197E-16,               0000507P0000447
-8.881784197E-16,-8.881784197E-16,-8.881784197E-16,              0000507P0000448
-8.881784197E-16,-8.881784197E-16,-8.881784197E-16,1.570796327,  0000507P0000449
1.570796327,1.570796327,1.570796327,1.570796327,1.570796327,     0000507P0000450
1.570796327,1.570796327,1.,1.,1.,1.,1.,1.,1.,1.,9.829619921E-04, 0000507P0000451
1.570796327,0.,9.829619921E-04,1.346396852,0.,9.252142799E-04,   0000507P0000452
1.121997376,0.,8.097272331E-04,0.897597901,0.,6.435912439E-04,   0000507P0000453
0.673198426,0.,4.41151415E-04,0.448798951,0.,2.205761552E-04,    0000507P0000454
0.224399475,0.,-9.142512446E-19,1.776356839E-15,0.,              0000507P0000455
-8.881784197E-16,1.570796327,-0.,-0.,1.;                         0000507P0000456
102,4,511,513,517,519;                                           0000509P0000457
110,-17.,1.563E+03,8.5,-17.,37.,8.5;                             0000511P0000458
104,0.222222222,0.,0.444444444,0.,-0.,-1.,0.,0.,1.5,             0000513P0000459
-2.121320344,-1.776356839E-15;                                   0000513P0000460
124,0.707106781,0.,-0.707106781,-17.,-0.707106781,0.,            0000515P0000461
-0.707106781,37.,0.,1.,0.,7.;                                    0000515P0000462
110,-18.5,38.5,7.,-18.5,1.5615E+03,7.;                           0000517P0000463
104,0.222222222,0.,0.444444444,0.,-0.,-1.,0.,2.121320344,        0000519P0000464
-8.881784197E-16,0.,1.5;                                         0000519P0000465
124,-0.707106781,0.,-0.707106781,-17.,-0.707106781,0.,           0000521P0000466
0.707106781,1.563E+03,0.,1.,0.,7.;                               0000521P0000467
144,525,1,0,527;                                                 0000523P0000468
108,-0.,0.,-1.,-8.5,0,17.,-140.,8.5,0.;                          0000525P0000469
142,0,525,0,529,2;                                               0000527P0000470
102,4,531,533,535,537;                                           0000529P0000471
110,17.,3.,8.5,-17.,37.,8.5;                                     0000531P0000472
110,-17.,37.,8.5,-17.,1.563E+03,8.5;                             0000533P0000473
110,-17.,1.563E+03,8.5,17.,1.597E+03,8.5;                        0000535P0000474
110,17.,1.597E+03,8.5,17.,3.,8.5;                                0000537P0000475
S      1G      4D    538P    475                                        T0000001
