                                                                        S0000001
,,31HOpen CASCADE IGES processor 8.0,13HFilename.iges,                  G0000001
16HOpen CASCADE 8.0,31HOpen CASCADE IGES processor 8.0,32,308,15,308,15,G0000002
,1.,2,2HMM,1,0.01,15H20261008.060937,1.33334E-07,545.,4Hroot,,11,0,     G0000003
15H20261008.060937,;                                                    G0000004
     402       1       0       0       0       0       0       000000000D0000001
     402       0       0       2       1                               0D0000002
     144       3       0       0       0       0       0       000020000D0000003
     144       0       0       1       0                               0D0000004
     108       4       0       0       0       0       0       000010000D0000005
     108       0       0       1       0                               0D0000006
     142       5       0       0       0       0       0       000010500D0000007
     142       0       0       1       0                               0D0000008
     102       6       0       0       0       0       0       000010000D0000009
     102       0       0       1       0                               0D0000010
     110       7       0       0       0       0       0       000010000D0000011
     110       0       0       1       0                               0D0000012
     110       8       0       0       0       0       0       000010000D0000013
     110       0       0       1       0                               0D0000014
     110       9       0       0       0       0       0       000010000D0000015
     110       0       0       1       0                               0D0000016
     110      10       0       0       0       0       0       000010000D0000017
     110       0       0       1       0                               0D0000018
     144      11       0       0       0       0       0       000020000D0000019
     144       0       0       1       0                               0D0000020
     120      12       0       0       0       0      23       000010000D0000021
     120       0       0       1       0                               0D0000022
     124      13       0       0       0       0       0       000000000D0000023
     124       0       0       2       0                               0D0000024
     110      15       0       0       0       0       0       000010000D0000025
     110       0       0       1       0                               0D0000026
     110      16       0       0       0       0       0       000010000D0000027
     110       0       0       1       0                               0D0000028
     142      17       0       0       0       0       0       000010500D0000029
     142       0       0       1       0                               0D0000030
     102      18       0       0       0       0       0       000010000D0000031
     102       0       0       1       0                               0D0000032
     126      19       0       0       0       0       0       000010000D0000033
     126       0       0      10       0                               0D0000034
     110      29       0       0       0       0       0       000010000D0000035
     110       0       0       1       0                               0D0000036
     126      30       0       0       0       0       0       000010000D0000037
     126       0       0      10       0                               0D0000038
     110      40       0       0       0       0       0       000010000D0000039
     110       0       0       1       0                               0D0000040
     102      41       0       0       0       0       0       000010000D0000041
     102       0       0       1       0                               0D0000042
     104      42       0       0       0       0      45       000010000D0000043
     104       0       0       2       1                               0D0000044
     124      44       0       0       0       0       0       000000000D0000045
     124       0       0       2       0                               0D0000046
     110      46       0       0       0       0       0       000010000D0000047
     110       0       0       1       0                               0D0000048
     104      47       0       0       0       0      51       000010000D0000049
     104       0       0       2       1                               0D0000050
     124      49       0       0       0       0       0       000000000D0000051
     124       0       0       2       0                               0D0000052
     110      51       0       0       0       0       0       000010000D0000053
     110       0       0       1       0                               0D0000054
     144      52       0       0       0       0       0       000020000D0000055
     144       0       0       1       0                               0D0000056
     108      53       0       0       0       0       0       000010000D0000057
     108       0       0       2       0                               0D0000058
     142      55       0       0       0       0       0       000010500D0000059
     142       0       0       1       0                               0D0000060
     102      56       0       0       0       0       0       000010000D0000061
     102       0       0       1       0                               0D0000062
     104      57       0       0       0       0      65       000010000D0000063
     104       0       0       2       1                               0D0000064
     124      59       0       0       0       0       0       000000000D0000065
     124       0       0       2       0                               0D0000066
     110      61       0       0       0       0       0       000010000D0000067
     110       0       0       1       0                               0D0000068
     104      62       0       0       0       0      71       000010000D0000069
     104       0       0       2       1                               0D0000070
     124      64       0       0       0       0       0       000000000D0000071
     124       0       0       2       0                               0D0000072
     110      66       0       0       0       0       0       000010000D0000073
     110       0       0       1       0                               0D0000074
     104      67       0       0       0       0      77       000010000D0000075
     104       0       0       2       1                               0D0000076
     124      69       0       0       0       0       0       000000000D0000077
     124       0       0       2       0                               0D0000078
     110      71       0       0       0       0       0       000010000D0000079
     110       0       0       1       0                               0D0000080
     104      72       0       0       0       0      83       000010000D0000081
     104       0       0       2       1                               0D0000082
     124      74       0       0       0       0       0       000000000D0000083
     124       0       0       2       0                               0D0000084
     110      76       0       0       0       0       0       000010000D0000085
     110       0       0       1       0                               0D0000086
     142      77       0       0       0       0       0       000010500D0000087
     142       0       0       1       0                               0D0000088
     102      78       0       0       0       0       0       000010000D0000089
     102       0       0       1       0                               0D0000090
     110      79       0       0       0       0       0       000010000D0000091
     110       0       0       1       0                               0D0000092
     104      80       0       0       0       0      95       000010000D0000093
     104       0       0       2       1                               0D0000094
     124      82       0       0       0       0       0       000000000D0000095
     124       0       0       2       0                               0D0000096
     110      84       0       0       0       0       0       000010000D0000097
     110       0       0       1       0                               0D0000098
     104      85       0       0       0       0     101       000010000D0000099
     104       0       0       2       1                               0D0000100
     124      87       0       0       0       0       0       000000000D0000101
     124       0       0       2       0                               0D0000102
     110      89       0       0       0       0       0       000010000D0000103
     110       0       0       1       0                               0D0000104
     104      90       0       0       0       0     107       000010000D0000105
     104       0       0       2       1                               0D0000106
     124      92       0       0       0       0       0       000000000D0000107
     124       0       0       2       0                               0D0000108
     110      94       0       0       0       0       0       000010000D0000109
     110       0       0       1       0                               0D0000110
     104      95       0       0       0       0     113       000010000D0000111
     104       0       0       2       1                               0D0000112
     124      97       0       0       0       0       0       000000000D0000113
     124       0       0       2       0                               0D0000114
     144      99       0       0       0       0       0       000020000D0000115
     144       0       0       1       0                               0D0000116
     120     100       0       0       0       0     119       000010000D0000117
     120       0       0       1       0                               0D0000118
     124     101       0       0       0       0       0       000000000D0000119
     124       0       0       1       0                               0D0000120
     110     102       0       0       0       0       0       000010000D0000121
     110       0       0       1       0                               0D0000122
     110     103       0       0       0       0       0       000010000D0000123
     110       0       0       1       0                               0D0000124
     142     104       0       0       0       0       0       000010500D0000125
     142       0       0       1       0                               0D0000126
     102     105       0       0       0       0       0       000010000D0000127
     102       0       0       1       0                               0D0000128
     126     106       0       0       0       0       0       000010000D0000129
     126       0       0       9       0                               0D0000130
     110     115       0       0       0       0       0       000010000D0000131
     110       0       0       1       0                               0D0000132
     126     116       0       0       0       0       0       000010000D0000133
     126       0       0      10       0                               0D0000134
     110     126       0       0       0       0       0       000010000D0000135
     110       0       0       1       0                               0D0000136
     102     127       0       0       0       0       0       000010000D0000137
     102       0       0       1       0                               0D0000138
     104     128       0       0       0       0     141       000010000D0000139
     104       0       0       2       1                               0D0000140
     124     130       0       0       0       0       0       000000000D0000141
     124       0       0       2       0                               0D0000142
     110     132       0       0       0       0       0       000010000D0000143
     110       0       0       1       0                               0D0000144
     104     133       0       0       0       0     147       000010000D0000145
     104       0       0       2       1                               0D0000146
     124     135       0       0       0       0       0       000000000D0000147
     124       0       0       2       0                               0D0000148
     110     137       0       0       0       0       0       000010000D0000149
     110       0       0       1       0                               0D0000150
     144     138       0       0       0       0       0       000020000D0000151
     144       0       0       1       0                               0D0000152
     108     139       0       0       0       0       0       000010000D0000153
     108       0       0       2       0                               0D0000154
     142     141       0       0       0       0       0       000010500D0000155
     142       0       0       1       0                               0D0000156
     102     142       0       0       0       0       0       000010000D0000157
     102       0       0       1       0                               0D0000158
     104     143       0       0       0       0     161       000010000D0000159
     104       0       0       2       1                               0D0000160
     124     145       0       0       0       0       0       000000000D0000161
     124       0       0       2       0                               0D0000162
     110     147       0       0       0       0       0       000010000D0000163
     110       0       0       1       0                               0D0000164
     104     148       0       0       0       0     167       000010000D0000165
     104       0       0       2       1                               0D0000166
     124     150       0       0       0       0       0       000000000D0000167
     124       0       0       2       0                               0D0000168
     110     152       0       0       0       0       0       000010000D0000169
     110       0       0       1       0                               0D0000170
     104     153       0       0       0       0     173       000010000D0000171
     104       0       0       2       1                               0D0000172
     124     155       0       0       0       0       0       000000000D0000173
     124       0       0       2       0                               0D0000174
     110     157       0       0       0       0       0       000010000D0000175
     110       0       0       1       0                               0D0000176
     104     158       0       0       0       0     179       000010000D0000177
     104       0       0       2       1                               0D0000178
     124     160       0       0       0       0       0       000000000D0000179
     124       0       0       2       0                               0D0000180
     110     162       0       0       0       0       0       000010000D0000181
     110       0       0       1       0                               0D0000182
     142     163       0       0       0       0       0       000010500D0000183
     142       0       0       1       0                               0D0000184
     102     164       0       0       0       0       0       000010000D0000185
     102       0       0       1       0                               0D0000186
     110     165       0       0       0       0       0       000010000D0000187
     110       0       0       1       0                               0D0000188
     104     166       0       0       0       0     191       000010000D0000189
     104       0       0       2       1                               0D0000190
     124     168       0       0       0       0       0       000000000D0000191
     124       0       0       2       0                               0D0000192
     110     170       0       0       0       0       0       000010000D0000193
     110       0       0       1       0                               0D0000194
     104     171       0       0       0       0     197       000010000D0000195
     104       0       0       2       1                               0D0000196
     124     173       0       0       0       0       0       000000000D0000197
     124       0       0       2       0                               0D0000198
     110     175       0       0       0       0       0       000010000D0000199
     110       0       0       1       0                               0D0000200
     104     176       0       0       0       0     203       000010000D0000201
     104       0       0       2       1                               0D0000202
     124     178       0       0       0       0       0       000000000D0000203
     124       0       0       2       0                               0D0000204
     110     180       0       0       0       0       0       000010000D0000205
     110       0       0       1       0                               0D0000206
     104     181       0       0       0       0     209       000010000D0000207
     104       0       0       2       1                               0D0000208
     124     183       0       0       0       0       0       000000000D0000209
     124       0       0       2       0                               0D0000210
     144     185       0       0       0       0       0       000020000D0000211
     144       0       0       1       0                               0D0000212
     108     186       0       0       0       0       0       000010000D0000213
     108       0       0       1       0                               0D0000214
     142     187       0       0       0       0       0       000010500D0000215
     142       0       0       1       0                               0D0000216
     102     188       0       0       0       0       0       000010000D0000217
     102       0       0       1       0                               0D0000218
     110     189       0       0       0       0       0       000010000D0000219
     110       0       0       1       0                               0D0000220
     110     190       0       0       0       0       0       000010000D0000221
     110       0       0       1       0                               0D0000222
     110     191       0       0       0       0       0       000010000D0000223
     110       0       0       1       0                               0D0000224
     110     192       0       0       0       0       0       000010000D0000225
     110       0       0       1       0                               0D0000226
     144     193       0       0       0       0       0       000020000D0000227
     144       0       0       1       0                               0D0000228
     120     194       0       0       0       0     231       000010000D0000229
     120       0       0       1       0                               0D0000230
     124     195       0       0       0       0       0       000000000D0000231
     124       0       0       1       0                               0D0000232
     110     196       0       0       0       0       0       000010000D0000233
     110       0       0       1       0                               0D0000234
     110     197       0       0       0       0       0       000010000D0000235
     110       0       0       1       0                               0D0000236
     142     198       0       0       0       0       0       000010500D0000237
     142       0       0       1       0                               0D0000238
     102     199       0       0       0       0       0       000010000D0000239
     102       0       0       1       0                               0D0000240
     126     200       0       0       0       0       0       000010000D0000241
     126       0       0       9       0                               0D0000242
     110     209       0       0       0       0       0       000010000D0000243
     110       0       0       1       0                               0D0000244
     126     210       0       0       0       0       0       000010000D0000245
     126       0       0      11       0                               0D0000246
     110     221       0       0       0       0       0       000010000D0000247
     110       0       0       1       0                               0D0000248
     102     222       0       0       0       0       0       000010000D0000249
     102       0       0       1       0                               0D0000250
     104     223       0       0       0       0     253       000010000D0000251
     104       0       0       2       1                               0D0000252
     124     225       0       0       0       0       0       000000000D0000253
     124       0       0       2       0                               0D0000254
     110     227       0       0       0       0       0       000010000D0000255
     110       0       0       1       0                               0D0000256
     104     228       0       0       0       0     259       000010000D0000257
     104       0       0       2       1                               0D0000258
     124     230       0       0       0       0       0       000000000D0000259
     124       0       0       2       0                               0D0000260
     110     232       0       0       0       0       0       000010000D0000261
     110       0       0       1       0                               0D0000262
     144     233       0       0       0       0       0       000020000D0000263
     144       0       0       1       0                               0D0000264
     108     234       0       0       0       0       0       000010000D0000265
     108       0       0       1       0                               0D0000266
     142     235       0       0       0       0       0       000010500D0000267
     142       0       0       1       0                               0D0000268
     102     236       0       0       0       0       0       000010000D0000269
     102       0       0       1       0                               0D0000270
     110     237       0       0       0       0       0       000010000D0000271
     110       0       0       1       0                               0D0000272
     110     238       0       0       0       0       0       000010000D0000273
     110       0       0       1       0                               0D0000274
     110     239       0       0       0       0       0       000010000D0000275
     110       0       0       1       0                               0D0000276
     110     240       0       0       0       0       0       000010000D0000277
     110       0       0       1       0                               0D0000278
     144     241       0       0       0       0       0       000020000D0000279
     144       0       0       1       0                               0D0000280
     120     242       0       0       0       0     283       000010000D0000281
     120       0       0       1       0                               0D0000282
     124     243       0       0       0       0       0       000000000D0000283
     124       0       0       2       0                               0D0000284
     110     245       0       0       0       0       0       000010000D0000285
     110       0       0       1       0                               0D0000286
     110     246       0       0       0       0       0       000010000D0000287
     110       0       0       1       0                               0D0000288
     142     247       0       0       0       0       0       000010500D0000289
     142       0       0       1       0                               0D0000290
     102     248       0       0       0       0       0       000010000D0000291
     102       0       0       1       0                               0D0000292
     126     249       0       0       0       0       0       000010000D0000293
     126       0       0       9       0                               0D0000294
     110     258       0       0       0       0       0       000010000D0000295
     110       0       0       1       0                               0D0000296
     126     259       0       0       0       0       0       000010000D0000297
     126       0       0      10       0                               0D0000298
     110     269       0       0       0       0       0       000010000D0000299
     110       0       0       1       0                               0D0000300
     102     270       0       0       0       0       0       000010000D0000301
     102       0       0       1       0                               0D0000302
     104     271       0       0       0       0     305       000010000D0000303
     104       0       0       2       1                               0D0000304
     124     273       0       0       0       0       0       000000000D0000305
     124       0       0       2       0                               0D0000306
     110     275       0       0       0       0       0       000010000D0000307
     110       0       0       1       0                               0D0000308
     104     276       0       0       0       0     311       000010000D0000309
     104       0       0       2       1                               0D0000310
     124     278       0       0       0       0       0       000000000D0000311
     124       0       0       2       0                               0D0000312
     110     280       0       0       0       0       0       000010000D0000313
     110       0       0       1       0                               0D0000314
     144     281       0       0       0       0       0       000020000D0000315
     144       0       0       1       0                               0D0000316
     108     282       0       0       0       0       0       000010000D0000317
     108       0       0       1       0                               0D0000318
     142     283       0       0       0       0       0       000010500D0000319
     142       0       0       1       0                               0D0000320
     102     284       0       0       0       0       0       000010000D0000321
     102       0       0       1       0                               0D0000322
     110     285       0       0       0       0       0       000010000D0000323
     110       0       0       1       0                               0D0000324
     110     286       0       0       0       0       0       000010000D0000325
     110       0       0       1       0                               0D0000326
     110     287       0       0       0       0       0       000010000D0000327
     110       0       0       1       0                               0D0000328
     110     288       0       0       0       0       0       000010000D0000329
     110       0       0       1       0                               0D0000330
     144     289       0       0       0       0       0       000020000D0000331
     144       0       0       1       0                               0D0000332
     120     290       0       0       0       0     335       000010000D0000333
     120       0       0       1       0                               0D0000334
     124     291       0       0       0       0       0       000000000D0000335
     124       0       0       2       1                               0D0000336
     110     293       0       0       0       0       0       000010000D0000337
     110       0       0       1       0                               0D0000338
     110     294       0       0       0       0       0       000010000D0000339
     110       0       0       1       0                               0D0000340
     142     295       0       0       0       0       0       000010500D0000341
     142       0       0       1       0                               0D0000342
     102     296       0       0       0       0       0       000010000D0000343
     102       0       0       1       0                               0D0000344
     110     297       0       0       0       0       0       000010000D0000345
     110       0       0       1       0                               0D0000346
     126     298       0       0       0       0       0       000010000D0000347
     126       0       0      10       0                               0D0000348
     110     308       0       0       0       0       0       000010000D0000349
     110       0       0       1       0                               0D0000350
     126     309       0       0       0       0       0       000010000D0000351
     126       0       0       9       0                               0D0000352
     102     318       0       0       0       0       0       000010000D0000353
     102       0       0       1       0                               0D0000354
     110     319       0       0       0       0       0       000010000D0000355
     110       0       0       1       0                               0D0000356
     104     320       0       0       0       0     359       000010000D0000357
     104       0       0       2       1                               0D0000358
     124     322       0       0       0       0       0       000000000D0000359
     124       0       0       2       0                               0D0000360
     110     324       0       0       0       0       0       000010000D0000361
     110       0       0       1       0                               0D0000362
     104     325       0       0       0       0     365       000010000D0000363
     104       0       0       2       1                               0D0000364
     124     327       0       0       0       0       0       000000000D0000365
     124       0       0       2       0                               0D0000366
     144     329       0       0       0       0       0       000020000D0000367
     144       0       0       1       0                               0D0000368
     108     330       0       0       0       0       0       000010000D0000369
     108       0       0       1       0                               0D0000370
     142     331       0       0       0       0       0       000010500D0000371
     142       0       0       1       0                               0D0000372
     102     332       0       0       0       0       0       000010000D0000373
     102       0       0       1       0                               0D0000374
     110     333       0       0       0       0       0       000010000D0000375
     110       0       0       1       0                               0D0000376
     110     334       0       0       0       0       0       000010000D0000377
     110       0       0       1       0                               0D0000378
     110     335       0       0       0       0       0       000010000D0000379
     110       0       0       1       0                               0D0000380
     110     336       0       0       0       0       0       000010000D0000381
     110       0       0       1       0                               0D0000382
     144     337       0       0       0       0       0       000020000D0000383
     144       0       0       1       0                               0D0000384
     120     338       0       0       0       0     387       000010000D0000385
     120       0       0       1       0                               0D0000386
     124     339       0       0       0       0       0       000000000D0000387
     124       0       0       1       1                               0D0000388
     110     340       0       0       0       0       0       000010000D0000389
     110       0       0       1       0                               0D0000390
     110     341       0       0       0       0       0       000010000D0000391
     110       0       0       1       0                               0D0000392
     142     342       0       0       0       0       0       000010500D0000393
     142       0       0       1       0                               0D0000394
     102     343       0       0       0       0       0       000010000D0000395
     102       0       0       1       0                               0D0000396
     110     344       0       0       0       0       0       000010000D0000397
     110       0       0       2       0                               0D0000398
     126     346       0       0       0       0       0       000010000D0000399
     126       0       0       8       0                               0D0000400
     110     354       0       0       0       0       0       000010000D0000401
     110       0       0       1       0                               0D0000402
     126     355       0       0       0       0       0       000010000D0000403
     126       0       0       9       0                               0D0000404
     102     364       0       0       0       0       0       000010000D0000405
     102       0       0       1       0                               0D0000406
     110     365       0       0       0       0       0       000010000D0000407
     110       0       0       1       0                               0D0000408
     104     366       0       0       0       0     411       000010000D0000409
     104       0       0       2       1                               0D0000410
     124     368       0       0       0       0       0       000000000D0000411
     124       0       0       2       0                               0D0000412
     110     370       0       0       0       0       0       000010000D0000413
     110       0       0       1       0                               0D0000414
     104     371       0       0       0       0     417       000010000D0000415
     104       0       0       2       1                               0D0000416
     124     373       0       0       0       0       0       000000000D0000417
     124       0       0       2       0                               0D0000418
     144     375       0       0       0       0       0       000020000D0000419
     144       0       0       1       0                               0D0000420
     108     376       0       0       0       0       0       000010000D0000421
     108       0       0       1       0                               0D0000422
     142     377       0       0       0       0       0       000010500D0000423
     142       0       0       1       0                               0D0000424
     102     378       0       0       0       0       0       000010000D0000425
     102       0       0       1       0                               0D0000426
     110     379       0       0       0       0       0       000010000D0000427
     110       0       0       1       0                               0D0000428
     110     380       0       0       0       0       0       000010000D0000429
     110       0       0       1       0                               0D0000430
     110     381       0       0       0       0       0       000010000D0000431
     110       0       0       1       0                               0D0000432
     110     382       0       0       0       0       0       000010000D0000433
     110       0       0       1       0                               0D0000434
     144     383       0       0       0       0       0       000020000D0000435
     144       0       0       1       0                               0D0000436
     120     384       0       0       0       0     439       000010000D0000437
     120       0       0       1       0                               0D0000438
     124     385       0       0       0       0       0       000000000D0000439
     124       0       0       2       1                               0D0000440
     110     387       0       0       0       0       0       000010000D0000441
     110       0       0       1       0                               0D0000442
     110     388       0       0       0       0       0       000010000D0000443
     110       0       0       1       0                               0D0000444
     142     389       0       0       0       0       0       000010500D0000445
     142       0       0       1       0                               0D0000446
     102     390       0       0       0       0       0       000010000D0000447
     102       0       0       1       0                               0D0000448
     110     391       0       0       0       0       0       000010000D0000449
     110       0       0       2       0                               0D0000450
     126     393       0       0       0       0       0       000010000D0000451
     126       0       0       9       0                               0D0000452
     110     402       0       0       0       0       0       000010000D0000453
     110       0       0       1       0                               0D0000454
     126     403       0       0       0       0       0       000010000D0000455
     126       0       0       9       0                               0D0000456
     102     412       0       0       0       0       0       000010000D0000457
     102       0       0       1       0                               0D0000458
     110     413       0       0       0       0       0       000010000D0000459
     110       0       0       1       0                               0D0000460
     104     414       0       0       0       0     463       000010000D0000461
     104       0       0       2       1                               0D0000462
     124     416       0       0       0       0       0       000000000D0000463
     124       0       0       2       0                               0D0000464
     110     418       0       0       0       0       0       000010000D0000465
     110       0       0       1       0                               0D0000466
     104     419       0       0       0       0     469       000010000D0000467
     104       0       0       2       1                               0D0000468
     124     421       0       0       0       0       0       000000000D0000469
     124       0       0       2       0                               0D0000470
     144     423       0       0       0       0       0       000020000D0000471
     144       0       0       1       0                               0D0000472
     108     424       0       0       0       0       0       000010000D0000473
     108       0       0       1       0                               0D0000474
     142     425       0       0       0       0       0       000010500D0000475
     142       0       0       1       0                               0D0000476
     102     426       0       0       0       0       0       000010000D0000477
     102       0       0       1       0                               0D0000478
     110     427       0       0       0       0       0       000010000D0000479
     110       0       0       1       0                               0D0000480
     110     428       0       0       0       0       0       000010000D0000481
     110       0       0       1       0                               0D0000482
     110     429       0       0       0       0       0       000010000D0000483
     110       0       0       1       0                               0D0000484
     110     430       0       0       0       0       0       000010000D0000485
     110       0       0       1       0                               0D0000486
     144     431       0       0       0       0       0       000020000D0000487
     144       0       0       1       0                               0D0000488
     120     432       0       0       0       0     491       000010000D0000489
     120       0       0       1       0                               0D0000490
     124     433       0       0       0       0       0       000000000D0000491
     124       0       0       1       1                               0D0000492
     110     434       0       0       0       0       0       000010000D0000493
     110       0       0       1       0                               0D0000494
     110     435       0       0       0       0       0       000010000D0000495
     110       0       0       1       0                               0D0000496
     142     436       0       0       0       0       0       000010500D0000497
     142       0       0       1       0                               0D0000498
     102     437       0       0       0       0       0       000010000D0000499
     102       0       0       1       0                               0D0000500
     110     438       0       0       0       0       0       000010000D0000501
     110       0       0       1       0                               0D0000502
     126     439       0       0       0       0       0       000010000D0000503
     126       0       0       9       0                               0D0000504
     110     448       0       0       0       0       0       000010000D0000505
     110       0       0       1       0                               0D0000506
     126     449       0       0       0       0       0       000010000D0000507
     126       0       0      10       0                               0D0000508
     102     459       0       0       0       0       0       000010000D0000509
     102       0       0       1       0                               0D0000510
     110     460       0       0       0       0       0       000010000D0000511
     110       0       0       1       0                               0D0000512
     104     461       0       0       0       0     515       000010000D0000513
     104       0       0       2       1                               0D0000514
     124     463       0       0       0       0       0       000000000D0000515
     124       0       0       2       0                               0D0000516
     110     465       0       0       0       0       0       000010000D0000517
     110       0       0       1       0                               0D0000518
     104     466       0       0       0       0     521       000010000D0000519
     104       0       0       2       1                               0D0000520
     124     468       0       0       0       0       0       000000000D0000521
     124       0       0       2       0                               0D0000522
     144     470       0       0       0       0       0       000020000D0000523
     144       0       0       1       0                               0D0000524
     108     471       0       0       0       0       0       000010000D0000525
     108       0       0       1       0                               0D0000526
     142     472       0       0       0       0       0       000010500D0000527
     142       0       0       1       0                               0D0000528
     102     473       0       0       0       0       0       000010000D0000529
     102       0       0       1       0                               0D0000530
     110     474       0       0       0       0       0       000010000D0000531
     110       0       0       1       0                               0D0000532
     110     475       0       0       0       0       0       000010000D0000533
     110       0       0       1       0                               0D0000534
     110     476       0       0       0       0       0       000010000D0000535
     110       0       0       1       0                               0D0000536
     110     477       0       0       0       0       0       000010000D0000537
     110       0       0       1       0                               0D0000538
402,18,3,19,55,115,151,211,227,263,279,315,331,367,383,419,435,  0000001P0000001
471,487,523;                                                     0000001P0000002
144,5,1,0,7;                                                     0000003P0000003
108,1.,0.,0.,20.,0,20.,-140.,-7.,0.;                             0000005P0000004
142,0,5,0,9,2;                                                   0000007P0000005
102,4,11,13,15,17;                                               0000009P0000006
110,20.,545.,7.,20.,0.,7.;                                       0000011P0000007
110,20.,1.98951966E-13,7.,20.,1.98951966E-13,-7.;                0000013P0000008
110,20.,0.,-7.,20.,545.,-7.;                                     0000015P0000009
110,20.,545.,-7.,20.,545.,7.;                                    0000017P0000010
144,21,1,0,29;                                                   0000019P0000011
120,25,27,4.71238898,6.283185307;                                0000021P0000012
124,1.,-5.921189465E-16,0.,17.,0.,0.,-1.,-140.,5.921189465E-16,  0000023P0000013
1.,0.,7.;                                                        0000023P0000014
110,0.,0.,1.,0.,0.,0.;                                           0000025P0000015
110,3.,0.,-685.,3.,0.,-140.;                                     0000027P0000016
142,0,21,31,41,3;                                                0000029P0000017
102,4,33,35,37,39;                                               0000031P0000018
126,8,8,1,0,1,0,5.921189465E-16,5.921189465E-16,5.921189465E-16, 0000033P0000019
5.921189465E-16,5.921189465E-16,5.921189465E-16,5.921189465E-16, 0000033P0000020
5.921189465E-16,5.921189465E-16,1.570796327,1.570796327,         0000033P0000021
1.570796327,1.570796327,1.570796327,1.570796327,1.570796327,     0000033P0000022
1.570796327,1.570796327,1.,1.,1.,1.,1.,1.,1.,1.,1.,0.994495413,  0000033P0000023
4.71238898,0.,0.995576236,4.908738521,0.,0.996657059,            0000033P0000024
5.105088062,0.,0.997674385,5.301437603,0.,0.998564727,           0000033P0000025
5.497787144,0.,0.999272393,5.694136685,0.,0.999757464,           0000033P0000026
5.890486225,0.,1.,6.086835766,0.,1.,6.283185307,0.,              0000033P0000027
5.921189465E-16,1.570796327,0.,0.,1.;                            0000033P0000028
110,1.,6.283185307,0.,-2.220446049E-16,6.283185307,0.;           0000035P0000029
126,8,8,1,0,1,0,1.570796327,1.570796327,1.570796327,1.570796327, 0000037P0000030
1.570796327,1.570796327,1.570796327,1.570796327,1.570796327,     0000037P0000031
3.141592654,3.141592654,3.141592654,3.141592654,3.141592654,     0000037P0000032
3.141592654,3.141592654,3.141592654,3.141592654,1.,1.,1.,1.,1.,  0000037P0000033
1.,1.,1.,1.,2.085997022E-16,6.283185307,0.,2.085197053E-16,      0000037P0000034
6.086835766,0.,2.425363832E-04,5.890486225,0.,7.276070817E-04,   0000037P0000035
5.694136685,0.,1.435272942E-03,5.497787144,0.,2.325615073E-03,   0000037P0000036
5.301437603,0.,3.34294058E-03,5.105088062,0.,4.423763995E-03,    0000037P0000037
4.908738521,0.,5.504587156E-03,4.71238898,0.,1.570796327,        0000037P0000038
3.141592654,0.,0.,1.;                                            0000037P0000039
110,5.504587156E-03,4.71238898,0.,0.994495413,4.71238898,0.;     0000039P0000040
102,4,43,47,49,53;                                               0000041P0000041
104,5.555555556E-02,0.,0.111111111,0.,-0.,-1.,0.,0.,-3.,         0000043P0000042
4.242640687,-3.552713679E-15;                                    0000043P0000043
124,0.707106781,0.,0.707106781,17.,-0.707106781,0.,0.707106781,  0000045P0000044
3.,0.,-1.,0.,7.;                                                 0000045P0000045
110,20.,0.,7.,20.,545.,7.;                                       0000047P0000046
104,5.555555556E-02,0.,0.111111111,0.,-0.,-1.,0.,-4.242640687,   0000049P0000047
-8.881784197E-16,0.,-3.;                                         0000049P0000048
124,-0.707106781,0.,0.707106781,17.,-0.707106781,0.,             0000051P0000049
-0.707106781,542.,0.,-1.,0.,7.;                                  0000051P0000050
110,17.,542.,10.,17.,3.,10.;                                     0000053P0000051
144,57,1,1,59,87;                                                0000055P0000052
108,-0.707106781,0.707106781,0.,371.231060123,0,                 0000057P0000053
-7.051067812E+03,-6.526067812E+03,-1.E+04,0.;                    0000057P0000054
142,0,57,0,61,2;                                                 0000059P0000055
102,8,63,67,69,73,75,79,81,85;                                   0000061P0000056
104,0.222222222,0.,0.444444444,0.,-0.,-1.,0.,-2.121320344,       0000063P0000057
1.776356839E-15,0.,-1.5;                                         0000063P0000058
124,-0.707106781,0.,0.707106781,17.,-0.707106781,0.,             0000065P0000059
-0.707106781,542.,0.,-1.,0.,7.;                                  0000065P0000060
110,17.,542.,8.5,-17.,508.,8.5;                                  0000067P0000061
104,0.222222222,0.,0.444444444,0.,-0.,-1.,0.,0.,-1.5,            0000069P0000062
2.121320344,8.881784197E-16;                                     0000069P0000063
124,-0.707106781,0.,0.707106781,-17.,-0.707106781,0.,            0000071P0000064
-0.707106781,508.,0.,-1.,0.,7.;                                  0000071P0000065
110,-18.5,506.5,7.,-18.5,506.5,-7.;                              0000073P0000066
104,0.222222222,0.,0.444444444,0.,-0.,-1.,0.,2.121320344,        0000075P0000067
-8.881784197E-16,0.,1.5;                                         0000075P0000068
124,-0.707106781,0.,0.707106781,-17.,-0.707106781,0.,            0000077P0000069
-0.707106781,508.,0.,-1.,0.,-7.;                                 0000077P0000070
110,-17.,508.,-8.5,17.,542.,-8.5;                                0000079P0000071
104,0.222222222,0.,0.444444444,0.,-0.,-1.,0.,0.,1.5,             0000081P0000072
-2.121320344,-1.776356839E-15;                                   0000081P0000073
124,-0.707106781,0.,0.707106781,17.,-0.707106781,0.,             0000083P0000074
-0.707106781,542.,0.,-1.,0.,-7.;                                 0000083P0000075
110,18.5,543.5,-7.,18.5,543.5,7.;                                0000085P0000076
142,0,57,0,89,2;                                                 0000087P0000077
102,8,91,93,97,99,103,105,109,111;                               0000089P0000078
110,20.,545.,7.,20.,545.,-7.;                                    0000091P0000079
104,5.555555556E-02,0.,0.111111111,0.,-0.,-1.,0.,-4.242640687,   0000093P0000080
-8.881784197E-16,0.,-3.;                                         0000093P0000081
124,-0.707106781,0.,-0.707106781,17.,-0.707106781,0.,            0000095P0000082
0.707106781,542.,0.,1.,0.,-7.;                                   0000095P0000083
110,17.,542.,-10.,-17.,508.,-10.;                                0000097P0000084
104,5.555555556E-02,0.,0.111111111,0.,-0.,-1.,0.,0.,-3.,         0000099P0000085
4.242640687,-3.552713679E-15;                                    0000099P0000086
124,-0.707106781,0.,-0.707106781,-17.,-0.707106781,0.,           0000101P0000087
0.707106781,508.,0.,1.,0.,-7.;                                   0000101P0000088
110,-20.,505.,-7.,-20.,505.,7.;                                  0000103P0000089
104,5.555555556E-02,0.,0.111111111,0.,-0.,-1.,0.,4.242640687,    0000105P0000090
1.776356839E-15,0.,3.;                                           0000105P0000091
124,-0.707106781,0.,-0.707106781,-17.,-0.707106781,0.,           0000107P0000092
0.707106781,508.,0.,1.,0.,7.;                                    0000107P0000093
110,-17.,508.,10.,17.,542.,10.;                                  0000109P0000094
104,5.555555556E-02,0.,0.111111111,0.,-0.,-1.,0.,0.,3.,          0000111P0000095
-4.242640687,1.776356839E-15;                                    0000111P0000096
124,-0.707106781,0.,-0.707106781,17.,-0.707106781,0.,            0000113P0000097
0.707106781,542.,0.,1.,0.,7.;                                    0000113P0000098
144,117,1,0,125;                                                 0000115P0000099
120,121,123,4.71238898,6.283185307;                              0000117P0000100
124,0.,1.,0.,17.,0.,0.,-1.,-140.,-1.,0.,0.,-7.;                  0000119P0000101
110,0.,0.,1.,0.,0.,0.;                                           0000121P0000102
110,3.,0.,-685.,3.,0.,-140.;                                     0000123P0000103
142,0,117,127,137,3;                                             0000125P0000104
102,4,129,131,133,135;                                           0000127P0000105
126,8,8,1,0,1,0,4.71238898,4.71238898,4.71238898,4.71238898,     0000129P0000106
4.71238898,4.71238898,4.71238898,4.71238898,4.71238898,          0000129P0000107
6.283185307,6.283185307,6.283185307,6.283185307,6.283185307,     0000129P0000108
6.283185307,6.283185307,6.283185307,6.283185307,1.,1.,1.,1.,1.,  0000129P0000109
1.,1.,1.,1.,1.,4.71238898,0.,1.,4.908738521,0.,0.999757464,      0000129P0000110
5.105088062,0.,0.999272393,5.301437603,0.,0.998564727,           0000129P0000111
5.497787144,0.,0.997674385,5.694136685,0.,0.996657059,           0000129P0000112
5.890486225,0.,0.995576236,6.086835766,0.,0.994495413,           0000129P0000113
6.283185307,0.,4.71238898,6.283185307,0.,0.,1.;                  0000129P0000114
110,0.994495413,6.283185307,0.,5.504587156E-03,6.283185307,0.;   0000131P0000115
126,8,8,1,0,1,0,3.141592654,3.141592654,3.141592654,3.141592654, 0000133P0000116
3.141592654,3.141592654,3.141592654,3.141592654,3.141592654,     0000133P0000117
4.71238898,4.71238898,4.71238898,4.71238898,4.71238898,          0000133P0000118
4.71238898,4.71238898,4.71238898,4.71238898,1.,1.,1.,1.,1.,1.,   0000133P0000119
1.,1.,1.,5.504587156E-03,6.283185307,0.,4.423763995E-03,         0000133P0000120
6.086835766,0.,3.342940579E-03,5.890486225,0.,2.325615077E-03,   0000133P0000121
5.694136685,0.,1.435272937E-03,5.497787144,0.,7.27607083E-04,    0000133P0000122
5.301437603,0.,2.425363819E-04,5.105088062,0.,2.080397234E-16,   0000133P0000123
4.908738521,0.,2.079597264E-16,4.71238898,0.,3.141592654,        0000133P0000124
4.71238898,0.,0.,1.;                                             0000133P0000125
110,-2.220446049E-16,4.71238898,0.,1.,4.71238898,0.;             0000135P0000126
102,4,139,143,145,149;                                           0000137P0000127
104,5.555555556E-02,0.,0.111111111,0.,-0.,-1.,0.,4.242640687,    0000139P0000128
2.664535259E-15,0.,3.;                                           0000139P0000129
124,0.707106781,0.,0.707106781,17.,-0.707106781,0.,0.707106781,  0000141P0000130
3.,0.,-1.,0.,-7.;                                                0000141P0000131
110,17.,3.,-10.,17.,542.,-10.;                                   0000143P0000132
104,5.555555556E-02,0.,0.111111111,0.,-0.,-1.,0.,0.,3.,          0000145P0000133
-4.242640687,1.776356839E-15;                                    0000145P0000134
124,-0.707106781,0.,0.707106781,17.,-0.707106781,0.,             0000147P0000135
-0.707106781,542.,0.,-1.,0.,-7.;                                 0000147P0000136
110,20.,545.,-7.,20.,0.,-7.;                                     0000149P0000137
144,153,1,1,155,183;                                             0000151P0000138
108,-0.707106781,-0.707106781,0.,-14.142135624,0,                0000153P0000139
-7.051067812E+03,7.071067812E+03,1.E+04,0.;                      0000153P0000140
142,0,153,0,157,2;                                               0000155P0000141
102,8,159,163,165,169,171,175,177,181;                           0000157P0000142
104,0.222222222,0.,0.444444444,0.,-0.,-1.,0.,0.,-1.5,            0000159P0000143
2.121320344,8.881784197E-16;                                     0000159P0000144
124,0.707106781,0.,0.707106781,17.,-0.707106781,0.,0.707106781,  0000161P0000145
3.,0.,-1.,0.,7.;                                                 0000161P0000146
110,18.5,1.5,7.,18.5,1.5,-7.;                                    0000163P0000147
104,0.222222222,0.,0.444444444,0.,-0.,-1.,0.,2.121320344,        0000165P0000148
-8.881784197E-16,0.,1.5;                                         0000165P0000149
124,0.707106781,0.,0.707106781,17.,-0.707106781,0.,0.707106781,  0000167P0000150
3.,0.,-1.,0.,-7.;                                                0000167P0000151
110,17.,3.,-8.5,-17.,37.,-8.5;                                   0000169P0000152
104,0.222222222,0.,0.444444444,0.,-0.,-1.,0.,0.,1.5,             0000171P0000153
-2.121320344,-1.776356839E-15;                                   0000171P0000154
124,0.707106781,0.,0.707106781,-17.,-0.707106781,0.,0.707106781, 0000173P0000155
37.,0.,-1.,0.,-7.;                                               0000173P0000156
110,-18.5,38.5,-7.,-18.5,38.5,7.;                                0000175P0000157
104,0.222222222,0.,0.444444444,0.,-0.,-1.,0.,-2.121320344,       0000177P0000158
1.776356839E-15,0.,-1.5;                                         0000177P0000159
124,0.707106781,0.,0.707106781,-17.,-0.707106781,0.,0.707106781, 0000179P0000160
37.,0.,-1.,0.,7.;                                                0000179P0000161
110,-17.,37.,8.5,17.,3.,8.5;                                     0000181P0000162
142,0,153,0,185,2;                                               0000183P0000163
102,8,187,189,193,195,199,201,205,207;                           0000185P0000164
110,20.,1.98951966E-13,-7.,20.,1.98951966E-13,7.;                0000187P0000165
104,5.555555556E-02,0.,0.111111111,0.,-0.,-1.,0.,4.242640687,    0000189P0000166
1.776356839E-15,0.,3.;                                           0000189P0000167
124,0.707106781,0.,-0.707106781,17.,-0.707106781,0.,             0000191P0000168
-0.707106781,3.,0.,1.,0.,7.;                                     0000191P0000169
110,17.,3.,10.,-17.,37.,10.;                                     0000193P0000170
104,5.555555556E-02,0.,0.111111111,0.,-0.,-1.,0.,0.,3.,          0000195P0000171
-4.242640687,1.776356839E-15;                                    0000195P0000172
124,0.707106781,0.,-0.707106781,-17.,-0.707106781,0.,            0000197P0000173
-0.707106781,37.,0.,1.,0.,7.;                                    0000197P0000174
110,-20.,40.,7.,-20.,40.,-7.;                                    0000199P0000175
104,5.555555556E-02,0.,0.111111111,0.,-0.,-1.,0.,-4.242640687,   0000201P0000176
-8.881784197E-16,0.,-3.;                                         0000201P0000177
124,0.707106781,0.,-0.707106781,-17.,-0.707106781,0.,            0000203P0000178
-0.707106781,37.,0.,1.,0.,-7.;                                   0000203P0000179
110,-17.,37.,-10.,17.,3.,-10.;                                   0000205P0000180
104,5.555555556E-02,0.,0.111111111,0.,-0.,-1.,0.,0.,-3.,         0000207P0000181
4.242640687,-3.552713679E-15;                                    0000207P0000182
124,0.707106781,0.,-0.707106781,17.,-0.707106781,0.,             0000209P0000183
-0.707106781,3.,0.,1.,0.,-7.;                                    0000209P0000184
144,213,1,0,215;                                                 0000211P0000185
108,0.,-0.,1.,10.,0,17.,-140.,10.,0.;                            0000213P0000186
142,0,213,0,217,2;                                               0000215P0000187
102,4,219,221,223,225;                                           0000217P0000188
110,-17.,508.,10.,-17.,37.,10.;                                  0000219P0000189
110,-17.,37.,10.,17.,3.,10.;                                     0000221P0000190
110,17.,3.,10.,17.,542.,10.;                                     0000223P0000191
110,17.,542.,10.,-17.,508.,10.;                                  0000225P0000192
144,229,1,0,237;                                                 0000227P0000193
120,233,235,4.71238898,6.283185307;                              0000229P0000194
124,0.,-1.,0.,-17.,0.,0.,-1.,-140.,1.,0.,0.,7.;                  0000231P0000195
110,0.,0.,1.,0.,0.,0.;                                           0000233P0000196
110,3.,0.,-648.,3.,0.,-177.;                                     0000235P0000197
142,0,229,239,249,3;                                             0000237P0000198
102,4,241,243,245,247;                                           0000239P0000199
126,8,8,1,0,1,0,1.570796327,1.570796327,1.570796327,1.570796327, 0000241P0000200
1.570796327,1.570796327,1.570796327,1.570796327,1.570796327,     0000241P0000201
3.141592654,3.141592654,3.141592654,3.141592654,3.141592654,     0000241P0000202
3.141592654,3.141592654,3.141592654,3.141592654,1.,1.,1.,1.,1.,  0000241P0000203
1.,1.,1.,1.,0.993630573,4.71238898,0.,0.993630573,4.908738521,   0000241P0000204
0.,0.993911215,5.105088062,0.,0.994472497,5.301437603,0.,        0000241P0000205
0.995291346,5.497787144,0.,0.996321572,5.694136685,0.,           0000241P0000206
0.997498732,5.890486225,0.,0.998749366,6.086835766,0.,1.,        0000241P0000207
6.283185307,0.,1.570796327,3.141592654,-0.,-0.,1.;               0000241P0000208
110,1.,6.283185307,0.,-2.220446049E-16,6.283185307,0.;           0000243P0000209
126,8,8,1,0,1,0,5.921189465E-16,5.921189465E-16,5.921189465E-16, 0000245P0000210
5.921189465E-16,5.921189465E-16,5.921189465E-16,5.921189465E-16, 0000245P0000211
5.921189465E-16,5.921189465E-16,1.570796327,1.570796327,         0000245P0000212
1.570796327,1.570796327,1.570796327,1.570796327,1.570796327,     0000245P0000213
1.570796327,1.570796327,1.,1.,1.,1.,1.,1.,1.,1.,1.,              0000245P0000214
2.413733285E-16,6.283185307,0.,1.250634018E-03,6.086835766,0.,   0000245P0000215
2.501268333E-03,5.890486225,0.,3.678428415E-03,5.694136685,0.,   0000245P0000216
4.708654464E-03,5.497787144,0.,5.527503479E-03,5.301437603,0.,   0000245P0000217
6.088784866E-03,5.105088062,0.,6.369426752E-03,4.908738521,0.,   0000245P0000218
6.369426752E-03,4.71238898,0.,5.921189465E-16,1.570796327,-0.,   0000245P0000219
-0.,1.;                                                          0000245P0000220
110,6.369426752E-03,4.71238898,0.,0.993630573,4.71238898,0.;     0000247P0000221
102,4,251,255,257,261;                                           0000249P0000222
104,5.555555556E-02,0.,0.111111111,0.,-0.,-1.,0.,-4.242640687,   0000251P0000223
-8.881784197E-16,0.,-3.;                                         0000251P0000224
124,0.707106781,0.,0.707106781,-17.,-0.707106781,0.,0.707106781, 0000253P0000225
37.,0.,-1.,0.,7.;                                                0000253P0000226
110,-17.,37.,10.,-17.,508.,10.;                                  0000255P0000227
104,5.555555556E-02,0.,0.111111111,0.,-0.,-1.,0.,0.,-3.,         0000257P0000228
4.242640687,-3.552713679E-15;                                    0000257P0000229
124,-0.707106781,0.,0.707106781,-17.,-0.707106781,0.,            0000259P0000230
-0.707106781,508.,0.,-1.,0.,7.;                                  0000259P0000231
110,-20.,505.,7.,-20.,40.,7.;                                    0000261P0000232
144,265,1,0,267;                                                 0000263P0000233
108,-1.,0.,0.,20.,0,-20.,-140.,7.,0.;                            0000265P0000234
142,0,265,0,269,2;                                               0000267P0000235
102,4,271,273,275,277;                                           0000269P0000236
110,-20.,505.,-7.,-20.,40.,-7.;                                  0000271P0000237
110,-20.,40.,-7.,-20.,40.,7.;                                    0000273P0000238
110,-20.,40.,7.,-20.,505.,7.;                                    0000275P0000239
110,-20.,505.,7.,-20.,505.,-7.;                                  0000277P0000240
144,281,1,0,289;                                                 0000279P0000241
120,285,287,4.71238898,6.283185307;                              0000281P0000242
124,-1.,5.921189465E-16,0.,-17.,-0.,0.,-1.,-140.,                0000283P0000243
-5.921189465E-16,-1.,0.,-7.;                                     0000283P0000244
110,0.,0.,1.,0.,0.,0.;                                           0000285P0000245
110,3.,0.,-648.,3.,0.,-177.;                                     0000287P0000246
142,0,281,291,301,3;                                             0000289P0000247
102,4,293,295,297,299;                                           0000291P0000248
126,8,8,1,0,1,0,3.141592654,3.141592654,3.141592654,3.141592654, 0000293P0000249
3.141592654,3.141592654,3.141592654,3.141592654,3.141592654,     0000293P0000250
4.71238898,4.71238898,4.71238898,4.71238898,4.71238898,          0000293P0000251
4.71238898,4.71238898,4.71238898,4.71238898,1.,1.,1.,1.,1.,1.,   0000293P0000252
1.,1.,1.,1.,4.71238898,0.,0.998749366,4.908738521,0.,            0000293P0000253
0.997498732,5.105088062,0.,0.996321572,5.301437603,0.,           0000293P0000254
0.995291346,5.497787144,0.,0.994472497,5.694136685,0.,           0000293P0000255
0.993911215,5.890486225,0.,0.993630573,6.086835766,0.,           0000293P0000256
0.993630573,6.283185307,0.,3.141592654,4.71238898,-0.,-0.,1.;    0000293P0000257
110,0.993630573,6.283185307,0.,6.369426752E-03,6.283185307,0.;   0000295P0000258
126,8,8,1,0,1,0,4.71238898,4.71238898,4.71238898,4.71238898,     0000297P0000259
4.71238898,4.71238898,4.71238898,4.71238898,4.71238898,          0000297P0000260
6.283185307,6.283185307,6.283185307,6.283185307,6.283185307,     0000297P0000261
6.283185307,6.283185307,6.283185307,6.283185307,1.,1.,1.,1.,1.,  0000297P0000262
1.,1.,1.,1.,6.369426752E-03,6.283185307,0.,6.369426752E-03,      0000297P0000263
6.086835766,0.,6.088784868E-03,5.890486225,0.,5.527503477E-03,   0000297P0000264
5.694136685,0.,4.708654469E-03,5.497787144,0.,3.678428413E-03,   0000297P0000265
5.301437603,0.,2.501268335E-03,5.105088062,0.,1.250634018E-03,   0000297P0000266
4.908738521,0.,2.406328044E-16,4.71238898,0.,4.71238898,         0000297P0000267
6.283185307,-0.,-0.,1.;                                          0000297P0000268
110,-2.220446049E-16,4.71238898,0.,1.,4.71238898,0.;             0000299P0000269
102,4,303,307,309,313;                                           0000301P0000270
104,5.555555556E-02,0.,0.111111111,0.,-0.,-1.,0.,0.,3.,          0000303P0000271
-4.242640687,1.776356839E-15;                                    0000303P0000272
124,0.707106781,0.,0.707106781,-17.,-0.707106781,0.,0.707106781, 0000305P0000273
37.,0.,-1.,0.,-7.;                                               0000305P0000274
110,-20.,40.,-7.,-20.,505.,-7.;                                  0000307P0000275
104,5.555555556E-02,0.,0.111111111,0.,-0.,-1.,0.,4.242640687,    0000309P0000276
2.664535259E-15,0.,3.;                                           0000309P0000277
124,-0.707106781,0.,0.707106781,-17.,-0.707106781,0.,            0000311P0000278
-0.707106781,508.,0.,-1.,0.,-7.;                                 0000311P0000279
110,-17.,508.,-10.,-17.,37.,-10.;                                0000313P0000280
144,317,1,0,319;                                                 0000315P0000281
108,0.,0.,-1.,10.,0,-17.,-140.,-10.,0.;                          0000317P0000282
142,0,317,0,321,2;                                               0000319P0000283
102,4,323,325,327,329;                                           0000321P0000284
110,17.,542.,-10.,17.,3.,-10.;                                   0000323P0000285
110,17.,3.,-10.,-17.,37.,-10.;                                   0000325P0000286
110,-17.,37.,-10.,-17.,508.,-10.;                                0000327P0000287
110,-17.,508.,-10.,17.,542.,-10.;                                0000329P0000288
144,333,1,0,341;                                                 0000331P0000289
120,337,339,0.,1.570796327;                                      0000333P0000290
124,1.,-1.184237893E-15,0.,17.,0.,-0.,-1.,-140.,                 0000335P0000291
-1.184237893E-15,-1.,0.,7.;                                      0000335P0000292
110,0.,0.,1.,0.,0.,0.;                                           0000337P0000293
110,1.5,0.,-683.5,1.5,0.,-141.5;                                 0000339P0000294
142,0,333,343,353,3;                                             0000341P0000295
102,4,345,347,349,351;                                           0000343P0000296
110,-2.220446049E-16,1.887379142E-15,0.,1.,1.22235555E-13,0.;    0000345P0000297
126,7,7,1,0,1,0,-8.881784197E-16,-8.881784197E-16,               0000347P0000298
-8.881784197E-16,-8.881784197E-16,-8.881784197E-16,              0000347P0000299
-8.881784197E-16,-8.881784197E-16,-8.881784197E-16,1.570796327,  0000347P0000300
1.570796327,1.570796327,1.570796327,1.570796327,1.570796327,     0000347P0000301
1.570796327,1.570796327,1.,1.,1.,1.,1.,1.,1.,1.,1.,              0000347P0000302
1.234568003E-13,0.,1.,0.224399475,0.,0.999837411,0.448798951,0., 0000347P0000303
0.999512258,0.673198426,0.,0.999044502,0.897597901,0.,           0000347P0000304
0.998474533,1.121997376,0.,0.997853504,1.346396852,0.,           0000347P0000305
0.997232472,1.570796327,0.,-8.881784197E-16,1.570796327,0.,0.,   0000347P0000306
1.;                                                              0000347P0000307
110,0.997232472,1.570796327,0.,2.767527675E-03,1.570796327,0.;   0000349P0000308
126,7,7,1,0,1,0,1.570796327,1.570796327,1.570796327,1.570796327, 0000351P0000309
1.570796327,1.570796327,1.570796327,1.570796327,3.141592654,     0000351P0000310
3.141592654,3.141592654,3.141592654,3.141592654,3.141592654,     0000351P0000311
3.141592654,3.141592654,1.,1.,1.,1.,1.,1.,1.,1.,2.767527675E-03, 0000351P0000312
1.570796327,0.,2.146495917E-03,1.346396852,0.,1.525466681E-03,   0000351P0000313
1.121997376,0.,9.554977146E-04,0.897597901,0.,4.877421457E-04,   0000351P0000314
0.673198426,0.,1.625885774E-04,0.448798951,0.,-2.482141525E-18,  0000351P0000315
0.224399475,0.,-2.574072692E-18,1.776356839E-15,0.,1.570796327,  0000351P0000316
3.141592654,0.,0.,1.;                                            0000351P0000317
102,4,355,357,361,363;                                           0000353P0000318
110,18.5,543.5,7.,18.5,1.5,7.;                                   0000355P0000319
104,0.222222222,0.,0.444444444,0.,-0.,-1.,0.,2.121320344,        0000357P0000320
-8.881784197E-16,0.,1.5;                                         0000357P0000321
124,0.707106781,0.,-0.707106781,17.,-0.707106781,0.,             0000359P0000322
-0.707106781,3.,0.,1.,0.,7.;                                     0000359P0000323
110,17.,3.,8.5,17.,542.,8.5;                                     0000361P0000324
104,0.222222222,0.,0.444444444,0.,-0.,-1.,0.,0.,1.5,             0000363P0000325
-2.121320344,-1.776356839E-15;                                   0000363P0000326
124,-0.707106781,0.,-0.707106781,17.,-0.707106781,0.,            0000365P0000327
0.707106781,542.,0.,1.,0.,7.;                                    0000365P0000328
144,369,1,0,371;                                                 0000367P0000329
108,-1.,-0.,-0.,-18.5,0,18.5,-140.,-7.,0.;                       0000369P0000330
142,0,369,0,373,2;                                               0000371P0000331
102,4,375,377,379,381;                                           0000373P0000332
110,18.5,1.5,-7.,18.5,1.5,7.;                                    0000375P0000333
110,18.5,1.5,7.,18.5,543.5,7.;                                   0000377P0000334
110,18.5,543.5,7.,18.5,543.5,-7.;                                0000379P0000335
110,18.5,543.5,-7.,18.5,1.5,-7.;                                 0000381P0000336
144,385,1,0,393;                                                 0000383P0000337
120,389,391,0.,1.570796327;                                      0000385P0000338
124,0.,-1.,0.,17.,0.,-0.,-1.,-140.,-1.,-0.,0.,-7.;               0000387P0000339
110,0.,0.,1.,0.,0.,0.;                                           0000389P0000340
110,1.5,0.,-683.5,1.5,0.,-141.5;                                 0000391P0000341
142,0,385,395,405,3;                                             0000393P0000342
102,4,397,399,401,403;                                           0000395P0000343
110,2.767527675E-03,2.220446049E-15,0.,0.997232472,              0000397P0000344
1.219024881E-13,0.;                                              0000397P0000345
126,7,7,1,0,1,0,4.71238898,4.71238898,4.71238898,4.71238898,     0000399P0000346
4.71238898,4.71238898,4.71238898,4.71238898,6.283185307,         0000399P0000347
6.283185307,6.283185307,6.283185307,6.283185307,6.283185307,     0000399P0000348
6.283185307,6.283185307,1.,1.,1.,1.,1.,1.,1.,1.,0.997232472,     0000399P0000349
1.216804435E-13,0.,0.997853504,0.224399475,0.,0.998474533,       0000399P0000350
0.448798951,0.,0.999044502,0.673198426,0.,0.999512258,           0000399P0000351
0.897597901,0.,0.999837411,1.121997376,0.,1.,1.346396852,0.,1.,  0000399P0000352
1.570796327,0.,4.71238898,6.283185307,0.,0.,1.;                  0000399P0000353
110,1.,1.570796327,0.,-2.220446049E-16,1.570796327,0.;           0000401P0000354
126,7,7,1,0,1,0,3.141592654,3.141592654,3.141592654,3.141592654, 0000403P0000355
3.141592654,3.141592654,3.141592654,3.141592654,4.71238898,      0000403P0000356
4.71238898,4.71238898,4.71238898,4.71238898,4.71238898,          0000403P0000357
4.71238898,4.71238898,1.,1.,1.,1.,1.,1.,1.,1.,-1.930554519E-18,  0000403P0000358
1.570796327,0.,-2.022485687E-18,1.346396852,0.,1.625885773E-04,  0000403P0000359
1.121997376,0.,4.877421457E-04,0.897597901,0.,9.554977143E-04,   0000403P0000360
0.673198426,0.,1.525466681E-03,0.448798951,0.,2.146495917E-03,   0000403P0000361
0.224399475,0.,2.767527675E-03,1.776356839E-15,0.,3.141592654,   0000403P0000362
4.71238898,0.,0.,1.;                                             0000403P0000363
102,4,407,409,413,415;                                           0000405P0000364
110,17.,542.,-8.5,17.,3.,-8.5;                                   0000407P0000365
104,0.222222222,0.,0.444444444,0.,-0.,-1.,0.,0.,-1.5,            0000409P0000366
2.121320344,8.881784197E-16;                                     0000409P0000367
124,0.707106781,0.,-0.707106781,17.,-0.707106781,0.,             0000411P0000368
-0.707106781,3.,0.,1.,0.,-7.;                                    0000411P0000369
110,18.5,1.5,-7.,18.5,543.5,-7.;                                 0000413P0000370
104,0.222222222,0.,0.444444444,0.,-0.,-1.,0.,-2.121320344,       0000415P0000371
1.776356839E-15,0.,-1.5;                                         0000415P0000372
124,-0.707106781,0.,-0.707106781,17.,-0.707106781,0.,            0000417P0000373
0.707106781,542.,0.,1.,0.,-7.;                                   0000417P0000374
144,421,1,0,423;                                                 0000419P0000375
108,-0.,-0.,1.,-8.5,0,-17.,-140.,-8.5,0.;                        0000421P0000376
142,0,421,0,425,2;                                               0000423P0000377
102,4,427,429,431,433;                                           0000425P0000378
110,-17.,37.,-8.5,17.,3.,-8.5;                                   0000427P0000379
110,17.,3.,-8.5,17.,542.,-8.5;                                   0000429P0000380
110,17.,542.,-8.5,-17.,508.,-8.5;                                0000431P0000381
110,-17.,508.,-8.5,-17.,37.,-8.5;                                0000433P0000382
144,437,1,0,445;                                                 0000435P0000383
120,441,443,0.,1.570796327;                                      0000437P0000384
124,-1.,1.184237893E-15,0.,-17.,0.,0.,-1.,-140.,1.184237893E-15, 0000439P0000385
1.,0.,-7.;                                                       0000439P0000386
110,0.,0.,1.,0.,0.,0.;                                           0000441P0000387
110,1.5,0.,-648.,1.5,0.,-177.;                                   0000443P0000388
142,0,437,447,457,3;                                             0000445P0000389
102,4,449,451,453,455;                                           0000447P0000390
110,3.184713376E-03,2.109423747E-15,0.,0.996815287,              0000449P0000391
1.060262989E-13,0.;                                              0000449P0000392
126,7,7,1,0,1,0,3.141592654,3.141592654,3.141592654,3.141592654, 0000451P0000393
3.141592654,3.141592654,3.141592654,3.141592654,4.71238898,      0000451P0000394
4.71238898,4.71238898,4.71238898,4.71238898,4.71238898,          0000451P0000395
4.71238898,4.71238898,1.,1.,1.,1.,1.,1.,1.,1.,0.996815287,       0000451P0000396
1.056932319E-13,0.,0.996815287,0.224399475,0.,0.997002384,       0000451P0000397
0.448798951,0.,0.997376553,0.673198426,0.,0.997914819,           0000451P0000398
0.897597901,0.,0.998570707,1.121997376,0.,0.999285352,           0000451P0000399
1.346396852,0.,1.,1.570796327,0.,3.141592654,4.71238898,-0.,-0., 0000451P0000400
1.;                                                              0000451P0000401
110,1.,1.570796327,0.,-2.220446049E-16,1.570796327,0.;           0000453P0000402
126,7,7,1,0,1,0,4.71238898,4.71238898,4.71238898,4.71238898,     0000455P0000403
4.71238898,4.71238898,4.71238898,4.71238898,6.283185307,         0000455P0000404
6.283185307,6.283185307,6.283185307,6.283185307,6.283185307,     0000455P0000405
6.283185307,6.283185307,1.,1.,1.,1.,1.,1.,1.,1.,2.391517562E-16, 0000455P0000406
1.570796327,0.,7.146480104E-04,1.346396852,0.,1.429293119E-03,   0000455P0000407
1.121997376,0.,2.085180974E-03,0.897597901,0.,2.623447467E-03,   0000455P0000408
0.673198426,0.,2.997615692E-03,0.448798951,0.,3.184713376E-03,   0000455P0000409
0.224399475,0.,3.184713376E-03,2.664535259E-15,0.,4.71238898,    0000455P0000410
6.283185307,-0.,-0.,1.;                                          0000455P0000411
102,4,459,461,465,467;                                           0000457P0000412
110,-18.5,506.5,-7.,-18.5,38.5,-7.;                              0000459P0000413
104,0.222222222,0.,0.444444444,0.,-0.,-1.,0.,-2.121320344,       0000461P0000414
1.776356839E-15,0.,-1.5;                                         0000461P0000415
124,0.707106781,0.,-0.707106781,-17.,-0.707106781,0.,            0000463P0000416
-0.707106781,37.,0.,1.,0.,-7.;                                   0000463P0000417
110,-17.,37.,-8.5,-17.,508.,-8.5;                                0000465P0000418
104,0.222222222,0.,0.444444444,0.,-0.,-1.,0.,0.,-1.5,            0000467P0000419
2.121320344,8.881784197E-16;                                     0000467P0000420
124,-0.707106781,0.,-0.707106781,-17.,-0.707106781,0.,           0000469P0000421
0.707106781,508.,0.,1.,0.,-7.;                                   0000469P0000422
144,473,1,0,475;                                                 0000471P0000423
108,1.,-0.,-0.,-18.5,0,-18.5,-140.,7.,0.;                        0000473P0000424
142,0,473,0,477,2;                                               0000475P0000425
102,4,479,481,483,485;                                           0000477P0000426
110,-18.5,38.5,7.,-18.5,38.5,-7.;                                0000479P0000427
110,-18.5,38.5,-7.,-18.5,506.5,-7.;                              0000481P0000428
110,-18.5,506.5,-7.,-18.5,506.5,7.;                              0000483P0000429
110,-18.5,506.5,7.,-18.5,38.5,7.;                                0000485P0000430
144,489,1,0,497;                                                 0000487P0000431
120,493,495,0.,1.570796327;                                      0000489P0000432
124,0.,1.,0.,-17.,0.,0.,-1.,-140.,1.,0.,0.,7.;                   0000491P0000433
110,0.,0.,1.,0.,0.,0.;                                           0000493P0000434
110,1.5,0.,-648.,1.5,0.,-177.;                                   0000495P0000435
142,0,489,499,509,3;                                             0000497P0000436
102,4,501,503,505,507;                                           0000499P0000437
110,-2.220446049E-16,1.776356839E-15,0.,1.,1.063593658E-13,0.;   0000501P0000438
126,7,7,1,0,1,0,1.570796327,1.570796327,1.570796327,1.570796327, 0000503P0000439
1.570796327,1.570796327,1.570796327,1.570796327,3.141592654,     0000503P0000440
3.141592654,3.141592654,3.141592654,3.141592654,3.141592654,     0000503P0000441
3.141592654,3.141592654,1.,1.,1.,1.,1.,1.,1.,1.,1.,              0000503P0000442
1.065814104E-13,0.,0.999285352,0.224399475,0.,0.998570707,       0000503P0000443
0.448798951,0.,0.997914819,0.673198426,0.,0.997376553,           0000503P0000444
0.897597901,0.,0.997002384,1.121997376,0.,0.996815287,           0000503P0000445
1.346396852,0.,0.996815287,1.570796327,0.,1.570796327,           0000503P0000446
3.141592654,-0.,-0.,1.;                                          0000503P0000447
110,0.996815287,1.570796327,0.,3.184713376E-03,1.570796327,0.;   0000505P0000448
126,7,7,1,0,1,0,-8.881784197E-16,-8.881784197E-16,               0000507P0000449
-8.881784197E-16,-8.881784197E-16,-8.881784197E-16,              0000507P0000450
-8.881784197E-16,-8.881784197E-16,-8.881784197E-16,1.570796327,  0000507P0000451
1.570796327,1.570796327,1.570796327,1.570796327,1.570796327,     0000507P0000452
1.570796327,1.570796327,1.,1.,1.,1.,1.,1.,1.,1.,3.184713376E-03, 0000507P0000453
1.570796327,0.,3.184713376E-03,1.346396852,0.,2.997615692E-03,   0000507P0000454
1.121997376,0.,2.623447467E-03,0.897597901,0.,2.085180973E-03,   0000507P0000455
0.673198426,0.,1.429293119E-03,0.448798951,0.,7.146480104E-04,   0000507P0000456
0.224399475,0.,2.384112321E-16,1.776356839E-15,0.,               0000507P0000457
-8.881784197E-16,1.570796327,-0.,-0.,1.;                         0000507P0000458
102,4,511,513,517,519;                                           0000509P0000459
110,-17.,508.,8.5,-17.,37.,8.5;                                  0000511P0000460
104,0.222222222,0.,0.444444444,0.,-0.,-1.,0.,0.,1.5,             0000513P0000461
-2.121320344,-1.776356839E-15;                                   0000513P0000462
124,0.707106781,0.,-0.707106781,-17.,-0.707106781,0.,            0000515P0000463
-0.707106781,37.,0.,1.,0.,7.;                                    0000515P0000464
110,-18.5,38.5,7.,-18.5,506.5,7.;                                0000517P0000465
104,0.222222222,0.,0.444444444,0.,-0.,-1.,0.,2.121320344,        0000519P0000466
-8.881784197E-16,0.,1.5;                                         0000519P0000467
124,-0.707106781,0.,-0.707106781,-17.,-0.707106781,0.,           0000521P0000468
0.707106781,508.,0.,1.,0.,7.;                                    0000521P0000469
144,525,1,0,527;                                                 0000523P0000470
108,-0.,0.,-1.,-8.5,0,17.,-140.,8.5,0.;                          0000525P0000471
142,0,525,0,529,2;                                               0000527P0000472
102,4,531,533,535,537;                                           0000529P0000473
110,17.,3.,8.5,-17.,37.,8.5;                                     0000531P0000474
110,-17.,37.,8.5,-17.,508.,8.5;                                  0000533P0000475
110,-17.,508.,8.5,17.,542.,8.5;                                  0000535P0000476
110,17.,542.,8.5,17.,3.,8.5;                                     0000537P0000477
S      1G      4D    538P    477                                        T0000001
